<?xml version="1.0" encoding="utf-8"?>
<!-- Generator: Adobe Illustrator 16.0.0, SVG Export Plug-In . SVG Version: 6.00 Build 0)  -->
<!DOCTYPE svg PUBLIC "-//W3C//DTD SVG 1.1//EN" "https://www.w3.org/Graphics/SVG/1.1/DTD/svg11.dtd">
<svg version="1.1" id="Layer_1" xmlns="https://www.w3.org/2000/svg" xmlns:xlink="https://www.w3.org/1999/xlink" x="0px" y="0px"
	 width="2000px" height="2000px" viewBox="0 0 2000 2000" enable-background="new 0 0 2000 2000" xml:space="preserve">
<path fill="#010101" d="M426.499,1352.39c-10.028,10.003-15.03,23.137-15.03,36.268c0,13.133,5.001,26.265,15.03,36.269
	l536.247,536.222c20.032,20.031,52.503,20.031,72.536,0l536.222-536.222c20.032-20.006,20.032-52.529,0-72.536
	c-20.032-20.032-52.504-20.032-72.536,0l-451.065,451.041V78.139c0-28.317-22.981-51.298-51.299-51.298
	c-28.316,0-51.298,22.981-51.298,51.298l0,1720.495L499.061,1352.39C479.003,1332.332,446.557,1332.332,426.499,1352.39z"/>
</svg>
