<?xml version="1.0" encoding="utf-8"?>
<!-- Generator: Adobe Illustrator 16.0.0, SVG Export Plug-In . SVG Version: 6.00 Build 0)  -->
<!DOCTYPE svg PUBLIC "-//W3C//DTD SVG 1.1//EN" "http://www.w3.org/Graphics/SVG/1.1/DTD/svg11.dtd">
<svg version="1.1" id="Layer_1" xmlns="http://www.w3.org/2000/svg" xmlns:xlink="http://www.w3.org/1999/xlink" x="0px" y="0px"
	 width="2000px" height="2000px" viewBox="0 0 2000 2000" enable-background="new 0 0 2000 2000" xml:space="preserve">
<g>
	<path d="M485.601,1505.691c-4.608,0-9.078-1.781-12.435-5.043c-4.012-3.896-5.964-9.45-5.277-14.996l38.818-313.085
		c-16.571-11.937-60.729-38.273-117.063-55.493l-225.43,32.038c-2.938,0.418-5.93,0.093-8.712-0.938l-119.017-44.099
		c-7.717-2.858-12.477-10.628-11.526-18.801c0.813-6.994,5.633-12.742,12.126-14.888c80.452-27.84,192.674-67.043,252.097-87.927
		c-2.146-0.715-4.247-1.412-6.251-2.078c-10.2-3.385-20.747-6.886-31.083-10.533c-3.731-1.315-6.919-3.834-9.063-7.16
		c-18.893-29.298-30.028-53.148-22.967-74.309c7.719-23.132,31.924-32.075,68.563-45.611l6.271-2.32
		c32.65-12.913,63.542-24.881,82.088-32.03L249.893,531.2c-4.019-8.778-0.325-19.16,8.331-23.433
		c2.425-1.196,24.722-11.694,60.114-11.694c44.126,0,111.521,16.733,182.018,96.453c45.081,50.976,76.755,93.2,99.883,124.03
		c29.118,38.816,48.354,64.458,62.341,64.456c0.567,0,1.158-0.035,1.764-0.104l766.487-206.677
		c1.828-0.461,37.778-9.323,81.184-9.323c69.22,0,118.242,22.609,141.771,65.382c18.514,33.647,75.661,38.311,136.162,43.245
		c71.699,5.85,145.842,11.898,174.642,69.491c11.022,22.042,11.542,45.162,1.503,66.859
		c-30.005,64.853-157.519,122.907-401.294,182.699c-313.732,76.952-445.785,136.822-463.543,164.717
		c-0.86,1.355-1.894,2.579-3.083,3.656L768.131,1459.47c-2.589,2.34-5.808,3.873-9.259,4.4l-270.558,41.612
		C487.41,1505.622,486.501,1505.691,485.601,1505.691z M391.021,1081c1.71,0,3.414,0.248,5.06,0.736
		c76.639,22.657,131.797,60.241,142.181,70.637c3.883,3.896,5.757,9.357,5.082,14.811l-37.125,299.437l241.94-37.213
		l324.448-293.456c11.806-16.801,44.08-43.836,170.481-88.074c82.121-28.738,190.429-59.847,313.205-89.962
		c226.029-55.439,353.009-110.286,377.405-163.018c5.546-11.993,5.221-23.403-1.034-35.909
		c-19.811-39.614-83.768-44.831-145.616-49.877c-67.241-5.484-136.771-11.157-164.533-61.615
		c-21.321-38.758-71.856-46.894-110.499-46.894c-38.823,0-71.892,8.095-72.221,8.178l-767.22,206.877
		c-0.604,0.163-1.216,0.294-1.834,0.393c-2.729,0.436-5.473,0.656-8.157,0.656c-31.833,0.004-52.813-27.961-90.897-78.729
		c-22.764-30.346-53.94-71.904-98.07-121.805c-61.689-69.761-118.49-84.404-155.278-84.404c-11.009,0-20.367,1.312-27.615,2.879
		l126.379,276.194c2.053,4.485,2.157,9.619,0.291,14.185c-1.869,4.564-5.541,8.153-10.149,9.913
		c-0.471,0.18-47.755,18.256-99.821,38.841l-6.67,2.471c-22.015,8.134-44.776,16.544-47.075,23.431
		c-1.084,3.249-0.31,12.523,15.856,38.535c8.189,2.827,16.528,5.597,24.645,8.29c46.518,15.44,60.556,20.102,60.869,36.585
		c0.159,8.222-5.029,15.517-13.213,18.587c-9.878,3.702-138.337,48.715-246.28,86.215l68.112,25.244l224.843-31.961
		C389.343,1081.062,390.182,1081,391.021,1081z"/>
</g>
</svg>
