<?xml version="1.0" encoding="utf-8"?>
<!-- Generator: Adobe Illustrator 16.0.0, SVG Export Plug-In . SVG Version: 6.00 Build 0)  -->
<!DOCTYPE svg PUBLIC "-//W3C//DTD SVG 1.1//EN" "http://www.w3.org/Graphics/SVG/1.1/DTD/svg11.dtd">
<svg version="1.1" id="Layer_1" xmlns="http://www.w3.org/2000/svg" xmlns:xlink="http://www.w3.org/1999/xlink" x="0px" y="0px"
	 width="2000px" height="2000px" viewBox="0 0 2000 2000" enable-background="new 0 0 2000 2000" xml:space="preserve">
<path fill="#010101" d="M1641.712,1314.502c-28.749,0-56.5,4.048-83.112,10.966l-340.893-721.91
	c68.83-60.277,112.571-148.326,112.571-246.542c0-181.216-148.123-328.632-330.135-328.632
	c-182.013,0-330.134,147.416-330.134,328.655c0,98.216,43.719,186.266,112.547,246.52L441.688,1325.49
	c-26.612-6.918-54.363-10.967-83.114-10.967c-182.035,0-330.132,147.417-330.132,328.655c0,181.216,148.097,328.633,330.132,328.633
	c166.5,0,304.227-123.44,326.607-283.139h629.947c22.383,159.698,160.087,283.139,326.585,283.139
	c182.037,0,330.156-147.417,330.156-328.633C1971.846,1461.94,1823.749,1314.502,1641.712,1314.502z M760.992,357.015
	c0-131.04,107.294-237.672,239.151-237.672c131.882,0,239.173,106.632,239.173,237.672s-107.317,237.672-239.173,237.672
	C868.286,594.687,760.992,488.077,760.992,357.015z M358.551,1880.807c-131.857,0-239.151-106.611-239.151-237.65
	c0-131.038,107.294-237.672,239.151-237.672c131.879,0,239.173,106.634,239.173,237.672
	C597.724,1774.195,490.431,1880.807,358.551,1880.807z M685.158,1597.667c-14.171-101.106-74.539-187.472-159.311-237.354
	l333.566-706.464c42.764,20.175,90.346,31.798,140.707,31.798c50.359,0,97.941-11.623,140.703-31.798l333.591,706.442
	c-84.771,49.882-145.139,136.248-159.311,237.35H685.158V1597.667z M1641.712,1880.807c-131.855,0-239.151-106.611-239.151-237.65
	c0-131.038,107.296-237.672,239.151-237.672c131.881,0,239.173,106.634,239.173,237.672
	C1880.885,1774.195,1773.571,1880.807,1641.712,1880.807z"/>
</svg>
