<?xml version="1.0" encoding="utf-8"?>
<!-- Generator: Adobe Illustrator 16.0.0, SVG Export Plug-In . SVG Version: 6.00 Build 0)  -->
<!DOCTYPE svg PUBLIC "-//W3C//DTD SVG 1.1//EN" "https://www.w3.org/Graphics/SVG/1.1/DTD/svg11.dtd">
<svg version="1.1" id="Layer_1" xmlns="https://www.w3.org/2000/svg" xmlns:xlink="https://www.w3.org/1999/xlink" x="0px" y="0px"
	 width="2000px" height="2000px" viewBox="0 0 2000 2000" enable-background="new 0 0 2000 2000" xml:space="preserve">
<g>
	<path fill="#010101" d="M1704.701,1076.422c-7.395-7.363-19.688-17.223-22.152-22.156c-2.465-7.359,0-22.121,0-34.43
		c2.465-24.602,4.898-54.117-14.758-73.809c-14.789-17.223-39.379-17.223-46.773-17.223c-7.363,0-17.191,2.465-27.051,2.465
		c-7.395,2.449-14.758,2.449-22.121,2.449c-7.395,0-9.859-2.449-12.324-2.449c-4.934-2.465-14.762-12.309-22.121-22.152
		c-14.793-19.688-34.449-44.277-63.965-44.277c-29.551,0-49.238,24.59-63.965,44.277c-7.395,7.379-17.254,19.688-22.184,22.152
		c-2.434,2.449-4.898,2.449-12.262,2.449c-7.395,0-14.793-2.449-22.156-2.449c-9.828-2.465-19.688-2.465-27.082-2.465
		c-7.363,0-29.516,0-46.742,17.223c-19.688,19.691-17.223,49.207-14.758,73.809c0,12.309,2.465,27.07,0,34.43
		c-2.465,4.934-12.293,14.793-22.121,22.156c-19.719,14.758-44.305,34.445-44.305,63.965c0,29.547,24.586,49.203,44.305,63.992
		c7.363,7.363,19.656,17.191,22.121,22.125c2.465,7.395,0,22.121,0,34.445c-2.465,24.586-4.93,54.102,14.758,73.824
		c14.762,17.191,39.379,17.191,46.742,17.191c7.395,0,17.254-2.465,27.082-2.465c7.363-2.434,14.762-2.434,22.156-2.434
		c7.363,0,9.828,2.434,12.262,2.434c4.93,2.465,14.789,12.324,22.184,22.152c14.727,19.688,34.414,44.277,63.965,44.277
		c29.516,0,49.172-24.59,63.965-44.277c7.359-7.363,17.188-19.688,22.121-22.152c2.465-2.434,4.93-2.434,12.324-2.434
		c7.363,0,14.727,2.434,22.121,2.434c9.859,2.465,19.688,2.465,27.051,2.465c7.395,0,29.551,0,46.773-17.191
		c19.656-19.723,17.223-49.238,14.758-73.824c0-12.324-2.465-27.051,0-34.445c2.465-4.934,12.293-14.762,22.152-22.125
		c19.656-14.789,44.277-34.445,44.277-63.992C1748.979,1110.867,1724.357,1091.18,1704.701,1076.422z M1675.186,1167.469
		c-14.789,12.293-29.547,24.586-36.91,41.809c-7.398,19.691-4.93,39.348-2.465,59.066c2.465,9.828,2.465,31.984,0,34.449
		c0,0-2.465,2.43-12.328,2.43c-7.363,0-14.727-2.43-22.121-2.43c-24.617-2.465-44.305-2.465-59.031,2.43
		c-17.258,7.398-29.551,22.156-41.844,36.914c-7.395,7.363-22.152,24.617-27.051,24.617c-7.395,0-19.723-14.789-27.086-24.617
		c-12.293-14.758-24.617-29.516-41.809-36.914c-7.395-2.43-17.254-4.895-29.516-4.895c-7.395,0-17.258,0-29.551,2.465
		c-7.363,2.43-14.758,2.43-22.152,2.43c-9.828,0-12.293-2.43-12.293-2.43c-2.434-2.465,0-24.621,0-34.449
		c2.465-19.719,4.93-41.84-2.434-59.066c-7.395-17.223-22.152-29.516-36.91-41.809c-7.398-7.395-24.621-22.152-24.621-27.082
		c0-7.363,14.758-19.691,24.621-27.055c14.758-12.293,29.516-24.617,36.91-41.809c7.363-19.723,4.898-39.379,2.434-59.066
		c-2.434-9.844-2.434-31.98,0-34.445c0,0,2.465-2.465,12.293-2.465c7.395,0,14.789,2.465,22.152,2.465
		c24.621,2.465,44.277,2.465,59.066-2.465c17.191-7.379,29.516-22.141,41.809-36.898c7.363-7.379,22.156-24.602,27.086-24.602
		c7.363,0,19.656,14.758,27.051,24.602c12.293,14.758,24.586,29.52,41.844,36.898c14.727,4.93,36.879,4.93,59.031,2.465
		c7.395-2.465,14.758-2.465,22.121-2.465c9.863,0,12.328,2.465,12.328,2.465c2.465,2.465,0,24.602,0,34.445
		c-2.465,19.688-4.934,41.809,2.465,59.066c7.363,17.191,22.121,29.516,36.91,41.809c7.363,7.363,24.586,22.156,24.586,27.055
		C1699.771,1147.781,1685.014,1160.074,1675.186,1167.469z"/>
	<path fill="#010101" d="M1630.877,1433.184c-2.465-12.324-17.223-19.688-29.516-17.254c-12.324,2.465-19.688,17.254-17.223,29.547
		l49.207,211.578l-39.379-4.93c-7.395-2.465-17.223,0-24.586,4.93l-31.98,22.156l-51.672-221.441
		c-1.824-9.096-10.379-15.505-19.7-17.228c-12.325-4.887-27.043,4.938-29.507,17.228l-36.91,155.012l-31.98-22.152
		c-7.398-4.93-14.762-7.398-24.59-4.93l-39.375,4.93l41.809-177.133c4.93-12.293-4.898-27.086-17.223-29.551
		c-12.293-4.898-27.051,4.93-29.516,17.258l-46.742,196.82c-4.93,12.293,0,22.121,7.363,31.98
		c9.859,7.363,19.688,12.293,31.98,9.828l54.137-7.363l44.277,29.52c4.93,4.93,12.324,7.395,19.719,7.395
		c4.898,0,9.828,0,12.262-2.465c12.324-4.93,19.723-12.328,22.152-24.621l17.525-76.635l34.146,145.529
		c2.465,9.828,12.324,19.688,22.152,24.621c2.434,2.43,7.363,2.43,12.293,2.43s12.328-2.43,17.227-7.363l44.273-31.98l54.137,7.363
		c12.293,2.465,24.617-2.465,31.98-9.828c7.395-7.395,9.828-19.688,7.395-31.98L1630.877,1433.184z"/>
	<polygon fill="#010101" points="41.52,262.053 41.52,1467.629 1173.271,1467.629 1173.271,1418.395 90.725,1418.395 
		90.725,311.258 1911.354,311.258 1911.354,1418.395 1837.561,1418.395 1837.561,1467.629 1960.557,1467.629 1960.557,262.053 	"/>
	<rect x="336.752" y="581.902" fill="#010101" width="1328.574" height="49.207"/>
	<rect x="336.752" y="729.52" fill="#010101" width="1328.574" height="49.203"/>
	<rect x="336.752" y="877.137" fill="#010101" width="738.109" height="49.203"/>
</g>
</svg>
