<?xml version="1.0" encoding="utf-8"?>
<!-- Generator: Adobe Illustrator 16.0.0, SVG Export Plug-In . SVG Version: 6.00 Build 0)  -->
<!DOCTYPE svg PUBLIC "-//W3C//DTD SVG 1.1//EN" "http://www.w3.org/Graphics/SVG/1.1/DTD/svg11.dtd">
<svg version="1.1" id="Layer_1" xmlns="http://www.w3.org/2000/svg" xmlns:xlink="http://www.w3.org/1999/xlink" x="0px" y="0px"
	 width="2000px" height="2000px" viewBox="0 0 2000 2000" enable-background="new 0 0 2000 2000" xml:space="preserve">
<path fill="#010101" d="M775.576,401.336H491.479c-8.203,0-14.86-6.657-14.86-14.86c0-8.203,6.657-14.86,14.86-14.86h284.097
	c8.203,0,14.86,6.658,14.86,14.86C790.436,394.679,783.779,401.336,775.576,401.336z"/>
<path fill="#010101" d="M775.576,457.834H491.479c-8.203,0-14.86-6.657-14.86-14.86s6.657-14.86,14.86-14.86h284.097
	c8.203,0,14.86,6.658,14.86,14.86S783.779,457.834,775.576,457.834z"/>
<path fill="#010101" d="M775.576,276.927H491.479c-8.203,0-14.86-6.657-14.86-14.86c0-8.203,6.657-14.86,14.86-14.86h284.097
	c8.203,0,14.86,6.657,14.86,14.86C790.436,270.27,783.779,276.927,775.576,276.927z"/>
<path fill="#010101" d="M775.576,333.426H491.479c-8.203,0-14.86-6.657-14.86-14.86c0-8.203,6.657-14.86,14.86-14.86h284.097
	c8.203,0,14.86,6.658,14.86,14.86C790.436,326.769,783.779,333.426,775.576,333.426z"/>
<g>
	<path fill="#010101" d="M156.383,1125.77h284.095c8.203,0,14.86-6.657,14.86-14.86s-6.657-14.86-14.86-14.86H156.383
		c-8.203,0-14.86,6.657-14.86,14.86S148.18,1125.77,156.383,1125.77z"/>
	<path fill="#010101" d="M156.383,1182.208h284.095c8.203,0,14.86-6.657,14.86-14.86s-6.657-14.86-14.86-14.86H156.383
		c-8.203,0-14.86,6.657-14.86,14.86S148.18,1182.208,156.383,1182.208z"/>
</g>
<path fill="#010101" d="M1943.109,1675.655H1252.2v-470.502h690.909V1675.655z M1281.921,1645.936h631.469v-411.062h-631.469
	V1645.936z"/>
<path fill="#010101" d="M1510.945,1327.065h-176.419c-8.202,0-14.86-6.657-14.86-14.86c0-8.202,6.658-14.86,14.86-14.86h176.419
	c8.203,0,14.86,6.658,14.86,14.86C1525.806,1320.408,1519.18,1327.065,1510.945,1327.065z"/>
<path fill="#010101" d="M1510.945,1381.186h-176.419c-8.202,0-14.86-6.657-14.86-14.86c0-8.202,6.658-14.859,14.86-14.859h176.419
	c8.203,0,14.86,6.657,14.86,14.859C1525.806,1374.528,1519.18,1381.186,1510.945,1381.186z"/>
<path fill="#010101" d="M1872.941,1507.766h-284.129c-8.202,0-14.859-6.657-14.859-14.86c0-8.202,6.657-14.86,14.859-14.86h284.129
	c8.203,0,14.86,6.658,14.86,14.86C1887.802,1501.108,1881.145,1507.766,1872.941,1507.766z"/>
<path fill="#010101" d="M1872.941,1561.857h-284.129c-8.202,0-14.859-6.658-14.859-14.86c0-8.203,6.657-14.86,14.859-14.86h284.129
	c8.203,0,14.86,6.657,14.86,14.86C1887.802,1555.199,1881.145,1561.857,1872.941,1561.857z"/>
<path fill="#010101" d="M1872.941,1615.917h-284.129c-8.202,0-14.859-6.657-14.859-14.859c0-8.203,6.657-14.86,14.859-14.86h284.129
	c8.203,0,14.86,6.657,14.86,14.86C1887.802,1609.26,1881.145,1615.917,1872.941,1615.917z"/>
<polygon fill="#010101" points="1267.061,1552.762 88.53,1552.762 88.53,1028.852 1401.277,1028.852 1401.277,1219.982 
	1430.998,1219.982 1430.998,999.131 58.81,999.131 58.81,1582.482 1267.061,1582.482 "/>
<g>
	<polygon fill="#010101" points="387.577,141.194 1458.134,141.194 1458.134,352.536 1669.474,352.536 1669.474,1219.982 
		1699.194,1219.982 1699.194,338.775 1471.895,111.474 357.856,111.474 357.856,715.005 387.577,715.005 	"/>
</g>
<path fill="#010101" d="M211.631,700.145v313.847h29.721V729.865h1.694l651.857,268.82l2.823,1.188l654.68-269.979h1.694v490.119
	h29.721V700.145H211.631z M897.726,983.796L282.01,729.894h1231.431L897.726,983.796z"/>
<g>
	<polygon fill="#010101" points="1669.474,1660.795 1669.474,1860.277 387.577,1860.277 387.577,1567.622 357.856,1567.622 
		357.856,1889.998 1699.194,1889.998 1699.194,1660.795 	"/>
</g>
</svg>
