<?xml version="1.0" encoding="utf-8"?>
<!-- Generator: Adobe Illustrator 16.0.0, SVG Export Plug-In . SVG Version: 6.00 Build 0)  -->
<!DOCTYPE svg PUBLIC "-//W3C//DTD SVG 1.1//EN" "https://www.w3.org/Graphics/SVG/1.1/DTD/svg11.dtd">
<svg version="1.1" id="Layer_1" xmlns="https://www.w3.org/2000/svg" xmlns:xlink="https://www.w3.org/1999/xlink" x="0px" y="0px"
	 width="2000px" height="2000px" viewBox="0 0 2000 2000" enable-background="new 0 0 2000 2000" xml:space="preserve">
<path fill="#010101" d="M1922.945,1732.793l-585.066-585.09c75.988-113.266,116.816-246.479,116.816-385.928
	c0-185.578-72.264-360.039-203.504-491.266C1119.977,139.309,945.529,67.043,759.951,67.043
	c-185.566,0-360.039,72.266-491.266,203.467C137.482,401.736,65.219,576.197,65.219,761.775c0,185.58,72.264,360.016,203.49,491.254
	c131.227,131.215,305.676,203.479,491.266,203.479c141.027,0,275.607-41.766,389.688-119.404l584.523,584.475
	c19.725,19.748,56.018,15.434,81.018-9.566l98.225-98.201C1938.43,1788.785,1942.719,1752.518,1922.945,1732.793z M759.951,1268.316
	c-279.318,0-506.541-227.223-506.541-506.541c0-279.305,227.234-506.539,506.541-506.539c279.305,0,506.527,227.234,506.527,506.539
	C1266.479,1041.094,1039.256,1268.316,759.951,1268.316z"/>
</svg>
