<?xml version="1.0" encoding="utf-8"?>
<!-- Generator: Adobe Illustrator 21.1.0, SVG Export Plug-In . SVG Version: 6.00 Build 0)  -->
<svg version="1.1" id="Layer_1" xmlns="http://www.w3.org/2000/svg" xmlns:xlink="http://www.w3.org/1999/xlink" x="0px" y="0px"
	 viewBox="0 0 2000 2000" style="enable-background:new 0 0 2000 2000;" xml:space="preserve">
<g>
	<path d="M1509.7,1321.1c-0.8,0.1-1.6,0.3-2.4,0.6c-4.2,0.9-7.9,3.2-10.6,6.5l-120.6,138.4l-62.1-46.7c-8.5-6.2-20.4-4.4-26.6,4.1
		c-6.2,8.5-4.4,20.4,4.1,26.6l75.7,56.8c8,5.8,19,4.5,25.4-3l132.4-151.4c7.2-7.6,7-19.5-0.6-26.8
		C1520.5,1322.5,1515.1,1320.6,1509.7,1321.1z"/>
	<path d="M1416.3,1113.5c-167,0-302.7,135.8-302.7,302.7c0,12.9,1.4,25.4,3,37.8H375.6c-31.8,0-56.8-25-56.8-56.8V829.7h1135.3
		v189.2c-0.1,10.4,8.2,19,18.7,19.2c10.4,0.1,19-8.2,19.2-18.7c0-0.2,0-0.4,0-0.5V564.8c0-52.1-42.5-94.6-94.6-94.6h-94.6v-75.7
		c0-62.6-51-113.5-113.5-113.5c-62.6,0-113.5,51-113.5,113.5v75.7H697.3v-75.7c0-62.6-51-113.5-113.5-113.5s-113.5,51-113.5,113.5
		v75.7h-94.6c-52.1,0-94.6,42.5-94.6,94.6v832.5c0,52.1,42.5,94.6,94.6,94.6h748c33.8,130.3,151.9,227.1,292.7,227.1
		c167,0,302.7-135.8,302.7-302.7C1719,1249.3,1583.2,1113.5,1416.3,1113.5z M1113.5,394.5c0-42.3,33.4-75.7,75.7-75.7
		c42.3,0,75.7,33.4,75.7,75.7v151.4c0,42.3-33.4,75.7-75.7,75.7c-42.3,0-75.7-33.4-75.7-75.7V394.5z M508.1,394.5
		c0-42.3,33.4-75.7,75.7-75.7c42.3,0,75.7,33.4,75.7,75.7v151.4c0,42.3-33.4,75.7-75.7,75.7c-42.3,0-75.7-33.4-75.7-75.7V394.5z
		 M318.8,564.8c0-31.8,25-56.8,56.8-56.8h94.6v37.8c0,62.6,51,113.5,113.5,113.5s113.5-51,113.5-113.5v-37.8h378.4v37.8
		c0,62.6,51,113.5,113.5,113.5c62.6,0,113.5-51,113.5-113.5v-37.8h94.6c31.8,0,56.8,25,56.8,56.8v227.1H318.8V564.8z M1416.3,1681.2
		c-146.5,0-264.9-118.4-264.9-264.9s118.4-264.9,264.9-264.9s264.9,118.4,264.9,264.9S1562.8,1681.2,1416.3,1681.2z"/>
</g>
</svg>
