<?xml version="1.0" encoding="utf-8"?>
<!-- Generator: Adobe Illustrator 16.0.0, SVG Export Plug-In . SVG Version: 6.00 Build 0)  -->
<!DOCTYPE svg PUBLIC "-//W3C//DTD SVG 1.1//EN" "https://www.w3.org/Graphics/SVG/1.1/DTD/svg11.dtd">
<svg version="1.1" id="Layer_1" xmlns="https://www.w3.org/2000/svg" xmlns:xlink="https://www.w3.org/1999/xlink" x="0px" y="0px"
	 width="2000px" height="2000px" viewBox="0 0 2000 2000" enable-background="new 0 0 2000 2000" xml:space="preserve">
<path fill="#010101" d="M1000.84,347c-0.68,0-1.71-0.339-2.395-0.685c-5.468-4.101-15.385-10.938-26.666-18.801
	c-33.164-23.252-78.638-55.388-91.628-70.431c-16.749-19.488-24.956-40.346-24.956-63.593c0.34-25.643,9.232-47.526,26.326-65.645
	c17.434-17.439,38.977-26.668,63.593-26.668c20.513,0,39.316,11.969,55.386,24.959c16.069-12.991,34.533-24.959,55.391-24.959
	c24.271,0.343,45.809,9.232,63.248,26.668c17.434,18.119,26.325,40.001,26.666,65.3c-0.341,24.616-8.893,46.159-24.962,63.938
	c-15.385,16.41-59.489,47.521-91.627,70.431c-11.282,7.862-20.849,14.7-26.327,18.801C1002.554,346.66,1001.869,347,1000.84,347z
	 M946.823,112.12c-21.882,0.339-42.055,6.152-58.125,22.222c-15.725,16.412-22.222,37.268-22.222,60.174
	c0.34,20.855,7.522,39.318,22.567,57.095c11.966,14.021,57.78,46.157,87.865,67.357c9.572,6.837,18.124,12.648,23.932,17.091
	c5.474-4.101,13.681-9.914,23.592-16.752c29.404-20.855,73.51-52.309,88.209-67.696c14.354-15.724,21.883-34.873,22.562-57.095
	c-0.341-22.567-6.493-43.417-22.219-59.832c-16.068-16.069-36.241-22.225-58.128-22.225c-19.489,0-36.578,11.969-51.283,24.617
	c-1.364,1.024-3.414,1.024-4.783,0C983.401,124.085,966.312,112.12,946.823,112.12z"/>
<path fill="#010101" d="M1000.84,1897.821c-0.68,0-1.71-0.339-2.395-0.685c-5.468-4.098-15.385-10.936-26.666-18.803
	c-33.164-23.252-78.638-55.386-91.628-70.426c-16.749-19.493-24.956-40.346-24.956-63.599c0.34-25.641,9.232-47.522,26.326-65.641
	c17.434-17.439,38.977-26.666,63.593-26.666c20.513,0,39.316,11.965,55.386,24.956c16.069-12.991,34.533-24.956,55.391-24.956
	c24.271,0.339,45.809,9.227,63.248,26.666c17.434,18.118,26.325,40,26.666,65.302c-0.341,24.61-8.893,46.154-24.962,63.938
	c-15.385,16.404-59.489,47.518-91.627,70.426c-11.282,7.867-20.849,14.705-26.327,18.803
	C1002.554,1897.482,1001.869,1897.821,1000.84,1897.821z M946.823,1662.938c-21.882,0.341-42.055,6.158-58.125,22.222
	c-15.725,16.415-22.222,37.268-22.222,60.18c0.34,20.854,7.522,39.316,22.567,57.09c11.966,14.024,57.78,46.159,87.865,67.356
	c9.572,6.838,18.124,12.651,23.932,17.095c5.474-4.099,13.681-9.916,23.592-16.755c29.404-20.853,73.51-52.307,88.209-67.696
	c14.354-15.725,21.883-34.867,22.562-57.09c-0.341-22.571-6.493-43.42-22.219-59.834c-16.068-16.069-36.241-22.227-58.128-22.227
	c-19.489,0-36.578,11.971-51.283,24.621c-1.364,1.02-3.414,1.02-4.783,0C983.401,1674.904,966.312,1662.938,946.823,1662.938z"/>
<path fill="#010101" d="M1776.249,1122.407c-0.679,0-1.709-0.339-2.394-0.68c-5.469-4.1-15.384-10.937-26.666-18.804
	c-33.164-23.252-78.637-55.391-91.629-70.426c-16.748-19.493-24.956-40.348-24.956-63.6c0.341-25.641,9.232-47.523,26.326-65.642
	c17.435-17.439,38.977-26.666,63.593-26.666c20.514,0,39.317,11.966,55.386,24.957c16.07-12.991,34.533-24.957,55.392-24.957
	c24.271,0.34,45.809,9.227,63.246,26.666c17.436,18.119,26.327,40,26.666,65.302c-0.339,24.612-8.892,46.157-24.96,63.94
	c-15.385,16.404-59.489,47.514-91.628,70.426c-11.281,7.867-20.849,14.704-26.326,18.804
	C1777.964,1122.068,1777.278,1122.407,1776.249,1122.407z M1722.232,887.526c-21.881,0.34-42.055,6.158-58.124,22.223
	c-15.724,16.414-22.222,37.267-22.222,60.179c0.34,20.853,7.521,39.319,22.566,57.093c11.967,14.024,57.779,46.153,87.865,67.356
	c9.571,6.837,18.123,12.646,23.931,17.094c5.474-4.098,13.681-9.916,23.592-16.753c29.405-20.854,73.51-52.313,88.21-67.697
	c14.354-15.725,21.883-34.871,22.562-57.093c-0.34-22.572-6.492-43.42-22.216-59.834c-16.071-16.069-36.243-22.228-58.131-22.228
	c-19.487,0-36.576,11.971-51.282,24.621c-1.365,1.02-3.413,1.02-4.784,0C1758.811,899.492,1741.722,887.526,1722.232,887.526z"/>
<path fill="#010101" d="M225.43,1122.407c-0.68,0-1.709-0.339-2.394-0.68c-5.468-4.1-15.385-10.937-26.666-18.804
	c-33.164-23.252-78.638-55.391-91.628-70.426c-16.749-19.493-24.957-40.348-24.957-63.6c0.34-25.641,9.232-47.523,26.326-65.642
	c17.435-17.439,38.977-26.666,63.593-26.666c20.514,0,39.316,11.966,55.386,24.957c16.069-12.991,34.533-24.957,55.391-24.957
	c24.271,0.34,45.809,9.227,63.248,26.666c17.434,18.119,26.326,40,26.666,65.302c-0.34,24.612-8.892,46.157-24.961,63.94
	c-15.385,16.404-59.489,47.514-91.628,70.426c-11.281,7.867-20.848,14.704-26.326,18.804
	C227.145,1122.068,226.46,1122.407,225.43,1122.407z M171.414,887.526c-21.883,0.34-42.056,6.158-58.125,22.223
	c-15.725,16.414-22.222,37.267-22.222,60.179c0.34,20.853,7.522,39.319,22.567,57.093c11.965,14.024,57.78,46.153,87.865,67.356
	c9.571,6.837,18.123,12.646,23.931,17.094c5.473-4.098,13.68-9.916,23.592-16.753c29.405-20.854,73.509-52.313,88.209-67.697
	c14.355-15.725,21.883-34.871,22.562-57.093c-0.339-22.572-6.493-43.42-22.217-59.834c-16.07-16.069-36.242-22.228-58.13-22.228
	c-19.488,0-36.577,11.971-51.282,24.621c-1.365,1.02-3.414,1.02-4.784,0C207.992,899.492,190.902,887.526,171.414,887.526z"/>
<g>
	<g>
		<path fill="#010101" d="M1602.365,619.985c-16.964,0-39.026-0.34-48.188-2.714c-17.984-4.751-52.263-20.363-53.621-21.042
			c-1.695-0.675-3.054-2.714-3.054-4.749l-0.675-134.388c0-1.359,0.675-2.714,1.354-3.733c1.02-1.02,2.374-1.36,3.732-1.36h22.398
			c4.068-2.371,21.723-13.235,25.45-39.363c1.695-11.199,2.375-23.755,2.72-34.956c1.355-24.771,2.029-41.063,11.196-45.134
			c4.414-2.037,8.821-3.054,13.23-3.054c25.456,0,39.71,36.313,41.745,62.104c1.019,14.93-1.694,29.185-3.734,39.704
			c-1.015,4.414-2.033,9.842-1.693,12.558c6.446,1.694,29.186,2.034,42.075,2.375c10.187,0.34,17.988,0.34,21.722,0.68
			c8.147,1.02,32.579,4.071,32.579,25.111c-0.334,12.558-4.748,19.686-10.181,23.756c5.433,3.392,8.147,8.484,8.147,14.592
			c0,11.539-4.415,19.684-11.882,23.755c4.419,4.411,6.452,10.521,5.768,17.648c-0.674,9.842-7.467,15.609-14.93,19.003
			c3.395,3.394,5.768,8.145,5.094,14.59c-1.02,16.629-10.182,27.153-27.151,31.904
			C1658.021,618.627,1627.136,619.985,1602.365,619.985z M1507.684,588.086c8.822,4.071,34.953,15.609,49.212,19.343
			c6.104,1.695,22.737,2.375,45.47,2.375c27.824,0,55.316-1.357,59.729-2.375c8.481-2.379,18.664-7.127,19.683-22.739
			c0.681-8.484-9.84-10.182-11.201-10.182c-2.714-0.337-4.747-2.711-4.407-5.425c0.339-2.717,2.369-4.753,5.088-4.753
			c0.34,0,19.683-0.68,20.363-12.896c0.674-7.468-3.395-12.215-11.882-14.595c-2.714-0.335-4.747-1.018-4.747-1.018
			c-2.38-0.677-4.074-3.391-3.395-5.768c0.341-2.717,2.714-4.414,5.428-4.071c0.341,0,2.039,0.34,4.753,1.018
			c0.681,0,1.36,0,2.376,0c9.162,0,13.234-5.091,13.234-16.29c0-6.785-8.821-8.485-14.596-9.165c-2.708,0-4.413-0.339-4.747-0.339
			c-2.714-0.338-4.408-2.714-4.408-5.429c0-2.716,2.369-4.749,5.087-4.749h0.681c0.68,0,2.034,0,3.733,0
			c10.517-0.339,15.949-7.132,16.285-19.343c0-8.487-7.129-12.898-23.753-14.935c-3.059-0.34-11.54-0.68-20.702-0.68
			c-36.992-0.68-46.488-1.695-49.888-5.77c-3.39-4.071-2.034-10.177,0-21.38c2.039-9.836,4.414-23.414,3.399-36.987
			c-1.699-22.057-13.581-52.604-31.569-52.604c-2.715,0-5.769,0.682-8.816,2.037c-3.399,2.037-4.754,22.737-5.43,36.652
			c-0.685,11.199-1.358,24.097-2.718,35.973c-4.749,34.955-31.22,47.171-32.239,47.508c-0.68,0.34-1.354,0.682-2.038,0.682h-18.32
			L1507.684,588.086z"/>
	</g>
	<g>
		<path fill="#010101" d="M1482.566,611.5h-29.859c-2.72,0-4.749-2.037-5.093-4.412l-20.358-161.875
			c-0.339-1.357,0.34-3.054,1.36-4.074c1.015-1.015,2.373-1.694,3.729-1.694h50.222c2.72,0,5.093,2.376,5.093,5.088V606.41
			C1487.659,609.124,1485.286,611.5,1482.566,611.5z M1457.12,601.321h20.358V449.627h-39.361L1457.12,601.321z"/>
	</g>
</g>
<g>
	<g>
		<path fill="#010101" d="M459.108,619.985c-16.964,0-39.026-0.34-48.188-2.714c-17.984-4.751-52.262-20.363-53.621-21.042
			c-1.694-0.675-3.054-2.714-3.054-4.749l-0.674-134.388c0-1.359,0.674-2.714,1.354-3.733c1.02-1.02,2.375-1.36,3.734-1.36h22.397
			c4.068-2.371,21.722-13.235,25.451-39.363c1.694-11.199,2.374-23.755,2.719-34.956c1.354-24.771,2.029-41.063,11.196-45.134
			c4.414-2.037,8.822-3.054,13.231-3.054c25.456,0,39.711,36.313,41.745,62.104c1.02,14.93-1.695,29.185-3.733,39.704
			c-1.015,4.414-2.035,9.842-1.695,12.558c6.448,1.694,29.185,2.034,42.075,2.375c10.187,0.34,17.989,0.34,21.723,0.68
			c8.147,1.02,32.579,4.071,32.579,25.111c-0.334,12.558-4.748,19.686-10.182,23.756c5.434,3.392,8.147,8.484,8.147,14.592
			c0,11.539-4.414,19.684-11.881,23.755c4.418,4.411,6.453,10.521,5.768,17.648c-0.675,9.842-7.468,15.609-14.93,19.003
			c3.394,3.394,5.768,8.145,5.093,14.59c-1.02,16.629-10.182,27.153-27.151,31.904C514.764,618.627,483.88,619.985,459.108,619.985z
			 M364.426,588.086c8.822,4.071,34.953,15.609,49.213,19.343c6.104,1.695,22.738,2.375,45.469,2.375
			c27.826,0,55.316-1.357,59.729-2.375c8.482-2.379,18.664-7.127,19.683-22.739c0.68-8.484-9.842-10.182-11.201-10.182
			c-2.714-0.337-4.749-2.711-4.408-5.425c0.34-2.717,2.369-4.753,5.088-4.753c0.339,0,19.683-0.68,20.363-12.896
			c0.675-7.468-3.394-12.215-11.881-14.595c-2.714-0.335-4.748-1.018-4.748-1.018c-2.379-0.677-4.074-3.391-3.394-5.768
			c0.34-2.717,2.714-4.414,5.428-4.071c0.34,0,2.039,0.34,4.753,1.018c0.68,0,1.359,0,2.374,0c9.162,0,13.235-5.091,13.235-16.29
			c0-6.785-8.822-8.485-14.595-9.165c-2.709,0-4.414-0.339-4.749-0.339c-2.714-0.338-4.408-2.714-4.408-5.429
			c0-2.716,2.369-4.749,5.088-4.749h0.68c0.68,0,2.035,0,3.734,0c10.517-0.339,15.95-7.132,16.284-19.343
			c0-8.487-7.127-12.898-23.751-14.935c-3.059-0.34-11.541-0.68-20.703-0.68c-36.992-0.68-46.489-1.695-49.888-5.77
			c-3.389-4.071-2.034-10.177,0-21.38c2.04-9.836,4.414-23.414,3.399-36.987c-1.7-22.057-13.581-52.604-31.569-52.604
			c-2.714,0-5.768,0.682-8.817,2.037c-3.399,2.037-4.753,22.737-5.428,36.652c-0.685,11.199-1.359,24.097-2.719,35.973
			c-4.748,34.955-31.219,47.171-32.239,47.508c-0.68,0.34-1.355,0.682-2.04,0.682h-18.318L364.426,588.086z"/>
	</g>
	<g>
		<path fill="#010101" d="M339.311,611.5h-29.86c-2.719,0-4.748-2.037-5.093-4.412L284,445.213c-0.34-1.357,0.34-3.054,1.36-4.074
			c1.015-1.015,2.374-1.694,3.729-1.694h50.223c2.719,0,5.093,2.376,5.093,5.088V606.41
			C344.404,609.124,342.029,611.5,339.311,611.5z M313.864,601.321h20.358V449.627h-39.361L313.864,601.321z"/>
	</g>
</g>
<g>
	<g>
		<path fill="#010101" d="M1602.365,1575.429c-16.964,0-39.026-0.339-48.188-2.714c-17.984-4.753-52.263-20.363-53.621-21.042
			c-1.695-0.676-3.054-2.715-3.054-4.748l-0.675-134.39c0-1.358,0.675-2.714,1.354-3.732c1.02-1.021,2.374-1.36,3.732-1.36h22.398
			c4.068-2.374,21.723-13.234,25.45-39.361c1.695-11.201,2.375-23.757,2.72-34.958c1.355-24.771,2.029-41.065,11.196-45.134
			c4.414-2.039,8.821-3.054,13.23-3.054c25.456,0,39.71,36.312,41.745,62.104c1.019,14.93-1.694,29.186-3.734,39.706
			c-1.015,4.408-2.033,9.836-1.693,12.556c6.446,1.694,29.186,2.033,42.075,2.373c10.187,0.341,17.988,0.341,21.722,0.681
			c8.147,1.019,32.579,4.073,32.579,25.111c-0.334,12.562-4.748,19.688-10.181,23.756c5.433,3.39,8.147,8.487,8.147,14.596
			c0,11.536-4.415,19.684-11.882,23.752c4.419,4.407,6.452,10.521,5.768,17.648c-0.674,9.842-7.467,15.609-14.93,19.004
			c3.395,3.394,5.768,8.142,5.094,14.589c-1.02,16.63-10.182,27.151-27.151,31.904
			C1658.021,1574.069,1627.136,1575.429,1602.365,1575.429z M1507.684,1543.53c8.822,4.068,34.953,15.61,49.212,19.343
			c6.104,1.694,22.737,2.375,45.47,2.375c27.824,0,55.316-1.354,59.729-2.375c8.481-2.379,18.664-7.127,19.683-22.741
			c0.681-8.483-9.84-10.177-11.201-10.177c-2.714-0.34-4.747-2.715-4.407-5.429c0.339-2.719,2.369-4.753,5.088-4.753
			c0.34,0,19.683-0.68,20.363-12.896c0.674-7.468-3.395-12.216-11.882-14.595c-2.714-0.336-4.747-1.015-4.747-1.015
			c-2.38-0.68-4.074-3.394-3.395-5.768c0.341-2.719,2.714-4.418,5.428-4.074c0.341,0,2.039,0.341,4.753,1.015
			c0.681,0,1.36,0,2.376,0c9.162,0,13.234-5.088,13.234-16.284c0-6.788-8.821-8.487-14.596-9.167c-2.708,0-4.413-0.339-4.747-0.339
			c-2.714-0.341-4.408-2.715-4.408-5.43c0-2.718,2.369-4.748,5.087-4.748h0.681c0.68,0,2.034,0,3.733,0
			c10.517-0.339,15.949-7.132,16.285-19.343c0-8.487-7.129-12.896-23.753-14.935c-3.059-0.339-11.54-0.68-20.702-0.68
			c-36.992-0.681-46.488-1.695-49.888-5.768c-3.39-4.075-2.034-10.178,0-21.384c2.039-9.836,4.414-23.41,3.399-36.987
			c-1.699-22.056-13.581-52.602-31.569-52.602c-2.715,0-5.769,0.681-8.816,2.035c-3.399,2.033-4.754,22.736-5.43,36.651
			c-0.685,11.197-1.358,24.098-2.718,35.973c-4.749,34.952-31.22,47.168-32.239,47.509c-0.68,0.34-1.354,0.681-2.038,0.681h-18.32
			L1507.684,1543.53z"/>
	</g>
	<g>
		<path fill="#010101" d="M1482.566,1566.942h-29.859c-2.72,0-4.749-2.034-5.093-4.409l-20.358-161.873
			c-0.339-1.359,0.34-3.059,1.36-4.079c1.015-1.01,2.373-1.688,3.729-1.688h50.222c2.72,0,5.093,2.373,5.093,5.088v161.873
			C1487.659,1564.567,1485.286,1566.942,1482.566,1566.942z M1457.12,1556.765h20.358v-151.696h-39.361L1457.12,1556.765z"/>
	</g>
</g>
<g>
	<g>
		<path fill="#010101" d="M459.108,1575.429c-16.964,0-39.026-0.339-48.188-2.714c-17.984-4.753-52.262-20.363-53.621-21.042
			c-1.694-0.676-3.054-2.715-3.054-4.748l-0.674-134.39c0-1.358,0.674-2.714,1.354-3.732c1.02-1.021,2.375-1.36,3.734-1.36h22.397
			c4.068-2.374,21.722-13.234,25.451-39.361c1.694-11.201,2.374-23.757,2.719-34.958c1.354-24.771,2.029-41.065,11.196-45.134
			c4.414-2.039,8.822-3.054,13.231-3.054c25.456,0,39.711,36.312,41.745,62.104c1.02,14.93-1.695,29.186-3.733,39.706
			c-1.015,4.408-2.035,9.836-1.695,12.556c6.448,1.694,29.185,2.033,42.075,2.373c10.187,0.341,17.989,0.341,21.723,0.681
			c8.147,1.019,32.579,4.073,32.579,25.111c-0.334,12.562-4.748,19.688-10.182,23.756c5.434,3.39,8.147,8.487,8.147,14.596
			c0,11.536-4.414,19.684-11.881,23.752c4.418,4.407,6.453,10.521,5.768,17.648c-0.675,9.842-7.468,15.609-14.93,19.004
			c3.394,3.394,5.768,8.142,5.093,14.589c-1.02,16.63-10.182,27.151-27.151,31.904
			C514.764,1574.069,483.88,1575.429,459.108,1575.429z M364.426,1543.53c8.822,4.068,34.953,15.61,49.213,19.343
			c6.104,1.694,22.738,2.375,45.469,2.375c27.826,0,55.316-1.354,59.729-2.375c8.482-2.379,18.664-7.127,19.683-22.741
			c0.68-8.483-9.842-10.177-11.201-10.177c-2.714-0.34-4.749-2.715-4.408-5.429c0.34-2.719,2.369-4.753,5.088-4.753
			c0.339,0,19.683-0.68,20.363-12.896c0.675-7.468-3.394-12.216-11.881-14.595c-2.714-0.336-4.748-1.015-4.748-1.015
			c-2.379-0.68-4.074-3.394-3.394-5.768c0.34-2.719,2.714-4.418,5.428-4.074c0.34,0,2.039,0.341,4.753,1.015c0.68,0,1.359,0,2.374,0
			c9.162,0,13.235-5.088,13.235-16.284c0-6.788-8.822-8.487-14.595-9.167c-2.709,0-4.414-0.339-4.749-0.339
			c-2.714-0.341-4.408-2.715-4.408-5.43c0-2.718,2.369-4.748,5.088-4.748h0.68c0.68,0,2.035,0,3.734,0
			c10.517-0.339,15.95-7.132,16.284-19.343c0-8.487-7.127-12.896-23.751-14.935c-3.059-0.339-11.541-0.68-20.703-0.68
			c-36.992-0.681-46.489-1.695-49.888-5.768c-3.389-4.075-2.034-10.178,0-21.384c2.04-9.836,4.414-23.41,3.399-36.987
			c-1.7-22.056-13.581-52.602-31.569-52.602c-2.714,0-5.768,0.681-8.817,2.035c-3.399,2.033-4.753,22.736-5.428,36.651
			c-0.685,11.197-1.359,24.098-2.719,35.973c-4.748,34.952-31.219,47.168-32.239,47.509c-0.68,0.34-1.355,0.681-2.04,0.681h-18.318
			L364.426,1543.53z"/>
	</g>
	<g>
		<path fill="#010101" d="M339.311,1566.942h-29.86c-2.719,0-4.748-2.034-5.093-4.409L284,1400.66
			c-0.34-1.359,0.34-3.059,1.36-4.079c1.015-1.01,2.374-1.688,3.729-1.688h50.223c2.719,0,5.093,2.373,5.093,5.088v161.873
			C344.404,1564.567,342.029,1566.942,339.311,1566.942z M313.864,1556.765h20.358v-151.696h-39.361L313.864,1556.765z"/>
	</g>
</g>
<g transform="translate(0,-952.36216)">
	<path fill="#010101" d="M1046.754,1707.854c-84.716,0-156.386,56.353-179.588,133.571h-82.421
		c-15.515,0-28.255,12.733-28.255,28.257v287.693c0,15.519,12.741,28.259,28.255,28.259h164.402c15.52,0,28.25-12.74,28.25-28.259
		v-87.83c21.468,8.573,44.849,13.341,69.356,13.341c103.474,0,187.519-84.046,187.519-187.518
		C1234.272,1791.898,1150.228,1707.854,1046.754,1707.854z M1046.754,1723.267c95.146,0,172.105,76.96,172.105,172.102
		c0,95.141-76.959,172.103-172.105,172.103c-95.142,0-172.1-76.962-172.1-172.103
		C874.654,1800.227,951.612,1723.267,1046.754,1723.267z M1008.117,1792.6c-4.258,0.06-7.657,3.561-7.598,7.817l0,0v7.705h-43.665
		c-18.374,0-33.398,15.027-33.398,33.393v123.297c0,18.369,15.024,33.398,33.398,33.398h179.807
		c18.368,0,33.393-15.029,33.393-33.398v-123.297c0-18.366-15.024-33.393-33.393-33.393h-43.669v-7.705
		c0.06-4.256-3.34-7.757-7.593-7.817c-0.08,0-0.149,0-0.225,0c-4.259,0.06-7.657,3.561-7.593,7.817v7.705h-61.648v-7.705
		c0.06-4.256-3.344-7.757-7.598-7.817C1008.263,1792.6,1008.187,1792.6,1008.117,1792.6L1008.117,1792.6z M956.855,1823.535h43.665
		v7.707c-0.06,4.253,3.344,7.755,7.598,7.814c4.258,0.061,7.752-3.344,7.817-7.597c0-0.075,0-0.146,0-0.218v-7.707h61.648v7.707
		c-0.061,4.253,3.334,7.755,7.593,7.814c4.253,0.061,7.758-3.344,7.817-7.597c0-0.075,0-0.146,0-0.218v-7.707h43.669
		c10.097,0,17.979,7.89,17.979,17.981v17.979H938.871v-17.979C938.871,1831.424,946.759,1823.535,956.855,1823.535z
		 M784.745,1856.838h78.493c-1.79,8.555-2.974,17.324-3.554,26.258c-0.959-0.39-1.979-0.582-3.014-0.572h-30.819
		c-4.259-0.06-7.758,3.341-7.817,7.598c-0.06,4.255,3.338,7.757,7.597,7.817c0.065,0,0.145,0,0.22,0h30.819
		c0.895,0.008,1.779-0.142,2.619-0.432c0.81,72.059,42.37,134.387,102.704,165.067v94.803c0,7.247-5.598,12.84-12.846,12.84H784.745
		c-7.242,0-12.84-5.593-12.84-12.84v-287.693C771.905,1862.431,777.503,1856.838,784.745,1856.838z M938.871,1874.909h215.771
		v89.904c0,10.102-7.883,17.983-17.979,17.983H956.855c-10.096,0-17.984-7.882-17.984-17.983V1874.909z M979.967,1898.028
		c-4.253-0.06-7.752,3.339-7.817,7.595c-0.055,4.255,3.349,7.757,7.603,7.817c0.075,0,0.145,0,0.215,0h133.574
		c4.258,0.06,7.757-3.344,7.817-7.598c0.06-4.253-3.345-7.757-7.598-7.815c-0.07,0-0.146,0-0.22,0H979.967z M979.967,1936.557
		c-4.253-0.06-7.752,3.344-7.817,7.6c-0.055,4.256,3.349,7.752,7.603,7.812c0.075,0.005,0.145,0.005,0.215,0h133.574
		c4.258,0.065,7.757-3.341,7.817-7.598c0.06-4.255-3.345-7.754-7.598-7.814c-0.07,0-0.146,0-0.22,0H979.967z M866.946,2123.981
		c-7.092,0-12.846,5.749-12.846,12.847c0,7.093,5.753,12.845,12.846,12.845c7.093,0,12.846-5.752,12.846-12.845
		C879.792,2129.73,874.039,2123.981,866.946,2123.981z"/>
</g>
</svg>
