<?xml version="1.0" encoding="utf-8"?>
<!-- Generator: Adobe Illustrator 16.0.0, SVG Export Plug-In . SVG Version: 6.00 Build 0)  -->
<!DOCTYPE svg PUBLIC "-//W3C//DTD SVG 1.1//EN" "https://www.w3.org/Graphics/SVG/1.1/DTD/svg11.dtd">
<svg version="1.1" id="Layer_1" xmlns="https://www.w3.org/2000/svg" xmlns:xlink="https://www.w3.org/1999/xlink" x="0px" y="0px"
	 width="2000px" height="2000px" viewBox="0 0 2000 2000" enable-background="new 0 0 2000 2000" xml:space="preserve">
<g>
	<path d="M208.848,686.773C331.37,535.86,468.021,426.075,618.867,357.484l48.292,102.82
		c-118.741,68.723-220.035,154.097-303.949,256.254c-83.915,102.157-125.839,205.64-125.839,310.385
		c0,20.629,6.302,36.086,19.038,46.367c12.736,10.282,29.254,15.391,49.619,15.391c110.183-11.94,169.554-17.977,178.044-17.977
		c55.921,0,116.552,20.563,181.827,61.691c65.274,41.128,97.911,111.376,97.911,210.748c0,83.98-27.397,155.092-82.124,213.335
		c-54.727,58.242-132.539,87.363-233.368,87.363c-118.011,0-218.045-45.837-300.103-137.646
		c-82.123-91.741-123.118-207.962-123.118-348.594C25.099,994.703,86.326,837.752,208.848,686.773z M1417.146,680.405
		c124.247-148.326,260.035-255.989,407.434-322.921l48.291,102.82c-118.74,68.723-220.035,153.301-303.948,253.733
		c-83.916,100.432-125.839,203.053-125.839,307.73c0,18.905,5.042,34.76,15.257,47.628c10.15,12.869,27.927,19.305,53.4,19.305
		c108.524-11.94,167.829-17.977,178.044-17.977c62.688,0,124.977,22.753,186.868,68.126c61.89,45.374,92.869,112.638,92.869,201.727
		c0,70.315-24.411,138.441-73.102,204.38c-48.758,65.938-130.415,98.905-244.978,98.905c-123.118,0-224.015-47.562-302.689-142.753
		c-78.673-95.192-117.943-202.854-117.943-322.921C1230.811,994.703,1292.9,828.731,1417.146,680.405z"/>
</g>
</svg>
