<?xml version="1.0" encoding="utf-8"?>
<!-- Generator: Adobe Illustrator 16.0.0, SVG Export Plug-In . SVG Version: 6.00 Build 0)  -->
<!DOCTYPE svg PUBLIC "-//W3C//DTD SVG 1.1//EN" "https://www.w3.org/Graphics/SVG/1.1/DTD/svg11.dtd">
<svg version="1.1" id="Layer_1" xmlns="https://www.w3.org/2000/svg" xmlns:xlink="https://www.w3.org/1999/xlink" x="0px" y="0px"
	 width="2000px" height="2000px" viewBox="0 0 2000 2000" enable-background="new 0 0 2000 2000" xml:space="preserve">
<g>
	<path d="M578.889,1321.607c-124.88,144.938-258.675,249.627-401.319,314L132.141,1534
		c119.504-76.305,220.063-160.738,301.744-253.234c81.679-92.43,122.519-192.137,122.519-299.055
		c0-18.683-4.654-34.809-13.897-48.378c-9.309-13.57-26.549-20.387-51.787-20.387c-101.018,11.93-159.95,17.831-176.732,17.831
		c-55.589,0-108.622-15.208-159.098-45.691C75.7,835.985,36.17,759.812,36.17,656.5c0-71.125,25.435-137.597,76.304-199.414
		c50.87-61.751,129.73-92.693,236.583-92.693c122.06,0,222.095,46.608,300.104,139.826
		c78.009,93.217,117.013,200.004,117.013,320.36C766.175,1011.014,703.703,1176.732,578.889,1321.607z M1775.636,1312.691
		c-121.405,149.199-255.923,256.838-403.548,322.916L1323.971,1534c178.961-103.443,303.973-224.783,374.901-363.953
		c35.464-71.258,53.229-136.614,53.229-196.005c0-18.618-6.359-33.499-19.011-44.512c-12.718-11.013-30.023-16.584-51.918-16.584
		c-99.642,11.93-157.066,17.831-172.275,17.831c-67.586,0-131.37-22.813-191.285-68.569c-59.981-45.69-89.939-112.556-89.939-200.66
		c0-84.629,27.073-155.296,81.353-212.065c54.278-56.704,131.434-85.088,231.534-85.088c116.948,0,215.737,45.363,296.303,136.023
		c80.499,90.727,120.814,205.511,120.814,344.484C1957.677,1007.604,1896.975,1163.557,1775.636,1312.691z"/>
</g>
</svg>
