<?xml version="1.0" encoding="utf-8"?>
<!-- Generator: Adobe Illustrator 16.0.0, SVG Export Plug-In . SVG Version: 6.00 Build 0)  -->
<!DOCTYPE svg PUBLIC "-//W3C//DTD SVG 1.1//EN" "https://www.w3.org/Graphics/SVG/1.1/DTD/svg11.dtd">
<svg version="1.1" id="Layer_1" xmlns="https://www.w3.org/2000/svg" xmlns:xlink="https://www.w3.org/1999/xlink" x="0px" y="0px"
	 width="2000px" height="2000px" viewBox="0 0 2000 2000" enable-background="new 0 0 2000 2000" xml:space="preserve">
<g>
	<path fill="#010101" d="M373.735,1587.219c-107.911,0-195.708,87.794-195.708,195.708c0,107.908,87.797,195.708,195.708,195.708
		c107.913,0,195.708-87.8,195.708-195.708C569.443,1675.013,481.649,1587.219,373.735,1587.219z M373.735,1900.351
		c-64.743,0-117.424-52.681-117.424-117.424c0-64.749,52.681-117.429,117.424-117.429c64.746,0,117.427,52.68,117.427,117.429
		C491.162,1847.67,438.481,1900.351,373.735,1900.351z"/>
	<path fill="#010101" d="M1626.266,21.553c-107.914,0-195.707,87.795-195.707,195.708c0,107.914,87.793,195.708,195.707,195.708
		s195.707-87.795,195.707-195.708C1821.973,109.348,1734.18,21.553,1626.266,21.553z M1626.266,334.686
		c-64.744,0-117.424-52.679-117.424-117.425c0-64.745,52.68-117.424,117.424-117.424s117.424,52.679,117.424,117.424
		C1743.689,282.007,1691.01,334.686,1626.266,334.686z"/>
	<path fill="#010101" d="M1000.001,804.386c-107.914,0-195.708,87.794-195.708,195.708s87.794,195.709,195.708,195.709
		c107.915,0,195.709-87.795,195.709-195.709S1107.916,804.386,1000.001,804.386z M1000.001,1117.52
		c-64.746,0-117.424-52.682-117.424-117.426c0-64.746,52.678-117.427,117.424-117.427c64.745,0,117.424,52.681,117.424,117.427
		C1117.426,1064.838,1064.746,1117.52,1000.001,1117.52z"/>
	<rect x="334.595" y="60.695" fill="#010101" width="78.282" height="1409.095"/>
	<rect x="960.859" y="60.695" fill="#010101" width="78.284" height="626.265"/>
	<rect x="960.859" y="1313.227" fill="#010101" width="78.284" height="626.265"/>
	<rect x="1587.127" y="530.394" fill="#010101" width="78.283" height="1409.098"/>
</g>
</svg>
