<?xml version="1.0" encoding="utf-8"?>
<!-- Generator: Adobe Illustrator 16.0.0, SVG Export Plug-In . SVG Version: 6.00 Build 0)  -->
<!DOCTYPE svg PUBLIC "-//W3C//DTD SVG 1.1//EN" "https://www.w3.org/Graphics/SVG/1.1/DTD/svg11.dtd">
<svg version="1.1" id="Layer_1" xmlns="https://www.w3.org/2000/svg" xmlns:xlink="https://www.w3.org/1999/xlink" x="0px" y="0px"
	 width="2000px" height="2000px" viewBox="0 0 2000 2000" enable-background="new 0 0 2000 2000" xml:space="preserve">
<g>
	<path fill="#010101" d="M1967.767,873.125v-0.022c0-0.052-0.008-0.103-0.008-0.154c0-0.071-0.008-0.142-0.012-0.213
		c-0.004-0.344-0.022-0.688-0.046-1.031c-0.019-0.342-0.022-0.682-0.057-1.024c-0.016-0.13-0.038-0.257-0.054-0.388
		c-0.034-0.292-0.084-0.582-0.126-0.873c-0.057-0.37-0.103-0.74-0.176-1.108c-0.026-0.139-0.061-0.274-0.091-0.411
		c-0.062-0.272-0.138-0.539-0.206-0.809c-0.092-0.364-0.172-0.729-0.283-1.091c-0.042-0.133-0.088-0.265-0.13-0.398
		c-0.095-0.3-0.213-0.59-0.324-0.886c-0.114-0.32-0.217-0.641-0.351-0.957c-0.046-0.116-0.096-0.232-0.149-0.347
		c-0.152-0.36-0.336-0.708-0.507-1.061c-0.016-0.026-0.027-0.051-0.038-0.077c-0.115-0.226-0.21-0.457-0.329-0.68
		c-0.049-0.092-0.099-0.182-0.148-0.273c-0.222-0.4-0.474-0.787-0.718-1.177c-0.091-0.146-0.172-0.297-0.267-0.44
		c-0.038-0.062-0.069-0.127-0.111-0.188c-0.003-0.004-0.007-0.008-0.011-0.013c-0.038-0.058-0.08-0.114-0.122-0.173
		c-0.264-0.389-0.562-0.763-0.852-1.139c-0.164-0.211-0.309-0.434-0.48-0.64c-0.046-0.054-0.092-0.104-0.138-0.159
		c-0.271-0.317-0.561-0.619-0.848-0.925c-0.202-0.218-0.393-0.449-0.606-0.66c-0.088-0.088-0.18-0.173-0.271-0.261
		c-0.202-0.198-0.428-0.381-0.642-0.573c-0.106-0.098-0.218-0.198-0.328-0.295c-0.172-0.15-0.336-0.311-0.512-0.456
		c-0.133-0.111-0.271-0.215-0.408-0.322c-0.042-0.033-0.08-0.07-0.122-0.104l-281.384-217.975V57.903
		c0-13.489-10.934-24.425-24.425-24.425H349.81c-13.489,0-24.425,10.936-24.425,24.425V635.82L44.002,853.794
		c-0.04,0.03-0.075,0.066-0.114,0.097c-0.139,0.11-0.281,0.215-0.418,0.329c-0.171,0.14-0.326,0.296-0.493,0.441
		c-0.126,0.108-0.25,0.221-0.374,0.334c-0.201,0.181-0.413,0.354-0.608,0.542c-0.092,0.09-0.187,0.178-0.279,0.269
		c-0.215,0.214-0.407,0.449-0.614,0.67c-0.28,0.302-0.568,0.597-0.832,0.909c-0.047,0.057-0.098,0.108-0.144,0.164
		c-0.172,0.208-0.322,0.435-0.488,0.649c-0.287,0.372-0.579,0.741-0.843,1.127c-0.041,0.059-0.083,0.116-0.124,0.175
		c-0.002,0.005-0.005,0.009-0.008,0.013c-0.041,0.061-0.072,0.126-0.113,0.188c-0.095,0.145-0.178,0.298-0.271,0.446
		c-0.243,0.388-0.492,0.773-0.712,1.172c-0.05,0.091-0.1,0.181-0.149,0.272c-0.119,0.223-0.216,0.454-0.327,0.68
		c-0.013,0.025-0.024,0.048-0.036,0.073c-0.173,0.354-0.357,0.704-0.514,1.066c-0.049,0.115-0.099,0.23-0.148,0.346
		c-0.129,0.313-0.231,0.632-0.347,0.948c-0.11,0.3-0.231,0.595-0.328,0.898c-0.042,0.133-0.087,0.263-0.127,0.396
		c-0.11,0.359-0.189,0.721-0.281,1.082c-0.069,0.273-0.148,0.542-0.207,0.817c-0.031,0.138-0.065,0.273-0.093,0.412
		c-0.073,0.364-0.117,0.73-0.173,1.096c-0.045,0.296-0.095,0.59-0.129,0.888c-0.016,0.13-0.038,0.257-0.052,0.387
		c-0.033,0.336-0.039,0.671-0.058,1.007c-0.021,0.351-0.041,0.701-0.047,1.053c-0.001,0.055-0.007,0.111-0.007,0.167
		c0,0.065-0.01,0.128-0.01,0.192v0.028c0,0.032,0,0.063,0,0.095v1069.056c0,13.491,10.936,24.425,24.425,24.425h1884.383
		c13.487,0,24.425-10.934,24.425-24.425V873.229C1967.767,873.195,1967.767,873.16,1967.767,873.125z M1901.594,871.66
		l-224.68,150.437V697.613L1901.594,871.66z M1628.064,82.328v972.479l-626.914,419.759l-626.916-419.759V82.328H1628.064z
		 M325.384,1022.097L100.705,871.66l224.679-174.048V1022.097z M83.384,1917.856V918.852L329.99,1083.97
		c3.385,4.704,8.394,8.146,14.213,9.517l643.357,430.769c4.111,2.756,8.851,4.13,13.59,4.13c4.736,0,9.477-1.374,13.591-4.13
		l643.358-430.769c5.816-1.37,10.823-4.812,14.208-9.515l246.608-165.12v999.004H83.384z"/>
	<path fill="#010101" d="M972.476,1004.189c77.831,0,147.473-12.29,213.016-49.158l-24.578-53.254
		c-49.159,24.58-110.606,40.965-180.246,40.965c-176.148,0-307.236-122.894-307.236-323.622
		c0-241.693,167.957-397.359,364.586-397.359c184.344,0,290.852,122.894,290.852,294.946c0,139.28-69.642,221.209-131.09,221.209
		c-40.965,0-53.254-45.061-36.866-135.184l40.966-217.114c-28.677-12.289-73.737-24.579-126.991-24.579
		c-167.957,0-286.754,139.281-286.754,286.753c0,94.219,61.446,151.571,131.086,151.571c69.642,0,126.992-36.869,167.958-106.509
		h4.095c-4.095,73.738,40.965,106.509,90.124,106.509c110.604,0,213.017-106.509,213.017-286.754
		c0-200.727-139.279-348.201-348.201-348.201c-266.271,0-438.323,213.017-438.323,462.902
		C607.888,860.812,775.843,1004.189,972.476,1004.189z M1091.271,569.963c-12.289,73.737-77.832,163.859-147.473,163.859
		c-53.254,0-77.832-36.869-77.832-90.123c0-118.798,86.026-217.114,192.533-217.114c28.677,0,49.159,4.096,61.448,8.193
		L1091.271,569.963z"/>
</g>
</svg>
