<?xml version="1.0" encoding="utf-8"?>
<!-- Generator: Adobe Illustrator 16.0.0, SVG Export Plug-In . SVG Version: 6.00 Build 0)  -->
<!DOCTYPE svg PUBLIC "-//W3C//DTD SVG 1.1//EN" "https://www.w3.org/Graphics/SVG/1.1/DTD/svg11.dtd">
<svg version="1.1" id="Layer_1" xmlns="https://www.w3.org/2000/svg" xmlns:xlink="https://www.w3.org/1999/xlink" x="0px" y="0px"
	 width="2000px" height="2000px" viewBox="0 0 2000 2000" enable-background="new 0 0 2000 2000" xml:space="preserve">
<g>
	<g>
		<path fill="#010101" d="M1876.048,1756.396H125.953c-49.062,0-88.988-39.926-88.988-88.987V332.591
			c0-49.062,39.926-88.988,88.988-88.988h1750.095c49.062,0,88.987,39.926,88.987,88.988v1334.818
			C1965.035,1716.471,1925.109,1756.396,1876.048,1756.396z M125.953,302.928c-16.343,0-29.663,13.319-29.663,29.663v1334.818
			c0,16.343,13.319,29.662,29.663,29.662h1750.095c16.373,0,29.662-13.319,29.662-29.662V332.591
			c0-16.344-13.289-29.663-29.662-29.663H125.953z"/>
	</g>
	<g>
		<rect x="96.29" y="480.904" fill="#010101" width="1839.083" height="59.325"/>
	</g>
	<g>
		<rect x="155.615" y="362.253" fill="#010101" width="59.325" height="59.326"/>
	</g>
	<g>
		<rect x="274.266" y="362.253" fill="#010101" width="59.325" height="59.326"/>
	</g>
	<g>
		<rect x="392.917" y="362.253" fill="#010101" width="59.325" height="59.326"/>
	</g>
</g>
<g>
	<g>
		<polygon fill="#010101" points="727.897,1391.754 469.624,1133.481 727.897,875.21 769.839,917.152 553.51,1133.481 
			769.839,1349.812 		"/>
	</g>
	<g>
		<polygon fill="#010101" points="1214.778,1391.754 1172.836,1349.812 1389.165,1133.481 1172.836,917.152 1214.778,875.21 
			1473.052,1133.481 		"/>
	</g>
	<g>
		
			<rect x="941.602" y="790.335" transform="matrix(-0.9486 -0.3164 0.3164 -0.9486 1538.6719 2487.1128)" fill="#010101" width="59.322" height="656.595"/>
	</g>
</g>
</svg>
