<?xml version="1.0" encoding="utf-8"?>
<!-- Generator: Adobe Illustrator 16.0.0, SVG Export Plug-In . SVG Version: 6.00 Build 0)  -->
<!DOCTYPE svg PUBLIC "-//W3C//DTD SVG 1.1//EN" "http://www.w3.org/Graphics/SVG/1.1/DTD/svg11.dtd">
<svg version="1.1" id="Layer_1" xmlns="http://www.w3.org/2000/svg" xmlns:xlink="http://www.w3.org/1999/xlink" x="0px" y="0px"
	 width="2000px" height="2000px" viewBox="0 0 2000 2000" enable-background="new 0 0 2000 2000" xml:space="preserve">
<path fill="#010101" d="M1533.975,110.957c-8.29,7.071-16.271,14.763-23.938,23.097L307.094,1390.969L55.777,1950.235
	l606.392-202.729l1214.29-1272.298c44.62-51.003,69.557-118.521,65.278-185.949c-4.277-67.517-34.579-129.116-85.316-173.448
	c-50.782-44.376-115.905-66.231-183.334-61.399C1619.424,58.224,1573.164,77.553,1533.975,110.957 M1677.764,119.956
	c49.675-3.458,97.93,12.568,135.435,45.329c37.438,32.739,59.803,78.224,62.972,128.119c2.839,44.841-10.262,88.331-36.883,124.173
	L1579.26,156.44C1607.809,135.294,1641.634,122.505,1677.764,119.956z M182.965,1836.745l176.839-392.866l248.236,249.255
	L182.965,1836.745z M661.239,1652.325l-261.226-262.288l1133.983-1184.81l261.513,262.621L661.239,1652.325z"/>
</svg>
