<?xml version="1.0" encoding="utf-8"?>
<!-- Generator: Adobe Illustrator 16.0.0, SVG Export Plug-In . SVG Version: 6.00 Build 0)  -->
<!DOCTYPE svg PUBLIC "-//W3C//DTD SVG 1.1//EN" "http://www.w3.org/Graphics/SVG/1.1/DTD/svg11.dtd">
<svg version="1.1" id="Layer_1" xmlns="http://www.w3.org/2000/svg" xmlns:xlink="http://www.w3.org/1999/xlink" x="0px" y="0px"
	 width="2000px" height="2000px" viewBox="0 0 2000 2000" enable-background="new 0 0 2000 2000" xml:space="preserve">
<g>
	<path fill="#010101" d="M296.186,83.524c-27.467,0-53.217,10.299-72.099,29.182L121.09,215.704
		c-39.482,39.482-39.482,104.713,0,144.195v-1.716l523.57,609.401l-444.606,446.352c-3.433,1.716-5.15,5.149-6.866,10.299
		l-60.082,218.013c-1.716,1.715-1.716,6.837-3.433,10.27l-22.317,80.682c-15.449,56.62-6.866,106.432,24.034,137.331
		c3.433,3.434,8.583,6.866,12.016,6.866c32.616,24.032,75.532,30.898,125.313,17.166l307.275-85.831
		c3.433-1.717,6.866-3.434,10.299-6.866l417.14-418.856l137.359,159.646c18.882,20.599,42.915,30.899,66.947,29.181
		c24.033,0,46.35-8.582,66.949-18.852c1.716-1.747,5.149-3.436,6.865-5.18l53.188-53.188
		c29.211,53.188,37.766,101.282,49.781,152.78c13.732,60.082,32.645,123.598,96.131,187.111
		c53.188,53.188,123.569,61.8,193.951,63.517c72.127,3.433,144.196-1.717,209.427,15.449c17.195,5.149,32.645-10.3,27.467-27.467
		c-17.167-65.231-12.017-139.046-13.704-209.429c-1.745-72.097-12.017-142.451-65.231-195.694
		c-63.516-63.514-127.032-84.086-185.396-97.847c-51.498-10.301-101.28-18.884-152.778-48.065l53.215-54.933
		c39.482-39.482,36.049-103.025-6.866-139.047l-157.93-139.046l305.559-305.559l0,0l1.717-1.716l211.175-212.862
		c8.582-8.583,8.582-22.316,0-32.616L1545.887,95.54c-3.405-5.15-10.271-6.866-15.421-6.866l0,0c-6.866,0-12.046,1.716-17.195,6.866
		l-207.712,207.711c-1.744,1.717-3.433,3.433-5.149,5.15l-329.59,333.025L366.566,112.706l0,0
		C347.684,93.823,321.934,83.524,296.186,83.524L296.186,83.524z M296.186,128.184c13.732,0,27.465,6.867,39.482,17.167v1.716
		l1084.905,949.322l-324.442,324.442l-291.827-338.175h1.718l-30.899-36.05v1.717l-66.949-78.965v-1.717l-29.183-34.333
		l-1.715,1.719l-521.855-605.97c0-1.717-1.717-1.717-1.717-1.717c-22.315-22.315-22.315-56.648,0-78.964l102.999-102.998
		C267.002,135.022,280.734,128.184,296.186,128.184L296.186,128.184L296.186,128.184z M1530.466,143.634l322.696,322.726
		l-180.245,180.245l-321.009-324.441L1530.466,143.634L1530.466,143.634z M1319.291,354.75l321.039,324.442l-291.828,293.543
		l-77.246-68.666l180.245-180.245c13.732-15.451,3.433-39.482-17.165-39.482c-6.868,0-12.018,1.716-15.451,6.866L1236.923,873.17
		l-120.136-102.997l190.518-190.546c13.732-15.449,3.434-41.199-17.167-39.482c-5.149,0-12.016,1.717-15.448,6.868l-192.264,192.261
		l-77.275-68.666L1319.291,354.75L1319.291,354.75z M675.558,1001.946l66.949,78.993l-358.774,358.773l-66.949-1.744
		c-1.717,0-1.717,0-1.717,0l0,0c-30.898,0-30.898,44.66,0,44.66l56.648,3.405l1.718,56.647c1.715,29.184,46.349,27.467,46.349-1.716
		l-3.433-68.664l357.057-357.06l102.997,120.164l-348.475,350.191l-66.949-3.434c-1.715,0-1.715,0-3.433,0l0,0
		c-29.181,1.745-29.181,44.66,0,44.66l56.65,3.405l3.433,56.65c1.717,30.897,46.349,27.465,46.349-1.717l-3.433-68.666
		l345.042-346.758l68.666,78.965l-417.14,417.139l-202.562,56.649l-175.095-175.096l56.648-205.995L675.558,1001.946
		L675.558,1001.946z M1454.906,1125.542l56.648,49.783l0,0c24.033,20.599,25.72,51.499,3.433,73.813l-78.993,78.965l-24.033,22.317
		l-61.798,63.515l-97.847,97.847c-17.168,8.585-34.333,13.734-46.349,15.451c-12.018,0-20.601-3.434-30.899-13.705v-1.746
		l-48.066-54.932L1454.906,1125.542L1454.906,1125.542z M1463.488,1365.87c61.799,37.736,120.164,51.498,173.407,63.514
		c56.62,12.018,108.148,27.467,163.08,84.117c41.169,39.48,49.754,96.101,51.498,163.05c1.717,58.364,1.717,123.597,12.016,188.857
		c-63.514-12.018-128.747-10.302-187.111-12.018c-66.947-1.745-123.597-12.017-163.079-51.526
		c-56.62-56.62-72.098-106.432-84.085-164.796c-12.018-51.499-25.75-111.552-63.544-173.379l17.195-18.885l61.797-61.797
		L1463.488,1365.87L1463.488,1365.87z M165.722,1697.179l139.046,139.019l-49.782,13.732c-44.632,13.704-75.532,5.149-90.981-10.3
		c-17.167-17.167-24.034-48.065-12.018-92.697L165.722,1697.179L165.722,1697.179z"/>
</g>
</svg>
