<?xml version="1.0" encoding="utf-8"?>
<!-- Generator: Adobe Illustrator 16.0.0, SVG Export Plug-In . SVG Version: 6.00 Build 0)  -->
<!DOCTYPE svg PUBLIC "-//W3C//DTD SVG 1.1//EN" "https://www.w3.org/Graphics/SVG/1.1/DTD/svg11.dtd">
<svg version="1.1" id="Layer_1" xmlns="https://www.w3.org/2000/svg" xmlns:xlink="https://www.w3.org/1999/xlink" x="0px" y="0px"
	 width="2000px" height="2000px" viewBox="0 0 2000 2000" enable-background="new 0 0 2000 2000" xml:space="preserve">
<g>
	<path fill="#010101" d="M1565.963,1376.29H879.212c-8.299,0-15.19-6.41-15.788-14.688c-2.726-37.725-26.692-69.483-58.28-77.229
		c-7.081-1.736-12.06-8.084-12.06-15.373v-29.512c0-45.711-4.845-85.702-14.4-118.859c-11.158-38.874-29.052-71.229-53.187-96.182
		c-23.209-24.004-52.023-41.236-85.647-51.219c-28.085-8.303-60.401-12.516-96.03-12.516h-66.091
		c-6.542,0-12.411-4.025-14.767-10.128c-8.451-21.888-12.736-44.62-12.736-67.563c0-103.352,84.083-187.435,187.434-187.435
		c10.433,0,20.917,0.908,31.343,2.709c6.176-182.377,156.477-328.851,340.343-328.851c22.882,0,45.713,2.366,68.013,7.04
		c34.714-43.727,79.111-79.898,128.97-104.984c53.599-26.967,113.797-41.221,174.086-41.221
		c213.337,0,386.898,173.562,386.898,386.898c0,13.707-0.73,27.286-2.176,40.506c116.062,69.835,187.723,195.731,187.744,331.133
		C1952.883,1202.472,1779.312,1376.29,1565.963,1376.29z M893.118,1344.632h672.845c195.892,0,355.262-159.617,355.262-355.812
		c-0.021-127.55-69.326-245.932-180.872-308.946c-5.665-3.2-8.796-9.543-7.889-15.986c2.118-15.061,3.192-30.776,3.192-46.709
		c0-195.88-159.36-355.24-355.24-355.24c-55.372,0-110.65,13.086-159.857,37.843c-48.587,24.445-91.527,60.363-124.178,103.87
		c-3.8,5.062-10.251,7.375-16.395,5.881c-23.039-5.593-46.804-8.428-70.639-8.428c-170.318,0-308.882,138.553-308.882,308.858
		c0,1.83,0.055,3.638,0.107,5.441l0.065,2.337c0.125,5.036-2.155,9.831-6.14,12.914c-3.985,3.081-9.199,4.083-14.042,2.696
		c-14.152-4.052-28.551-6.106-42.796-6.106c-85.895,0-155.775,69.881-155.775,155.776c0,15.529,2.377,30.968,7.078,46.033h54.857
		c38.67,0,74.005,4.649,105.024,13.82c38.93,11.559,72.371,31.598,99.412,59.566c27.778,28.719,48.253,65.541,60.854,109.439
		c10.372,35.993,15.633,78.932,15.633,127.609v17.938c17.353,6.732,32.72,18.398,44.94,34.228
		C881.515,1306.979,889.489,1325.074,893.118,1344.632z"/>
</g>
<g>
	<path fill="#010101" d="M191.767,1594.012c0,25.875,7.545,45.216,22.641,58.028c15.09,12.808,40.775,19.597,77.055,20.357v34.628
		c-49.467,0-84.666-9.513-105.594-28.54c-20.928-19.025-31.392-48.325-31.392-87.899v-128.232c0-52-29.175-78.512-87.519-79.527
		v-30.442c30.947-0.506,53.272-6.974,66.971-19.406c13.698-12.427,20.548-31.202,20.548-56.316V1143.48
		c0-75.848,45.662-114.536,136.986-116.058v34.246c-35.007,1.272-60.377,8.627-76.104,22.07
		c-15.732,13.448-23.592,33.36-23.592,59.741v116.058c0,32.979-5.583,57.589-16.743,73.82
		c-11.166,16.237-29.175,27.017-54.034,32.344v3.044c24.603,5.077,42.552,15.667,53.843,31.773
		c11.285,16.112,16.933,39.764,16.933,70.966V1594.012z"/>
	<path fill="#010101" d="M648.387,1471.485c0-31.202,5.642-54.854,16.933-70.966c11.285-16.106,29.234-26.696,53.843-31.773v-3.044
		c-24.608-5.071-42.558-15.726-53.843-31.964c-11.291-16.23-16.933-40.965-16.933-74.2V1143.48c0-26.126-7.801-45.977-23.402-59.551
		c-15.602-13.568-41.037-20.988-76.293-22.261v-34.246c44.14,0,78.006,9.834,101.598,29.489
		c23.592,19.662,35.388,48.517,35.388,86.568v133.181c0,25.369,6.909,44.205,20.738,56.506
		c13.824,12.308,36.083,18.711,66.781,19.217v30.442c-58.35,1.016-87.519,27.527-87.519,79.527v128.232
		c0,39.319-10.464,68.555-31.393,87.71c-20.929,19.151-56.126,28.729-105.593,28.729v-34.628
		c35.768-0.511,61.322-7.17,76.674-19.977c15.345-12.813,23.021-32.284,23.021-58.409V1471.485z"/>
</g>
</svg>
