<?xml version="1.0" encoding="utf-8"?>
<!-- Generator: Adobe Illustrator 16.0.0, SVG Export Plug-In . SVG Version: 6.00 Build 0)  -->
<!DOCTYPE svg PUBLIC "-//W3C//DTD SVG 1.1//EN" "http://www.w3.org/Graphics/SVG/1.1/DTD/svg11.dtd">
<svg version="1.1" id="Layer_1" xmlns="http://www.w3.org/2000/svg" xmlns:xlink="http://www.w3.org/1999/xlink" x="0px" y="0px"
	 width="2000px" height="2000px" viewBox="0 0 2000 2000" enable-background="new 0 0 2000 2000" xml:space="preserve">
<g>
	<g>
		<polygon fill="#010101" points="699.484,479.348 282.718,479.348 282.718,433.085 653.222,433.085 653.222,66.64 699.484,66.64 		
			"/>
	</g>
	<g>
		<path fill="#010101" d="M1742.413,1956.492H259.587V446.565L666.841,43.509h1075.572V1956.492z M305.85,1910.229H1696.15V89.771
			H685.864L305.85,465.868V1910.229z"/>
	</g>
</g>
<g>
	<g>
		<path fill="#010101" d="M1386.668,1225.23V931.387h-158.64l-208.665-173.881V600.815h-36.729v156.691L773.97,931.387H615.332
			v293.843H468.411v257.11h330.573v-257.11H652.062V968.117H773.97L1001,1157.316l227.029-189.199h121.909v257.113h-146.922v257.11
			h330.572v-257.11H1386.668z M762.252,1445.611H505.141v-183.65h257.112V1445.611z M1001,1109.492l-191.695-159.74L1001,790.013
			l191.696,159.74L1001,1109.492z M1496.858,1445.611h-257.113v-183.65h257.113V1445.611z"/>
	</g>
</g>
</svg>
