<?xml version="1.0" encoding="utf-8"?>
<!-- Generator: Adobe Illustrator 16.0.0, SVG Export Plug-In . SVG Version: 6.00 Build 0)  -->
<!DOCTYPE svg PUBLIC "-//W3C//DTD SVG 1.1//EN" "https://www.w3.org/Graphics/SVG/1.1/DTD/svg11.dtd">
<svg version="1.1" id="Layer_1" xmlns="https://www.w3.org/2000/svg" xmlns:xlink="https://www.w3.org/1999/xlink" x="0px" y="0px"
	 width="2000px" height="2000px" viewBox="0 0 2000 2000" enable-background="new 0 0 2000 2000" xml:space="preserve">
<g>
	<path fill="#010101" d="M1560.799,1763.569h-203.295v204.328H236.801V440.6h203.294v-204.33h204.328V32.982h1119.675v1527.292
		h-203.295v203.295H1560.799z M1306.939,491.17H287.371v1426.158h1019.569V491.17z M440.096,694.464v-50.569h713.085v50.569H440.096
		z M440.096,897.759v-50.564h713.085v50.564H440.096z M440.096,1102.082v-50.569h713.085v50.569H440.096z M440.096,1305.376v-50.563
		h713.085v50.563H440.096z M440.096,1509.705v-50.569h713.085v50.569H440.096z M440.096,1712.999v-50.569h713.085v50.569H440.096z
		 M490.665,286.841V440.6h866.845v1272.399h152.725V286.841H490.665z M694.988,83.546v152.725h865.811v1273.435h152.725V83.546
		H694.988z"/>
</g>
</svg>
