<?xml version="1.0" encoding="utf-8"?>
<!-- Generator: Adobe Illustrator 21.1.0, SVG Export Plug-In . SVG Version: 6.00 Build 0)  -->
<svg version="1.1" id="Layer_1" xmlns="http://www.w3.org/2000/svg" xmlns:xlink="http://www.w3.org/1999/xlink" x="0px" y="0px"
	 viewBox="0 0 2000 2000" style="enable-background:new 0 0 2000 2000;" xml:space="preserve">
<g>
	<path d="M523.4,983.2l450.9,453.7c14.5,14.6,38.1,14.6,52.6,0l449.6-453.7c35.4-35.4-17.7-88.5-53.1-53.1l-359.5,360
		c-14.7,14.7-26.5,9.5-26.5-10.7V373.3c0-20.6-16.7-37.2-37.5-37.2c-20.7,0-37.5,17-37.5,37.2v906.1c0,20.6-12,25.2-26.5,10.7
		l-359.5-360C541.1,894.7,488,947.8,523.4,983.2z"/>
	<path d="M1313,89.2c-19.6-6.9-41,3.3-47.9,22.9c-6.9,19.6,3.3,41,22.9,47.9c342.3,121,575.9,445.7,575.9,814.7
		c0,477.1-386.8,863.8-863.8,863.8s-863.8-386.8-863.8-863.8c0-369,233.6-693.7,575.9-814.7c19.6-6.9,29.8-28.4,22.9-47.9
		C728,92.5,706.6,82.2,687,89.2C314.9,220.7,61,573.6,61,974.7c0,518.6,420.4,939,939,939s939-420.4,939-939
		C1939,573.6,1685.1,220.7,1313,89.2z"/>
</g>
</svg>
