<?xml version="1.0" encoding="utf-8"?>
<!-- Generator: Adobe Illustrator 16.0.0, SVG Export Plug-In . SVG Version: 6.00 Build 0)  -->
<!DOCTYPE svg PUBLIC "-//W3C//DTD SVG 1.1//EN" "http://www.w3.org/Graphics/SVG/1.1/DTD/svg11.dtd">
<svg version="1.1" id="Layer_1" xmlns="http://www.w3.org/2000/svg" xmlns:xlink="http://www.w3.org/1999/xlink" x="0px" y="0px"
	 width="2000px" height="2000px" viewBox="0 0 2000 2000" enable-background="new 0 0 2000 2000" xml:space="preserve">
<g>
	<rect x="1334.612" y="29.076" fill="#010101" width="258.938" height="103.576"/>
	<rect x="1334.612" y="1867.533" fill="#010101" width="258.938" height="103.576"/>
	<rect x="950.521" y="1867.533" fill="#010101" width="258.938" height="103.576"/>
	<rect x="950.521" y="29.076" fill="#010101" width="258.938" height="103.576"/>
	<path fill="#010101" d="M1815.804,29.076h-99.258v103.576h99.258c8.632,0,15.106,6.473,15.106,15.104v101.417h103.571V147.756
		C1934.481,83.022,1880.539,29.076,1815.804,29.076z"/>
	<rect x="1830.91" y="1405.762" fill="#010101" width="103.571" height="222.254"/>
	<path fill="#010101" d="M1830.91,1852.431c0,8.632-6.475,15.103-15.106,15.103h-99.258v103.576h99.258
		c64.735,0,118.678-53.947,118.678-118.679v-101.419H1830.91V1852.431z"/>
	<rect x="1830.91" y="717.419" fill="#010101" width="103.571" height="222.255"/>
	<rect x="1830.91" y="1062.669" fill="#010101" width="103.571" height="222.254"/>
	<rect x="1830.91" y="372.169" fill="#010101" width="103.571" height="222.255"/>
	<path fill="#010101" d="M1505.08,866.309c-4.317-4.316-8.631-6.475-15.106-6.475h-94.944c-6.475,0-8.631,6.475-4.313,10.791
		l77.681,77.681h-731.5V132.652h90.628V29.076h-90.628H633.321H184.497c-64.735,0-118.68,53.946-118.68,118.68v1704.674
		c0,64.731,53.945,118.679,118.68,118.679h448.824h103.576h90.628v-103.576h-90.628v-815.652h729.34l-75.521,77.681
		c-4.317,4.317-2.161,10.788,4.313,10.788h94.944c6.476,0,10.789-2.156,15.103-6.471l129.471-129.471
		c2.157-2.156,2.157-6.474,0-8.63L1505.08,866.309z M633.321,1867.533H184.497c-8.632,0-15.104-6.471-15.104-15.103V147.756
		c0-8.632,6.473-15.104,15.104-15.104h448.824V1867.533z"/>
</g>
</svg>
