<?xml version="1.0" encoding="utf-8"?>
<!-- Generator: Adobe Illustrator 16.0.0, SVG Export Plug-In . SVG Version: 6.00 Build 0)  -->
<!DOCTYPE svg PUBLIC "-//W3C//DTD SVG 1.1//EN" "https://www.w3.org/Graphics/SVG/1.1/DTD/svg11.dtd">
<svg version="1.1" id="Layer_1" xmlns="https://www.w3.org/2000/svg" xmlns:xlink="https://www.w3.org/1999/xlink" x="0px" y="0px"
	 width="2000px" height="2000px" viewBox="0 0 2000 2000" enable-background="new 0 0 2000 2000" xml:space="preserve">
<g>
	<path fill="#010101" d="M901.894,1856.237c-15.933,0-31.867,0-44.614,0c-31.867,3.186-57.36-6.374-73.294-35.055
		c-15.933-28.68-9.56-57.36,9.56-82.854c-22.307-31.867-28.679-63.734-3.186-95.601c3.186-3.187,3.186-9.561,0-12.748
		c-19.121-25.493-19.121-50.986-6.374-79.668c-6.374-6.371-9.56-9.56-15.933-12.745c-22.308-22.308-38.241-50.988-38.241-86.042
		c3.188-73.293,0-146.587-35.053-210.32c-19.122-35.056-38.241-66.922-60.548-101.976
		c-63.734-98.788-117.909-197.576-162.521-305.924c-133.842-318.67,82.854-685.14,414.271-758.435
		c331.416-76.48,650.085,133.842,717.007,471.631c19.119,108.349,0,207.135-38.241,305.924
		c-38.24,95.601-89.227,184.828-143.401,270.869c-25.493,38.241-47.8,76.479-70.107,114.721
		c-31.867,63.734-41.427,133.842-35.053,203.95c3.186,44.612-15.934,79.667-50.988,108.346
		c9.562,28.682,12.747,60.549-12.746,86.042c25.493,35.055,25.493,66.922,3.187,98.788c6.373,12.746,12.747,25.494,15.933,38.239
		c9.561,47.801-22.307,82.855-70.107,86.041c-19.119,0-35.053,0-54.172,0c0,15.934,3.186,28.682,3.186,44.615
		c0,38.238-31.867,66.919-70.107,70.105c-31.867,0-66.92,0-98.787,0c-50.988,0-79.668-28.679-79.668-82.854
		C898.706,1878.545,901.894,1868.982,901.894,1856.237z M1022.988,1512.074c63.733,0,127.468,0,194.388,0
		c22.308,0,38.241-9.562,47.801-28.682c6.373-12.747,9.562-25.493,9.562-38.24c-3.188-79.668,3.186-159.335,41.427-229.443
		c19.119-38.238,44.612-76.479,70.107-114.72c54.173-86.042,105.161-172.083,143.401-267.684
		c38.239-95.602,60.547-194.388,35.053-296.363c-54.174-223.069-191.201-369.657-414.271-423.831
		c-223.069-50.988-411.085,19.12-554.486,197.575c-86.04,105.161-124.28,232.629-111.535,369.657
		c6.374,76.481,41.429,149.775,70.108,219.883c44.614,101.975,111.534,191.202,168.895,286.803
		c25.495,44.612,44.615,92.413,50.988,143.401c6.374,41.427,3.186,82.854,3.186,124.28c0,35.055,22.307,57.362,57.36,57.362
		C895.52,1512.074,959.254,1512.074,1022.988,1512.074z M1022.988,1757.448c-57.36,0-114.721,0-175.269,0
		c-22.308,0-31.867,12.748-31.867,28.681c0,19.12,12.748,28.682,31.867,28.682c117.908,0,232.629,0,350.537,0
		c15.934,0,28.681-6.374,31.867-25.495c3.186-19.119-9.561-35.053-35.054-35.053
		C1137.708,1757.448,1080.349,1757.448,1022.988,1757.448z M1022.988,1556.687c-54.175,0-111.535,0-165.709,0
		c-25.493,0-38.241,9.56-38.241,28.681c0,19.12,12.748,28.68,38.241,28.68c111.534,0,226.257,0,337.791,0
		c25.493,0,38.239-9.56,38.239-28.68c0-19.121-12.746-28.681-35.053-28.681C1137.708,1556.687,1080.349,1556.687,1022.988,1556.687z
		 M1026.174,1712.836c57.362,0,114.723,0,172.083,0c22.307,0,35.053-9.56,35.053-28.682c0-15.934-12.746-28.679-31.867-28.679
		c-114.721,0-232.629,0-347.349,0c-9.56,0-25.493,9.56-28.681,15.934c-12.746,19.119,3.188,41.427,31.867,41.427
		C908.268,1716.021,968.813,1712.836,1026.174,1712.836z M1022.988,1926.345c15.934,0,35.053,0,50.986,0
		c22.308,0,31.867-9.562,31.867-31.866c0-22.308-9.56-35.056-28.68-35.056c-35.055,0-70.107,0-105.161,0
		c-22.307,0-31.867,12.748-31.867,35.056c0,22.305,9.56,31.866,31.867,35.053C991.121,1926.345,1007.055,1926.345,1022.988,1926.345
		z"/>
	<path fill="#010101" d="M1300.231,626.17l-254.937,289.991L701.132,693.092L538.609,855.613c-9.56,9.56-9.56,25.493,0,35.055
		c6.374,6.372,12.748,6.372,15.934,6.372c6.374,0,12.748-3.186,15.934-6.372l133.842-133.842l347.351,223.069l286.803-328.229
		l66.92,41.427l12.748-191.202l-172.083,73.294L1300.231,626.17z"/>
</g>
</svg>
