<?xml version="1.0" encoding="utf-8"?>
<!-- Generator: Adobe Illustrator 16.0.0, SVG Export Plug-In . SVG Version: 6.00 Build 0)  -->
<!DOCTYPE svg PUBLIC "-//W3C//DTD SVG 1.1//EN" "https://www.w3.org/Graphics/SVG/1.1/DTD/svg11.dtd">
<svg version="1.1" id="Layer_1" xmlns="https://www.w3.org/2000/svg" xmlns:xlink="https://www.w3.org/1999/xlink" x="0px" y="0px"
	 width="2000px" height="2000px" viewBox="0 0 2000 2000" enable-background="new 0 0 2000 2000" xml:space="preserve">
<path fill="#010101" d="M1349.882,1574.005c10.003,10.028,23.137,15.03,36.268,15.03c13.133,0,26.265-5.002,36.269-15.03
	l536.222-536.247c20.031-20.032,20.031-52.503,0-72.536L1422.418,429c-20.006-20.032-52.529-20.032-72.536,0
	c-20.032,20.032-20.032,52.504,0,72.536l451.041,451.066H75.631c-28.317,0-51.298,22.981-51.298,51.299
	c0,28.316,22.981,51.298,51.298,51.298h1720.495l-446.244,446.244C1329.824,1521.501,1329.824,1553.947,1349.882,1574.005z"/>
</svg>
