<?xml version="1.0" encoding="utf-8"?>
<!-- Generator: Adobe Illustrator 16.0.0, SVG Export Plug-In . SVG Version: 6.00 Build 0)  -->
<!DOCTYPE svg PUBLIC "-//W3C//DTD SVG 1.1//EN" "http://www.w3.org/Graphics/SVG/1.1/DTD/svg11.dtd">
<svg version="1.1" id="Layer_1" xmlns="http://www.w3.org/2000/svg" xmlns:xlink="http://www.w3.org/1999/xlink" x="0px" y="0px"
	 width="2000px" height="2000px" viewBox="0 0 2000 2000" enable-background="new 0 0 2000 2000" xml:space="preserve">
<g transform="translate(0,-952.36216)">
	<path fill="#010101" d="M1535.585,2299.292c-165.292,0-299.721,134.43-299.721,299.721c0,165.294,134.429,299.762,299.721,299.762
		c165.291,0,299.763-134.471,299.763-299.762S1700.876,2299.292,1535.585,2299.292z M1535.585,2341.555
		c142.449,0,257.499,115.009,257.499,257.458c0,142.452-115.05,257.499-257.499,257.499c-142.452,0-257.458-115.05-257.458-257.499
		S1393.133,2341.555,1535.585,2341.555z"/>
	<path fill="#010101" d="M1611.25,2519.79l-29.838,29.923l49.36,49.32l-49.36,49.279l29.838,29.923l79.367-79.202L1611.25,2519.79z"
		/>
	<path fill="#010101" d="M1547.484,2480.746l-64.385,224.936l40.611,11.601l64.386-224.895l-40.612-11.639V2480.746z"/>
	<path fill="#010101" d="M1459.945,2519.79l-79.365,79.243l79.365,79.202l29.881-29.923l-49.402-49.279l49.402-49.32
		L1459.945,2519.79z"/>
	<path fill="#010101" d="M166.651,1005.949c0,552.323,0,1104.645,0,1656.966h1022.444v-42.263H208.832V1048.21H1515.77v1204.166
		l42.263,0.212V1006.035L166.651,1005.949z"/>
	<path fill="#010101" d="M440.62,1798.569v42.263h843.485v-42.263H440.62z"/>
	<path fill="#010101" d="M598.362,2303.167v42.264h528.001v-42.264H598.362L598.362,2303.167z"/>
	<path fill="#010101" d="M440.62,1966.754v42.263h843.485v-42.263H440.62z"/>
	<path fill="#010101" d="M440.62,2134.981v42.264h843.485v-42.264H440.62z"/>
	<path fill="#010101" d="M862.341,1140.662c-97.545,0-176.852,80.3-176.852,178.502c0,41.437,14.234,79.585,37.887,109.95
		l-82.38,214.783l108.382-44.243l52.872,102.232l59.969-165.09l62.815,164.758l49.403-103.099l109.785,48.29l-85.847-213.749
		c25.481-30.946,40.82-70.647,40.82-113.831c0-98.203-79.309-178.502-176.854-178.502V1140.662z M862.341,1182.925
		c74.467,0,134.591,60.644,134.591,136.239c0,75.593-60.124,136.199-134.591,136.199s-134.588-60.604-134.588-136.199
		C727.753,1243.569,787.874,1182.925,862.341,1182.925z M756.229,1461.515c22.025,16.775,47.939,28.494,76.229,33.389
		l-37.02,101.862l-26.249-50.807l-53.777,21.956L756.229,1461.515z M965.275,1463.949l41.108,102.397l-52.375-23.071l-24.556,51.219
		l-37.929-99.508c27.193-4.591,52.243-15.405,73.752-31.035V1463.949z"/>
</g>
</svg>
