<?xml version="1.0" encoding="utf-8"?>
<!-- Generator: Adobe Illustrator 16.0.0, SVG Export Plug-In . SVG Version: 6.00 Build 0)  -->
<!DOCTYPE svg PUBLIC "-//W3C//DTD SVG 1.1//EN" "http://www.w3.org/Graphics/SVG/1.1/DTD/svg11.dtd">
<svg version="1.1" id="Layer_1" xmlns="http://www.w3.org/2000/svg" xmlns:xlink="http://www.w3.org/1999/xlink" x="0px" y="0px"
	 width="2000px" height="2000px" viewBox="0 0 2000 2000" enable-background="new 0 0 2000 2000" xml:space="preserve">
<g>
	<g>
		<path fill="#010101" d="M999.58,873.32c-187.42,0-339.898-152.477-339.898-339.896c0-187.419,152.478-339.896,339.898-339.896
			c187.418,0,339.894,152.477,339.894,339.896C1339.474,720.843,1186.998,873.32,999.58,873.32z M999.58,244.198
			c-159.48,0-289.228,129.746-289.228,289.226S840.099,822.649,999.58,822.649c159.478,0,289.223-129.746,289.223-289.226
			S1159.058,244.198,999.58,244.198z"/>
	</g>
	<g>
		<path fill="#010101" d="M292.628,1807.271c-135.562,0-245.85-110.289-245.85-245.852s110.288-245.851,245.85-245.851
			c135.564,0,245.853,110.288,245.853,245.851S428.192,1807.271,292.628,1807.271z M292.628,1366.239
			c-107.623,0-195.18,87.559-195.18,195.181c0,107.623,87.558,195.182,195.18,195.182c107.625,0,195.183-87.559,195.183-195.182
			C487.811,1453.798,400.252,1366.239,292.628,1366.239z"/>
	</g>
	<g>
		<path fill="#010101" d="M999.58,1807.271c-135.564,0-245.853-110.289-245.853-245.852s110.289-245.851,245.853-245.851
			c135.562,0,245.849,110.288,245.849,245.851S1135.142,1807.271,999.58,1807.271z M999.58,1366.239
			c-107.625,0-195.183,87.559-195.183,195.181c0,107.623,87.559,195.182,195.183,195.182c107.623,0,195.179-87.559,195.179-195.182
			C1194.759,1453.798,1107.202,1366.239,999.58,1366.239z"/>
	</g>
	<g>
		<path fill="#010101" d="M1709.771,1807.271c-135.562,0-245.852-110.289-245.852-245.852s110.289-245.851,245.852-245.851
			c135.562,0,245.851,110.288,245.851,245.851S1845.333,1807.271,1709.771,1807.271z M1709.771,1366.239
			c-107.623,0-195.182,87.559-195.182,195.181c0,107.623,87.559,195.182,195.182,195.182c107.622,0,195.181-87.559,195.181-195.182
			C1904.952,1453.798,1817.394,1366.239,1709.771,1366.239z"/>
	</g>
	<g>
		<path fill="#010101" d="M344.534,1372.726c-7.635,0-15.18-3.437-20.166-9.978c-8.483-11.126-6.34-27.023,4.787-35.507
			l655.063-499.404c11.126-8.484,27.024-6.339,35.508,4.787c8.483,11.128,6.34,27.025-4.788,35.508l-655.062,499.403
			C355.289,1371.033,349.889,1372.726,344.534,1372.726z"/>
	</g>
	<g>
		<path fill="#010101" d="M999.58,1366.239c-13.992,0-25.335-11.343-25.335-25.335v-492.92c0-13.991,11.344-25.335,25.335-25.335
			s25.334,11.344,25.334,25.335v492.92C1024.914,1354.896,1013.571,1366.239,999.58,1366.239z"/>
	</g>
	<g>
		<path fill="#010101" d="M1709.749,1366.241c-4.985,0-10.019-1.467-14.423-4.524L985.134,868.798
			c-11.495-7.979-14.345-23.765-6.368-35.259c7.979-11.495,23.766-14.343,35.258-6.367l710.191,492.92
			c11.496,7.977,14.346,23.764,6.367,35.258C1725.663,1362.439,1717.771,1366.241,1709.749,1366.241z"/>
	</g>
</g>
</svg>
