<?xml version="1.0" encoding="utf-8"?>
<!-- Generator: Adobe Illustrator 21.1.0, SVG Export Plug-In . SVG Version: 6.00 Build 0)  -->
<svg version="1.1" id="Layer_1" xmlns="http://www.w3.org/2000/svg" xmlns:xlink="http://www.w3.org/1999/xlink" x="0px" y="0px"
	 viewBox="0 0 2000 2000" style="enable-background:new 0 0 2000 2000;" xml:space="preserve">
<path d="M1906.7,956.7l-315.1-485.2c-2-3.1-5.2-5.3-8.8-6.1c-3.6-0.7-7.4-0.1-10.5,2l-176.7,114.8c-6.5,4.2-8.3,12.9-4.1,19.4
	l27.5,42.4l-6.7,3.9c-85.9,49.6-169.5,48.8-224.4,39.5c-102-17.4-166.2,5.9-234.2,30.7l-35.2,12.6c-35.7-1.8-127.8-10.6-162.7-32.4
	c-35.1-21.9-86.9-56.4-109.5-71.7l16.2-24.9c4.2-6.5,2.4-15.2-4.1-19.4L481.7,467.4c-3.1-2-6.9-2.7-10.5-2c-3.6,0.8-6.8,3-8.8,6.1
	L147.3,956.7c-2,3.1-2.7,6.9-2,10.5c0.8,3.6,3,6.8,6.1,8.8l176.7,114.7c2.4,1.5,5,2.3,7.6,2.3c4.6,0,9.1-2.2,11.8-6.4l22-33.9
	l114.4,75l-22.7,16.5c-36.2,27.3-43.5,78.9-16.2,115.1c16.1,21.3,40.6,32.6,65.6,32.6c17.4,0,34.9-5.5,50-16.8l20.9-17.2
	c-0.7,18.2,4.3,36.7,16.1,52.3c16.1,21.4,40.8,32.7,65.7,32.7c12.2,0,24.4-2.8,35.8-8.4c-2.1,20,2.8,40.8,15.8,58.1
	c13.2,17.5,32.4,28.8,54.2,31.9c3.9,0.5,7.8,0.8,11.7,0.8c15.3,0,30.1-4.5,43.1-12.6c-1.8,20.3,3.5,40.3,15.8,56.7
	c16.1,21.4,40.8,32.7,65.7,32.7c17.2,0,34.6-5.4,49.4-16.5l3.5-2.6l146.9,96.5c13.9,9,29.4,13.3,44.8,13.3
	c27.1,0,53.6-13.2,69.4-37.6c12.5-19.2,15.9-41.8,11.4-62.6c6.9,1.9,14.1,3,21.3,3c5.8,0,11.6-0.6,17.5-1.9
	c21.6-4.6,40.1-17.3,52.1-35.7c12.5-19.2,15.9-41.8,11.4-62.6c7.1,1.9,14.3,2.9,21.5,2.9c27.1,0,53.6-13.2,69.4-37.6
	c12-18.5,16-40.5,11.5-62.2c0-0.1-0.1-0.3-0.1-0.4c7.1,1.9,14.3,3,21.5,3c27,0,53.6-13.2,69.4-37.6c12-18.5,16-40.5,11.5-62.2
	c-3.9-18.4-14-34.4-28.2-46.1l123.1-79.6c6.5-4.2,8.3-12.9,4.2-19.4c-4.2-6.5-12.9-8.3-19.4-4.2l-132.7,85.8l-217.3-141.8
	c-6.5-4.2-15.2-2.4-19.4,4.1c-4.2,6.5-2.4,15.2,4.1,19.4l234.6,153.1c25.3,16.4,32.5,50.3,16.1,75.6c-16.4,25.2-50.3,32.4-75.6,16
	l-27.4-17.8c-0.1,0-0.1-0.1-0.1-0.1l-77.7-50.4c-6.4-4.2-15.1-2.4-19.4,4.1c-1.1,1.6-1.7,3.4-2,5.2c-1,5.4,1.3,11.1,6.1,14.2
	l77.8,50.5c25.1,16.4,32.3,50.3,15.9,75.5c-16.4,25.2-50.3,32.5-75.6,16.1l-27.2-17.7c-0.1-0.1-0.2-0.2-0.3-0.2l-77.7-50.4
	c-6.4-4.2-15.1-2.4-19.4,4.1c-1.1,1.6-1.7,3.4-2,5.2c-1,5.4,1.3,11.1,6.1,14.2l78.1,50.7c24.9,16.5,32,50.1,15.6,75.3
	c-7.9,12.2-20.1,20.6-34.4,23.6c-14.4,3.1-28.9,0.4-41.1-7.5l-27.4-17.8c-0.1,0-0.1-0.1-0.1-0.1l-77.7-50.4
	c-6.5-4.2-15.1-2.4-19.4,4.1c-1.1,1.6-1.7,3.4-2,5.2c-1,5.4,1.3,11.1,6.1,14.2l77.8,50.5c25.1,16.4,32.3,50.3,15.9,75.5
	c-16.4,25.2-50.3,32.5-75.5,16.1l-138.6-91.1c17-13.1,28.1-32.1,31.1-53.5c3.1-21.8-2.5-43.4-15.7-60.9
	c-13.2-17.5-32.4-28.8-54.2-31.9c-8.7-1.2-17.2-0.7-25.6,0.8c5.8-23.2,1.8-48.7-13.7-69.2c-18.6-24.6-48.4-35.5-76.9-31.5
	c1-3.5,2-6.9,2.5-10.6c3.1-21.8-2.5-43.4-15.7-60.9c-27.3-36.2-78.9-43.5-115.1-16.2l-73.8,55.6l-240.2-157.4L631.1,650
	c23,15.4,74.7,49.9,110,71.9c26.5,16.5,74.7,25.8,114.5,30.9l-52.9,18.7c-43.2,15.1-66,62.6-50.9,105.8
	c7.3,20.9,22.4,37.7,42.4,47.3c20.1,9.7,42.6,11,63.5,3.6l130.1-46.1c41.6-9.7,123.6,41.1,198.7,92.1c2.4,1.6,5.1,2.4,7.9,2.4
	c4.5,0,8.9-2.1,11.6-6.1c4.3-6.4,2.7-15.1-3.7-19.5c-97.2-66.1-171.9-107.9-222.3-95.8l-131.5,46.5c-13.8,4.8-28.7,4-42-2.4
	c-13.3-6.4-23.3-17.5-28.1-31.3c-10-28.6,5.1-60.1,33.8-70.2l151.3-53.6c64.4-23.4,125.2-45.5,219.9-29.4
	c59.6,10.2,150,11,243.1-42.8l8-4.6l272.3,419.3c2.7,4.1,7.2,6.4,11.7,6.4c2.6,0,5.3-0.7,7.6-2.3l176.7-114.7c3.1-2,5.3-5.2,6.1-8.8
	S1908.8,959.8,1906.7,956.7z M899.1,1356.9c9.4-7.1,20.7-10.9,32.4-10.9c2.6,0,5.2,0.2,7.7,0.5c14.4,2,27.1,9.5,35.7,21
	c8.7,11.5,12.3,25.8,10.3,40.1c-2,14.4-9.5,27.1-21,35.7l-26.4,19.9c-23.8,18-57.9,13.2-75.9-10.7c-8.7-11.5-12.3-25.8-10.3-40.1
	c2-14.4,9.5-27.1,21-35.7L899.1,1356.9z M805.6,1256.5c9.7-7.4,21.2-10.9,32.5-10.9c16.4,0,32.7,7.4,43.3,21.5
	c18,23.8,13.2,57.9-10.7,75.9l-57.7,43.5c-11.5,8.7-25.8,12.4-40.1,10.3c-14.4-2-27.1-9.5-35.7-21c-18-23.8-13.2-57.9,10.7-75.9
	L805.6,1256.5z M630.5,1217.6l85-64c9.7-7.3,21.2-10.9,32.5-10.9c16.4,0,32.7,7.4,43.3,21.5c18,23.8,13.2,57.9-10.7,75.9l-85,64.1
	c-23.9,18-57.9,13.2-75.9-10.7C601.9,1269.6,606.7,1235.6,630.5,1217.6z M601.7,1205l-58.5,48.1c-23.8,18-57.9,13.2-75.9-10.7
	c-18-23.8-13.2-57.9,10.5-75.7l31.1-22.6L601.7,1205z M331.6,1059.7l-153.2-99.5l299.8-461.7L631.4,598L331.6,1059.7z
	 M1722.4,1059.7L1422.6,598l153.2-99.5l299.9,461.7L1722.4,1059.7z"/>
</svg>
