<?xml version="1.0" encoding="utf-8"?>
<!-- Generator: Adobe Illustrator 16.0.0, SVG Export Plug-In . SVG Version: 6.00 Build 0)  -->
<!DOCTYPE svg PUBLIC "-//W3C//DTD SVG 1.1//EN" "https://www.w3.org/Graphics/SVG/1.1/DTD/svg11.dtd">
<svg version="1.1" id="Layer_1" xmlns="https://www.w3.org/2000/svg" xmlns:xlink="https://www.w3.org/1999/xlink" x="0px" y="0px"
	 width="2000px" height="2000px" viewBox="0 0 2000 2000" enable-background="new 0 0 2000 2000" xml:space="preserve">
<path fill="#010101" d="M1908.978,1486.323c-31.474-31.475-73.334-48.82-117.85-48.82c-41.15,0-79.94,14.984-110.452,42.111
	l-311.295-311.315c51.391-52.938,79.772-122.407,79.772-196.327c0-75.363-29.342-146.211-82.635-199.505
	c-83.702-83.722-210.937-106.042-318.024-56.449L664.345,331.869c-0.188-0.188-0.418-0.229-0.606-0.397
	C596.736,265.556,508.289,229.17,414.18,229.17c-95.091,0-184.498,37.034-251.731,104.287
	c-138.813,138.813-138.813,364.672,0,503.484l170.621,173.693c18.141,18.1,42.155,31.161,67.671,31.161c0.189,0,0.398,0,0.585,0
	c25.644,0,49.845-13.396,68.154-31.726c18.287-18.286,28.255-44.243,28.109-70.325c-0.021-3.971-0.711-8.569-1.191-12.456
	l4.305,3.929c18.643,18.643,43.137,27.754,67.735,27.754c24.828,0,49.719-9.592,68.695-28.569
	c21.861-21.859,30.576-51.788,27.002-80.461l4.222,4.201c18.642,18.642,43.135,27.921,67.713,27.921
	c24.828,0,49.719-9.51,68.695-28.485c18.287-18.287,28.256-42.718,28.109-68.8c-0.021-3.971-0.711-7.816-1.191-11.705l79.772,79.773
	c-49.572,106.21-28.652,231.375,53.439,315.746l-314.513,314.471c-31.035-29.321-71.371-45.581-114.276-45.581
	c-44.516,0-86.356,17.347-117.852,48.82c-64.976,64.976-64.976,170.726,0,235.702c31.475,31.474,73.336,48.82,117.852,48.82
	s86.376-17.347,117.851-48.82c61.15-61.152,64.725-158.354,10.784-223.77l315.203-315.368
	c48.569,43.136,111.643,67.817,174.341,70.619v184.623c-41.799,2.968-76.555,19.729-105.02,48.193
	c-64.976,64.976-64.892,170.726,0.084,235.702c31.474,31.474,73.377,48.82,117.893,48.82s86.398-17.347,117.872-48.82
	c64.977-64.977,64.829-170.727-0.146-235.702c-29.552-29.51-67.985-46.396-109.783-48.402v-184.206
	c62.697-1.965,129.262-26.897,178.835-71.037l311.858,311.776c-57.368,65.393-55.008,165.208,7.378,227.592
	c31.474,31.476,73.355,48.821,117.871,48.821s86.376-17.346,117.85-48.821C1973.954,1657.027,1973.976,1551.3,1908.978,1486.323z
	 M760.648,672.506c-4.076-4.075-10.7-4.075-14.775,0c-4.076,4.076-4.076,10.7,0,14.775l1.964,1.964l41.631,41.631
	c14.378,14.38,22.383,33.585,22.508,54.025c0.126,20.46-7.69,39.604-21.986,53.899c-29.614,29.594-77.535,29.865-106.857,0.523
	l-42.696-42.676c-0.44-0.438-1.004-0.648-1.505-1.003c-0.835-0.898-1.442-1.943-2.32-2.842l-26.792-26.792
	c-4.075-4.076-10.699-4.076-14.775,0c-4.076,4.075-4.076,10.7,0,14.775l26.792,26.793c29.906,29.906,30.137,78.33,0.521,107.944
	c-29.592,29.614-77.556,29.843-106.877,0.523l-42.678-42.698c-0.438-0.439-1.002-0.648-1.504-1.002
	c-0.835-0.899-1.463-1.966-2.34-2.844l-26.814-26.792c-4.075-4.075-10.7-4.075-14.775,0c-4.076,4.076-4.076,10.701,0,14.777
	l26.812,26.792c14.38,14.379,22.384,33.585,22.509,54.024c0.125,20.46-7.69,42.677-21.986,56.972
	c-14.4,14.442-33.375,25.623-53.481,25.623c-0.146,0-0.312,0-0.459,0c-19.959,0-38.727-10.868-52.917-25.058L177.226,823.692
	c-130.642-130.663-130.642-344.044,0-474.706c63.304-63.304,147.464-98.54,236.956-98.54c89.51,0,173.671,34.672,236.955,97.976l0,0
	l569.484,569.379c14.379,14.379,22.383,33.543,22.508,53.983c0.126,20.46-7.69,39.583-21.985,53.878
	c-29.614,29.593-77.578,29.781-106.857,0.521L804.244,716.103l-41.63-41.632L760.648,672.506z M1186.178,853.682
	c24.641,4.012,47.714,15.59,65.624,33.501c46.71,46.731,46.71,122.783,0,169.535c-46.709,46.627-122.782,46.71-169.534,0
	c-18.225-18.225-29.928-41.714-33.731-66.794l51.015,51.015c18.643,18.643,43.137,27.943,67.713,27.943
	c24.829,0,49.72-9.489,68.697-28.465c37.765-37.765,37.514-99.438-0.523-137.497L1186.178,853.682z M927.174,868.583l107.59,107.589
	c1.086,33.48,14.754,65.54,38.643,89.428c25.81,25.812,59.709,38.727,93.607,38.727c33.919,0,67.818-12.895,93.628-38.727
	c51.622-51.62,51.622-135.636,0-187.256c-23.596-23.638-55.424-37.347-88.445-38.623l-107.84-107.839
	c97.62-41.736,211.71-20.315,287.365,55.362c49.343,49.344,76.513,114.946,76.513,184.729c0,69.762-27.17,135.386-76.513,184.708
	c-49.323,49.344-114.946,76.512-184.729,76.512c-69.783,0-135.386-27.168-184.708-76.512
	C905.982,1080.376,884.854,966.495,927.174,868.583z M639.183,1707.249c-27.524,27.524-64.119,42.698-103.075,42.698
	c-38.936,0-75.53-15.174-103.075-42.698c-56.847-56.847-56.847-149.325,0-206.15c27.524-27.523,64.139-42.696,103.075-42.696
	c38.935,0,75.551,15.173,103.075,42.696C696.028,1557.924,696.028,1650.402,639.183,1707.249z M1270.339,1707.249
	c-27.523,27.524-64.118,42.698-103.075,42.698c-38.955,0-75.529-15.174-103.074-42.698c-56.847-56.847-56.847-149.325,0-206.15
	c27.523-27.523,64.119-42.696,103.074-42.696c38.957,0,75.53,15.173,103.075,42.696
	C1327.164,1557.924,1327.164,1650.402,1270.339,1707.249z M1894.203,1707.249c-27.523,27.524-64.119,42.698-103.075,42.698
	c-38.955,0-75.529-15.174-103.074-42.698c-56.847-56.847-56.847-149.325,0-206.15c27.523-27.523,64.119-42.696,103.074-42.696
	c38.956,0,75.53,15.173,103.075,42.696C1951.05,1557.924,1951.05,1650.402,1894.203,1707.249z"/>
</svg>
