<?xml version="1.0" encoding="utf-8"?>
<!-- Generator: Adobe Illustrator 16.0.0, SVG Export Plug-In . SVG Version: 6.00 Build 0)  -->
<!DOCTYPE svg PUBLIC "-//W3C//DTD SVG 1.1//EN" "http://www.w3.org/Graphics/SVG/1.1/DTD/svg11.dtd">
<svg version="1.1" id="Layer_1" xmlns="http://www.w3.org/2000/svg" xmlns:xlink="http://www.w3.org/1999/xlink" x="0px" y="0px"
	 width="2000px" height="2000px" viewBox="0 0 2000 2000" enable-background="new 0 0 2000 2000" xml:space="preserve">
<g>
	<g>
		<g>
			<rect x="106.837" y="265.558" width="1785.992" height="41.588"/>
		</g>
		<g>
			<rect x="106.837" y="1694.358" width="1785.992" height="41.589"/>
		</g>
	</g>
	<g>
		<rect x="285.433" y="444.157" width="119.062" height="41.589"/>
	</g>
	<g>
		<rect x="464.032" y="444.157" width="119.066" height="41.589"/>
	</g>
	<g>
		<rect x="642.635" y="444.157" width="119.06" height="41.589"/>
	</g>
	<g>
		<g>
			<path d="M722.962,1438.262H324.175v-517.84h398.787V1438.262z M365.764,1396.673H681.37V962.01H365.764V1396.673z"/>
		</g>
	</g>
	<g>
		<rect x="880.76" y="920.422" width="416.732" height="41.588"/>
	</g>
	<g>
		<g>
			<path d="M1913.623,664.345H86.043V265.558h1827.58V664.345z M127.631,622.756h1744.404v-315.61H127.631V622.756z"/>
		</g>
		<g>
			<polygon points="1913.623,1735.947 86.043,1735.947 86.043,881.967 127.631,881.967 127.631,1694.358 1872.035,1694.358 
				1872.035,823.544 1913.623,823.544 			"/>
		</g>
	</g>
	<g>
		<rect x="880.76" y="920.422" width="416.732" height="41.588"/>
	</g>
	<g>
		<rect x="880.76" y="1158.555" width="833.462" height="41.588"/>
	</g>
	<g>
		<rect x="880.76" y="1396.673" width="833.462" height="41.589"/>
	</g>
</g>
</svg>
