<?xml version="1.0" encoding="utf-8"?>
<!-- Generator: Adobe Illustrator 16.0.0, SVG Export Plug-In . SVG Version: 6.00 Build 0)  -->
<!DOCTYPE svg PUBLIC "-//W3C//DTD SVG 1.1//EN" "https://www.w3.org/Graphics/SVG/1.1/DTD/svg11.dtd">
<svg version="1.1" id="Layer_1" xmlns="https://www.w3.org/2000/svg" xmlns:xlink="https://www.w3.org/1999/xlink" x="0px" y="0px"
	 width="2000px" height="2000px" viewBox="0 0 2000 2000" enable-background="new 0 0 2000 2000" xml:space="preserve">
<g transform="translate(0,-952.3622)">
	<g>
		<path fill="#010101" d="M1921.338,998.486L1333.8,1081.61c-6.116,1.105-11.859,4.191-16.147,8.685l-493.135,493.778
			c-108.827,0-218.04,0-326.686,0c-6.977,0.57-13.714,3.711-18.632,8.686l-334.14,334.974c-16.78,16.063-3.363,50.402,19.875,50.869
			h324.201c178.469,178.665,310.329,306.002,486.924,483.853v322.57c-0.519,23.624,34.558,38.15,50.929,21.091l335.38-334.976
			c5.091-5.712,7.828-13.456,7.453-21.091V2128.72l494.377-495.02c4.498-4.284,7.59-10.018,8.694-16.128l81.983-585.587
			c2.646-18.129-15.387-36.14-33.539-33.497V998.486z M1891.526,1061.759l-75.771,535.961c0,0-326.271,327.531-489.407,491.298
			c-1.734,1.749-2.589,2.094-3.728,2.491c-158.995,52.521-476.986,157.562-476.986,157.562L705.271,2108.88
			c0,0,103.511-315.127,155.268-472.689c1.521-4.63,4.004-8.962,7.453-12.406c161.895-161.698,485.682-485.095,485.682-485.095
			L1891.526,1061.759z M795.948,1642.384l-137.879,420.581l-136.636-135.234c-5.518-5.526-13.302-8.728-21.117-8.682H236.979
			l275.758-275.425L795.948,1642.384z M1311.441,2156.013v281.629l-275.758,275.423v-263.019c0.043-7.806-3.16-15.58-8.694-21.092
			l-132.911-131.51L1311.441,2156.013z"/>
		<path fill="#010101" d="M496.59,2254.531c-16.092,2.812-26.855,18.121-24.04,34.194c1.124,6.411,4.333,12.27,9.133,16.672
			l167.692,166.25c10.133,12.799,28.734,14.969,41.549,4.848c12.813-10.121,14.986-28.701,4.853-41.499
			c-1.241-1.567-2.638-3.006-4.17-4.292l-167.69-167.484C516.916,2255.812,506.589,2252.528,496.59,2254.531z"/>
		<path fill="#010101" d="M315.235,2392.248c-5.722,1.351-10.911,4.372-14.907,8.682L58.109,2645.339
			c-12.818,10.114-15.002,28.694-4.875,41.496c10.126,12.806,28.728,14.986,41.546,4.869c1.579-1.245,3.027-2.646,4.321-4.186
			l243.461-245.646c11.476-11.613,11.353-30.32-0.275-41.781C335.176,2393.081,325.001,2390.13,315.235,2392.248z"/>
		<path fill="#010101" d="M528.885,2599.433c-6.61,0.854-12.737,3.915-17.39,8.684l-244.704,245.652
			c-12.818,10.113-15.002,28.694-4.875,41.496c10.126,12.806,28.728,14.986,41.546,4.869c1.579-1.245,3.027-2.646,4.321-4.187
			l244.704-245.646c11.895-11.184,12.461-29.881,1.264-41.762C547.362,2601.759,538.147,2598.385,528.885,2599.433z"/>
	</g>
</g>
</svg>
