<?xml version="1.0" encoding="utf-8"?>
<!-- Generator: Adobe Illustrator 16.0.0, SVG Export Plug-In . SVG Version: 6.00 Build 0)  -->
<!DOCTYPE svg PUBLIC "-//W3C//DTD SVG 1.1//EN" "http://www.w3.org/Graphics/SVG/1.1/DTD/svg11.dtd">
<svg version="1.1" id="Layer_1" xmlns="http://www.w3.org/2000/svg" xmlns:xlink="http://www.w3.org/1999/xlink" x="0px" y="0px"
	 width="2000px" height="2000px" viewBox="0 0 2000 2000" enable-background="new 0 0 2000 2000" xml:space="preserve">
<path fill="#020202" d="M1468.893,531.901c-23.741-23.747-62.575-23.747-86.314,0l-123.766,123.847
	c-50.698-33.724-108.886-50.467-167.319-50.467c-77.772,0-156.571,29.691-214.94,89.065L694.151,876.761
	c-104.025,103.904-116.844,264.587-38.712,382.516L531.7,1383.117c-23.747,23.753-23.747,62.229,0,85.981
	c11.876,11.876,27.433,17.813,42.983,17.813c15.57,0,31.115-5.938,42.991-17.813l123.744-123.841
	c50.712,33.717,109.247,50.454,167.68,50.454c76.772,0,155.564-29.677,214.945-89.059l182.043-182.401
	c104.039-103.911,116.851-264.6,38.706-382.523l124.1-123.847C1492.644,594.129,1492.644,555.646,1468.893,531.901z
	 M1273.536,909.299c0,48.69-18.981,94.529-53.417,128.972l-182.057,182.401c-34.551,34.437-81.28,53.431-128.964,53.431
	c-27.556,0-53.918-6.76-78.139-18.288l89.719-90.727c23.746-23.74,23.746-62.217,0-85.981c-22.739-23.739-61.215-23.739-84.962,0
	l-90.725,90.727c-11.64-24.101-18.29-50.456-18.29-78.133c0-48.685,18.995-94.529,53.438-128.965l181.395-182.409
	c34.436-34.435,81.274-53.43,129.958-53.43c27.55,0,53.79,6.759,78.029,18.289l-92.509,92.618
	c-23.739,23.746-23.739,62.222,0,85.981c11.877,11.876,27.434,17.808,42.99,17.808c15.441,0,31-5.932,42.862-17.808l92.406-92.625
	C1266.893,855.259,1273.536,881.634,1273.536,909.299z"/>
<g>
	<path fill="#020202" d="M1000.298,1927.096c-125.143,0-246.56-24.517-360.878-72.869
		c-110.402-46.695-209.546-113.538-294.678-198.671c-85.131-85.132-151.975-184.275-198.67-294.678
		C97.718,1246.56,73.201,1125.143,73.201,1000s24.517-246.56,72.87-360.878c46.696-110.402,113.539-209.546,198.67-294.678
		c85.132-85.131,184.276-151.975,294.678-198.67c114.319-48.353,235.736-72.87,360.878-72.87s246.56,24.517,360.878,72.87
		c110.402,46.696,209.547,113.539,294.68,198.67c85.131,85.132,151.975,184.276,198.67,294.678
		c48.353,114.319,72.87,235.735,72.87,360.878c0,125.143-24.518,246.56-72.87,360.878
		c-46.695,110.402-113.539,209.546-198.67,294.678c-85.133,85.133-184.277,151.976-294.68,198.671
		C1246.857,1902.579,1125.44,1927.096,1000.298,1927.096z M1000.298,139.746c-116.148,0-228.805,22.74-334.84,67.589
		c-102.434,43.326-194.437,105.358-273.452,184.373c-79.015,79.016-141.047,171.018-184.373,273.452
		c-44.85,106.035-67.59,218.692-67.59,334.84c0,116.148,22.74,228.805,67.59,334.84c43.326,102.435,105.358,194.437,184.373,273.452
		c79.015,79.015,171.018,141.046,273.452,184.373c106.035,44.849,218.691,67.589,334.84,67.589s228.805-22.74,334.84-67.589
		c102.435-43.327,194.438-105.358,273.452-184.373c79.016-79.016,141.048-171.018,184.374-273.452
		c44.849-106.035,67.589-218.691,67.589-334.84c0-116.148-22.74-228.805-67.589-334.84
		c-43.326-102.434-105.358-194.437-184.374-273.452c-79.015-79.015-171.018-141.047-273.452-184.373
		C1229.103,162.486,1116.446,139.746,1000.298,139.746z"/>
</g>
</svg>
