<?xml version="1.0" encoding="utf-8"?>
<!-- Generator: Adobe Illustrator 16.0.0, SVG Export Plug-In . SVG Version: 6.00 Build 0)  -->
<!DOCTYPE svg PUBLIC "-//W3C//DTD SVG 1.1//EN" "http://www.w3.org/Graphics/SVG/1.1/DTD/svg11.dtd">
<svg version="1.1" id="Layer_1" xmlns="http://www.w3.org/2000/svg" xmlns:xlink="http://www.w3.org/1999/xlink" x="0px" y="0px"
	 width="2000px" height="2000px" viewBox="0 0 2000 2000" enable-background="new 0 0 2000 2000" xml:space="preserve">
<path d="M110.723,989.333c40.431-0.62,68.245,11.369,83.463,35.956c2.079,3.344,3.696,6.772,4.852,10.323
	c1.149,3.539,2.231,7.394,3.277,11.564c0.426,1.665,0.571,3.599,0.474,5.775c-0.103,2.188-0.571,3.806-1.41,4.852
	c-1.046,1.253-2.499,2.03-4.384,2.335c-1.878,0.315-3.958,0.486-6.25,0.486h-19.686h-5.624c-1.879,0-3.453-0.219-4.693-0.633
	c-2.518-1.033-4.074-2.699-4.694-4.997c-0.626-2.299-1.471-4.584-2.505-6.883c-0.833-2.079-1.981-4.268-3.435-6.565
	c-1.459-2.286-3.016-4.062-4.682-5.314c-2.931-2.079-5.739-3.854-8.457-5.313c-2.505-1.046-5.575-1.921-9.211-2.663
	c-3.653-0.717-7.411-1.191-11.26-1.398c-3.86-0.206-7.654-0.109-11.418,0.305c-3.745,0.425-7.07,1.252-9.995,2.505
	c-4.797,2.079-8.493,4.535-11.095,7.344c-2.603,2.809-4.433,7.041-5.479,12.671c-0.426,1.446-0.522,3.076-0.316,4.839
	c0.213,1.775,0.529,3.186,0.949,4.22c1.659,4.377,4.013,7.453,7.021,9.229c3.028,1.764,6.627,3.49,10.798,5.168
	c2.292,1.021,4.633,1.812,7.034,2.335c2.39,0.522,4.846,1.204,7.332,2.03c5.63,1.873,11.418,3.49,17.358,4.84
	c5.952,1.361,11.831,2.869,17.655,4.535c1.046,0.426,2.092,0.62,3.138,0.62c1.033,0,2.079,0.219,3.125,0.633
	c4.158,1.459,8.493,2.809,12.974,4.062c4.487,1.252,8.494,3.027,12.032,5.313c5.624,3.551,10.481,7.089,14.543,10.627
	c4.055,3.551,7.867,8.135,11.418,13.753c1.033,1.678,1.915,3.551,2.65,5.63c0.735,2.091,1.508,4.171,2.341,6.262
	c0.213,0.62,0.322,1.204,0.322,1.715c0,0.522,0.104,0.997,0.316,1.41c0.832,3.332,1.24,7.503,1.24,12.5
	c0.413,1.046,0.413,2.092,0,3.125v5.63c-0.408,2.298-0.785,4.487-1.095,6.566c-0.311,2.092-0.784,4.171-1.393,6.25
	c-1.258,3.757-2.614,7.198-4.085,10.323c-1.46,3.125-3.223,6.153-5.302,9.059c-0.852,1.046-1.672,1.934-2.493,2.663
	c-0.845,0.729-1.568,1.617-2.194,2.651c-1.046,1.252-2.188,2.456-3.447,3.599c-1.246,1.144-2.614,2.25-4.056,3.283
	c-1.063,0.839-2.146,1.666-3.289,2.505c-1.148,0.827-2.341,1.666-3.599,2.493c-3.551,2.298-7.247,4.17-11.096,5.642
	c-3.861,1.447-7.867,2.906-12.038,4.365c-2.912,1.046-5.94,1.727-9.053,2.03c-3.125,0.316-6.263,0.778-9.388,1.411
	c-1.471,0.413-2.863,0.571-4.225,0.462c-1.368-0.098-2.651,0.036-3.91,0.475h-2.498c-0.414,0-0.985-0.049-1.721-0.158
	c-0.736-0.098-1.308-0.062-1.721,0.158c-1.046,0.206-2.809,0.315-5.313,0.315s-4.269-0.109-5.302-0.315h-3.131
	c-1.466-0.438-2.974-0.572-4.542-0.475c-1.557,0.109-2.961-0.049-4.22-0.462c-1.045,0-1.981-0.049-2.803-0.158
	c-0.845-0.109-1.781-0.255-2.827-0.475c-2.492-0.62-5.106-1.143-7.806-1.556c-2.718-0.426-5.217-1.046-7.509-1.873
	c-10.208-3.332-19.176-7.551-26.885-12.67c-7.715-5.095-14.178-11.831-19.383-20.161c-3.337-4.997-5.939-10.943-7.824-17.825
	c-0.407-1.24-0.669-2.493-0.772-3.745c-0.109-1.253-0.37-2.603-0.784-4.062c-0.419-1.666-0.729-3.696-0.93-6.104
	c-0.226-2.396,0.2-4.219,1.246-5.472c1.046-1.666,2.548-2.65,4.529-2.967c1.982-0.304,4.22-0.462,6.725-0.462h19.687h5.325
	c1.873,0,3.539,0.316,5.01,0.937c2.28,1.046,3.636,2.76,4.043,5.155c0.426,2.396,1.161,4.84,2.195,7.345
	c0.833,2.505,1.878,4.803,3.125,6.882c1.258,2.079,2.602,4.062,4.073,5.934c1.033,1.253,2.177,2.408,3.435,3.441
	c1.247,1.046,2.499,1.982,3.758,2.821c4.572,2.918,10.202,5.313,16.871,7.187c1.459,0.413,2.863,0.632,4.226,0.632
	c1.355,0,2.863,0.207,4.529,0.62h1.568c1.672,0.413,3.958,0.62,6.877,0.62c2.912,0,5.204-0.207,6.882-0.62
	c0.626-0.207,1.672-0.316,3.125-0.316c1.033-0.206,2.128-0.364,3.289-0.462c1.131-0.109,2.213-0.364,3.277-0.79
	c7.083-1.873,12.713-4.378,16.884-7.503c4.17-3.137,7.07-8.329,8.748-15.625c0.414-1.459,0.475-3.137,0.152-5.01
	c-0.311-1.872-0.675-3.331-1.082-4.377c-2.092-5.63-5.643-9.995-10.634-13.133c-0.639-0.413-1.781-1.033-3.441-1.872
	c-3.125-1.873-6.62-3.381-10.469-4.535c-3.873-1.131-7.654-2.335-11.418-3.588c-1.459-0.413-2.876-0.79-4.22-1.094
	c-1.355-0.316-2.863-0.681-4.535-1.095c-3.332-1.058-6.725-1.934-10.159-2.663c-3.436-0.729-6.725-1.604-9.85-2.65
	c-1.046-0.413-1.879-0.633-2.499-0.633c-0.626,0-1.361-0.206-2.194-0.62c-1.666-0.413-3.174-0.826-4.529-1.252
	c-1.362-0.413-2.863-0.827-4.536-1.253c-4.79-1.665-9.375-3.38-13.758-5.155c-4.372-1.775-8.427-3.806-12.19-6.104
	c-4.791-3.113-9.162-6.761-13.12-10.932c-3.964-4.171-7.089-8.962-9.381-14.385c-0.845-1.873-1.465-3.794-1.879-5.788
	c-0.419-1.97-0.93-4.11-1.568-6.408c-0.407-1.872-0.724-4.584-0.931-8.122c-0.212-3.539-0.115-6.457,0.311-8.768
	c0.213-0.814,0.311-2.055,0.311-3.732c0.62-2.299,1.143-4.487,1.556-6.566c0.426-2.092,1.046-4.171,1.879-6.263
	c3.125-7.283,7.149-13.484,12.044-18.604c4.889-5.095,10.566-9.74,17.042-13.911c4.158-2.492,8.646-4.469,13.436-5.928
	c4.798-1.471,9.898-2.827,15.315-4.085c2.079-0.407,4.122-0.657,6.104-0.772c1.976-0.098,4.006-0.347,6.085-0.784
	c0.639-0.201,1.617-0.201,2.979,0C109.415,989.856,110.297,989.759,110.723,989.333"/>
<path d="M371.69,1134.396c0.213,1.24,0.311,3.125,0.311,5.63s-0.213,4.269-0.627,5.313v4.062c-0.62,2.299-0.979,4.487-1.094,6.566
	c-0.098,2.092-0.475,4.171-1.095,6.25c-0.413,1.872-0.845,3.806-1.259,5.788c-0.407,1.981-1.045,3.903-1.866,5.788
	c-1.459,3.538-2.912,6.821-4.384,9.837c-1.459,3.027-3.125,5.994-4.991,8.925c-1.259,1.86-2.554,3.587-3.909,5.155
	c-1.368,1.557-2.863,3.174-4.535,4.84l-2.177,2.188c-1.07,1.046-2.141,1.97-3.289,2.81c-1.155,0.839-2.25,1.678-3.283,2.505
	c-1.672,1.252-3.502,2.347-5.472,3.282c-1.988,0.937-4.019,1.934-6.11,2.968c-2.079,1.045-4.207,1.775-6.402,2.188
	c-2.188,0.413-4.432,0.839-6.712,1.252c-1.252,0.414-2.565,0.62-3.921,0.62c-1.356,0-2.748,0.22-4.22,0.633h-2.803
	c-1.678,0.413-3.234,0.413-4.693,0h-3.125c-1.259-0.413-2.554-0.584-3.922-0.475c-1.344,0.109-2.639-0.049-3.896-0.462
	c-3.338-1.046-6.524-1.981-9.54-2.821c-3.027-0.826-5.787-2.079-8.28-3.745c-1.453-0.839-2.814-1.727-4.067-2.662
	c-1.234-0.937-2.608-1.922-4.062-2.968c-0.833-0.632-2.091-1.556-3.751-2.809c-1.678-1.252-3.125-1.35-4.377-0.316
	c-1.034,0.62-1.557,1.398-1.557,2.347c0,0.937-0.213,2.031-0.626,3.283c-0.426,2.08-0.584,4.487-0.475,7.187
	c0.104,2.712,0.152,5.204,0.152,7.503v31.882c0,2.724-0.049,5.375-0.152,7.989c-0.109,2.59-0.681,4.729-1.715,6.396
	c-0.638,0.827-1.781,1.459-3.44,1.885c-1.679,0.413-3.545,0.669-5.624,0.778c-2.092,0.098-4.171,0.098-6.25,0
	c-2.092-0.109-3.861-0.158-5.32-0.158h-8.438h-2.194c-0.833,0-1.569-0.109-2.177-0.316h-2.518c-3.55-1.046-5.417-3.076-5.63-6.104
	c-0.194-3.016-0.298-6.603-0.298-10.773v-183.512c0-2.286-0.061-4.742-0.158-7.345c-0.115-2.614,0.347-4.645,1.393-6.104
	c0.846-1.46,1.994-2.384,3.447-2.81c1.046-0.413,2.341-0.632,3.909-0.632h4.523h15.018h5.939c1.879,0,3.436,0.522,4.693,1.568
	c1.441,1.046,2.226,2.347,2.341,3.903c0.098,1.568,0.584,3.186,1.404,4.852c0.201,0.62,0.475,1.095,0.772,1.41
	c0.322,0.305,0.687,0.669,1.095,1.095c2.304,0.207,4.17-0.426,5.63-1.885c1.471-1.447,2.924-2.699,4.383-3.745
	c2.712-1.885,5.515-3.6,8.439-5.155c2.918-1.569,6.152-2.87,9.69-3.916c1.666-0.62,3.484-1.046,5.479-1.252
	c1.981-0.207,3.909-0.511,5.775-0.937c0.833-0.207,1.721-0.207,2.663,0c0.937,0.219,1.721,0.109,2.341-0.316
	c11.88-0.401,21.93,1.204,30.174,4.852c8.226,3.648,15.267,8.391,21.103,14.228c1.034,1.045,1.982,2.03,2.803,2.979
	c0.846,0.924,1.666,1.921,2.518,2.955c1.453,1.885,2.748,3.757,3.896,5.63c1.144,1.872,2.237,3.757,3.283,5.63
	c0.414,0.426,0.675,0.937,0.784,1.568c0.104,0.62,0.365,1.35,0.784,2.177c1.247,2.091,2.384,4.596,3.441,7.515
	c0.407,1.24,0.833,2.541,1.253,3.891c0.413,1.374,0.826,2.772,1.233,4.231c0.846,2.505,1.423,5.107,1.733,7.807
	c0.298,2.724,0.771,5.532,1.404,8.451c0,1.046,0.036,2.188,0.152,3.44c0.109,1.253,0.261,2.493,0.474,3.745V1134.396z
	 M327.612,1141.595c0.2-1.045,0.298-2.456,0.298-4.231c0-1.763-0.098-3.173-0.298-4.219v-2.81c-0.426-1.252-0.639-2.614-0.639-4.061
	c0-1.459-0.194-2.919-0.62-4.378c-0.426-2.079-0.833-4.109-1.246-6.104c-0.426-1.971-1.046-3.794-1.879-5.473
	c-2.505-6.663-5.727-11.977-9.685-15.94c-3.964-3.952-9.588-6.883-16.89-8.755c-1.666-0.414-3.496-0.62-5.479-0.62H285.4
	c-0.833,0.206-1.568,0.304-2.177,0.304c-0.638,0-1.374,0.109-2.194,0.316c-1.466,0.426-2.876,0.778-4.22,1.094
	c-1.355,0.316-2.663,0.778-3.921,1.411c-5.418,2.298-9.637,5.836-12.652,10.627c-3.027,4.804-5.478,10.117-7.345,15.941
	c-0.426,1.678-0.735,3.393-0.936,5.155c-0.226,1.764-0.523,3.502-0.949,5.168c-0.206,0.827-0.31,2.188-0.31,4.062
	c-0.42,0.839-0.523,1.824-0.311,2.967c0.201,1.155,0.201,2.25,0,3.283c-0.413,1.252-0.413,2.396,0,3.441v3.757v2.809
	c0,0.84,0.201,1.666,0.62,2.505c0,1.46,0.116,2.603,0.329,3.43c0.194,1.252,0.395,2.505,0.62,3.757
	c0.2,1.253,0.51,2.505,0.936,3.745c1.867,6.056,4.11,11.005,6.725,14.859c2.602,3.854,6.299,7.247,11.09,10.165
	c2.918,1.666,6.353,3.016,10.323,4.062c0.82,0.207,1.557,0.255,2.194,0.158c0.608-0.109,1.344-0.049,2.177,0.146
	c0.833,0.207,2.079,0.365,3.751,0.475c1.666,0.109,3.021,0.049,4.067-0.158c1.672-0.413,3.387-0.778,5.156-1.095
	c1.769-0.315,3.489-0.778,5.155-1.41c5.004-2.092,9.077-4.998,12.202-8.755c3.125-3.745,5.728-8.123,7.807-13.133
	c1.046-2.492,1.769-5.106,2.194-7.806c0.42-2.712,0.942-5.521,1.568-8.439c0-1.045,0.049-2.091,0.146-3.137
	C327.552,1143.675,327.612,1142.629,327.612,1141.595"/>
<path d="M519.496,1204.424c0.426,2.298,0.669,4.584,0.784,6.882c0.109,2.298-0.985,3.854-3.289,4.693
	c-1.246,0.62-2.712,0.937-4.371,0.937h-5.004h-16.871c-1.892,0-3.709-0.049-5.49-0.158c-1.758-0.109-3.162-0.583-4.195-1.41
	c-1.483-0.827-2.578-2.031-3.302-3.6c-0.735-1.557-1.72-2.857-2.96-3.903c-0.426-0.413-0.949-0.778-1.557-1.094
	c-0.639-0.316-1.472-0.353-2.518-0.158c-1.045,0.426-2.03,0.937-2.967,1.557c-0.93,0.632-1.927,1.155-2.961,1.568
	c-1.046,0.839-2.188,1.568-3.447,2.188c-1.246,0.633-2.505,1.265-3.751,1.885c-2.712,1.24-5.526,2.237-8.438,2.967
	c-2.912,0.718-5.94,1.521-9.077,2.347c-1.459,0.414-2.863,0.669-4.207,0.778c-1.362,0.109-2.767,0.256-4.226,0.45
	c-0.62,0-1.259,0.061-1.879,0.17c-0.607,0.109-1.246,0.158-1.879,0.158h-3.423c-2.098,0.413-4.177,0.413-6.256,0h-2.821
	c-1.459-0.413-2.851-0.571-4.225-0.474c-1.356,0.109-2.651-0.049-3.91-0.463c-2.079-0.425-4.055-0.778-5.939-1.094
	c-1.866-0.305-3.647-0.9-5.313-1.715c-6.037-2.298-11.205-5.265-15.479-8.913c-4.256-3.647-7.643-8.487-10.147-14.543
	c-0.632-1.446-1.209-3.016-1.72-4.681c-0.523-1.666-0.991-3.441-1.405-5.326c-0.425-1.033-0.583-2.067-0.474-3.113
	c0.115-1.045,0.049-2.091-0.158-3.137c-0.213-0.62-0.365-1.921-0.462-3.903c-0.116-1.982-0.061-3.393,0.158-4.22
	c0.413-2.079,0.613-3.854,0.613-5.313c0.62-2.298,1.259-4.633,1.879-7.028c0.633-2.396,1.459-4.548,2.505-6.42
	c3.532-6.043,7.605-10.628,12.202-13.753c4.578-3.125,10.408-5.836,17.504-8.122c2.705-1.046,5.502-1.775,8.444-2.188
	c2.9-0.426,5.812-0.937,8.749-1.569c1.66-0.413,3.429-0.668,5.308-0.777s3.745-0.365,5.643-0.778
	c1.44-0.426,2.899-0.584,4.353-0.475c1.459,0.109,3.028-0.049,4.7-0.475c1.453-0.4,2.912-0.62,4.377-0.62
	c1.459,0,3.016-0.206,4.7-0.62c4.365-1.045,8.365-1.933,12.013-2.662c3.648-0.729,6.938-2.554,9.862-5.473
	c1.878-1.872,3.112-3.951,3.745-6.25c0.212-0.632,0.261-1.143,0.164-1.568c-0.109-0.413-0.062-0.826,0.164-1.24
	c0.183-0.426,0.298-1.046,0.298-1.885v-1.872c-0.213-0.827-0.365-1.666-0.462-2.505c-0.109-0.827-0.273-1.557-0.475-2.188
	c-2.079-6.25-6.463-10.519-13.139-12.816c-1.866-0.62-4.104-1.095-6.706-1.411c-2.614-0.304-5.271-0.413-7.982-0.304
	c-2.705,0.098-5.308,0.365-7.818,0.778c-2.493,0.426-4.669,0.937-6.566,1.568c-1.228,0.414-2.438,0.985-3.581,1.715
	c-1.161,0.729-2.256,1.52-3.289,2.347c-1.046,0.839-2.128,1.982-3.277,3.429c-1.154,1.472-1.939,2.821-2.353,4.073
	c-1.046,2.08-1.927,4.062-2.663,5.935c-0.724,1.885-2.231,3.137-4.535,3.757c-1.666,0.414-3.436,0.62-5.313,0.62h-5.618h-11.892
	c-1.034,0-2.079,0.062-3.113,0.158c-1.046,0.109-1.976,0.061-2.809-0.158h-2.815c-0.425-0.206-0.936-0.315-1.568-0.315
	c-0.626,0-1.148-0.207-1.557-0.621c-1.684-0.413-2.827-1.774-3.44-4.061c-0.219-1.059-0.219-2.092,0-3.113
	c0.2-1.058,0.413-1.994,0.613-2.833c0.633-2.286,1.308-4.426,2.043-6.408c0.718-1.97,1.605-3.794,2.651-5.472
	c0.632-1.033,1.258-2.079,1.878-3.125c0.639-1.033,1.247-2.079,1.867-3.125c1.684-2.286,3.763-4.475,6.25-6.566
	c0.426-0.194,1.052-0.729,1.885-1.556c1.033-0.84,1.987-1.569,2.814-2.189c0.821-0.632,1.775-1.252,2.821-1.885
	c3.538-2.286,7.302-4.109,11.247-5.459c3.958-1.362,8.02-2.663,12.19-3.916c2.517-0.62,5.119-1.046,7.807-1.252
	c2.711-0.207,5.429-0.62,8.141-1.253c0.82-0.194,2.146-0.194,3.897,0c1.781,0.219,2.875,0.109,3.289-0.304
	c8.542-0.207,16.737,0.109,24.556,0.937c7.807,0.826,14.89,2.396,21.255,4.693c6.348,2.286,11.825,5.362,16.409,9.217
	s8.117,8.804,10.622,14.847c1.465,3.551,2.304,7.612,2.511,12.196c0.2,4.584,0.315,9.277,0.315,14.068v69.711v12.05
	c0,4.062,0.408,7.758,1.241,11.09c0.2,0.62,0.315,1.301,0.315,2.03S519.295,1203.804,519.496,1204.424 M473.539,1156.284
	c0.213-1.046,0.31-2.237,0.31-3.6c0-1.35-0.097-2.541-0.31-3.6c-0.414-1.24-0.626-2.383-0.626-3.44c0-1.034-0.42-1.86-1.24-2.493
	c-1.053-0.826-2.608-1.252-4.688-1.252c-0.846,0.219-1.569,0.364-2.189,0.474c-0.632,0.098-1.367,0.256-2.188,0.462
	c-1.472,0.426-3.027,0.73-4.699,0.949c-1.679,0.206-3.332,0.511-5.004,0.924c-0.62,0.219-1.557,0.316-2.815,0.316
	c-2.711,0.62-5.417,1.046-8.128,1.252c-2.7,0.219-5.302,0.729-7.807,1.568c-1.685,0.414-3.24,0.778-4.693,1.095
	c-1.46,0.304-2.912,0.778-4.384,1.398c-4.371,1.872-8.068,4.693-11.096,8.438c-3.01,3.758-4.11,8.974-3.289,15.638
	c0.426,3.538,1.574,6.469,3.441,8.755c1.465,2.298,3.647,4.122,6.572,5.472c2.912,1.361,6.104,2.334,9.539,2.967
	c3.435,0.632,7.083,0.778,10.932,0.474c3.86-0.315,7.459-0.997,10.797-2.03c5.411-1.678,9.697-4.329,12.822-7.977
	c3.113-3.647,5.515-8.184,7.187-13.582c0.407-1.472,0.669-2.991,0.784-4.548c0.098-1.568,0.358-3.186,0.772-4.852V1156.284z"/>
<path d="M596.059,1051.237c16.884-0.413,31.001,2.079,42.357,7.503c11.357,5.423,20.373,13.132,27.043,23.14
	c3.338,4.997,5.843,10.736,7.509,17.193c0.413,1.046,0.784,2.396,1.101,4.062c0.31,1.666,0.249,3.125-0.165,4.377
	c-0.82,2.299-2.292,3.6-4.383,3.903c-2.079,0.304-4.584,0.475-7.497,0.475h-16.263h-5.776c-1.976,0-3.599-0.414-4.839-1.253
	c-1.672-0.826-2.815-2.128-3.453-3.903c-0.608-1.787-1.453-3.599-2.487-5.472c-1.246-2.298-2.614-4.377-4.062-6.262
	c-1.459-1.873-3.137-3.551-5.003-4.998c-2.931-1.872-6.165-3.331-9.703-4.377c-1.247-0.414-2.499-0.62-3.733-0.62
	c-1.259,0-2.414-0.207-3.447-0.633h-3.125c-4.188,0-7.509,0.426-10.014,1.253c-6.049,1.872-10.931,4.742-14.694,8.597
	c-3.745,3.854-6.773,8.499-9.065,13.91c-1.045,2.299-1.83,4.742-2.341,7.345c-0.522,2.614-1.094,5.374-1.714,8.293
	c-0.213,0.839-0.311,1.666-0.311,2.505c0,0.826-0.115,1.666-0.328,2.492c-0.407,2.092-0.571,5.01-0.462,8.755
	c0.104,3.758,0.365,6.676,0.79,8.755c0,1.678,0.098,2.797,0.311,3.441c0.407,1.459,0.669,2.918,0.784,4.377
	c0.085,1.46,0.358,2.919,0.772,4.378c1.665,4.791,3.647,9.168,5.952,13.132c2.273,3.965,5.204,7.296,8.748,9.995
	c0.827,0.633,2.079,1.362,3.752,2.189c2.279,1.459,4.633,2.407,7.034,2.82c2.389,0.414,5.368,0.827,8.9,1.253h1.885
	c0.833,0,1.441-0.109,1.879-0.316h2.803c1.453-0.413,2.876-0.79,4.219-1.094c1.356-0.316,2.663-0.682,3.91-1.107
	c6.25-2.699,11.04-6.65,14.378-11.867c0.839-1.058,1.569-2.237,2.207-3.6c0.608-1.35,1.119-2.541,1.557-3.599
	c0.82-2.286,1.557-4.317,2.177-6.092c0.626-1.775,2.079-3.174,4.383-4.22c1.867-0.827,4.895-1.191,9.054-1.095
	c4.17,0.109,7.617,0.158,10.323,0.158c1.471,0,2.973-0.049,4.541-0.158c1.557-0.097,2.852,0.062,3.897,0.475h2.505
	c0.833,0.207,1.666,0.364,2.505,0.45c0.833,0.121,1.453,0.389,1.879,0.79c1.033,0.839,1.721,2.043,2.03,3.6
	c0.311,1.568,0.262,3.186-0.164,4.852c-1.866,6.857-4.171,13.022-6.87,18.434c-8.555,16.062-22.203,27.201-40.953,33.463
	c-2.079,0.608-4.274,1.095-6.566,1.41c-2.298,0.305-4.59,0.767-6.882,1.398c-1.247,0.207-2.505,0.316-3.752,0.316
	c-1.252,0-2.486,0.085-3.745,0.304h-3.435c-1.046,0.426-2.614,0.584-4.693,0.475c-2.08-0.109-3.648-0.255-4.694-0.475
	c-1.672-0.413-3.18-0.571-4.535-0.462s-2.748-0.061-4.22-0.462c-1.033-0.219-2.079-0.377-3.125-0.475
	c-1.033-0.109-2.079-0.267-3.112-0.474c-2.305-0.62-4.499-1.253-6.591-1.873c-2.079-0.632-4.055-1.35-5.922-2.188
	c-9.801-4.183-18.045-9.533-24.708-16.099c-6.669-6.566-12.087-14.75-16.245-24.538c-1.046-1.897-1.885-3.916-2.517-6.104
	c-0.608-2.188-1.247-4.426-1.867-6.725c-0.213-0.826-0.31-1.604-0.31-2.334c0-0.742-0.213-1.617-0.626-2.663
	c-0.42-1.459-0.62-2.967-0.62-4.535c0-1.557-0.226-3.064-0.639-4.536v-5.302c-0.407-1.045-0.62-2.237-0.62-3.599
	c0-1.35,0.213-2.554,0.62-3.6c0.213-1.046,0.213-1.981,0-2.809c-0.194-0.839-0.194-1.666,0-2.505
	c0.413-1.459,0.577-2.809,0.475-4.062c-0.098-1.252,0.048-2.505,0.462-3.757c1.045-3.745,1.878-7.345,2.517-10.786
	c0.608-3.44,1.557-6.821,2.797-10.153c4.584-10.627,10.372-19.491,17.357-26.58c6.974-7.077,15.893-12.816,26.721-17.193
	c2.931-1.253,5.952-2.128,9.077-2.651c3.125-0.522,6.365-1.204,9.691-2.043c1.666-0.194,3.234-0.304,4.693-0.304
	C592.818,1051.554,594.387,1051.456,596.059,1051.237"/>
<path d="M829.455,1134.7c0.407,1.679,0.407,3.551,0,5.643c-0.426,2.079-1.149,3.441-2.195,4.062
	c-1.046,0.826-2.554,1.41-4.518,1.727c-2.006,0.304-4.17,0.498-6.578,0.62c-2.401,0.109-4.791,0.109-7.192,0
	c-2.396-0.122-4.535-0.158-6.414-0.158h-76.276h-4.22c-1.361,0-2.541,0.207-3.587,0.62c-1.685,0.839-2.718,1.678-3.125,2.505
	c-0.438,0.426-0.852,1.204-1.259,2.347c-0.426,1.143-0.522,2.237-0.31,3.283c0.407,1.24,0.669,2.444,0.771,3.587
	c0.109,1.155,0.359,2.347,0.797,3.6c1.653,4.997,3.685,9.119,6.086,12.342c2.39,3.246,5.679,6.104,9.849,8.608
	c1.673,1.046,3.387,1.715,5.156,2.031c1.781,0.304,3.599,0.778,5.466,1.398c1.672,0.425,3.97,0.741,6.888,0.948
	c2.925,0.207,5.43,0.109,7.509-0.316h2.797c2.079-0.413,4.024-0.888,5.794-1.41c1.77-0.511,3.483-1.095,5.155-1.715
	c2.08-1.046,4.433-2.396,7.047-4.049c2.603-1.678,4.529-3.344,5.764-5.022c1.046-1.459,2.14-2.857,3.289-4.219
	c1.143-1.35,2.548-2.347,4.22-2.967c2.079-1.046,4.742-1.508,7.982-1.411c3.223,0.109,6.201,0.158,8.9,0.158
	c1.259,0,2.554-0.049,3.91-0.158c1.343-0.097,2.553,0.062,3.599,0.475h3.125c2.079,0.413,3.538,0.937,4.384,1.557
	c0.82,0.425,1.295,1.361,1.393,2.82c0.115,1.46-0.049,2.7-0.463,3.745c-1.045,2.919-2.188,5.521-3.447,7.819
	c-1.246,2.298-2.699,4.584-4.371,6.882c-4.578,6.87-9.794,12.403-15.625,16.562c-5.837,4.171-13.139,7.709-21.887,10.627
	c-2.292,0.84-4.584,1.362-6.889,1.569c-2.28,0.206-4.682,0.632-7.187,1.252c-0.833,0.207-1.714,0.243-2.663,0.146
	c-0.93-0.098-1.817-0.049-2.65,0.157h-3.436c-1.045,0.426-2.243,0.584-3.587,0.475c-1.355-0.109-2.565-0.255-3.599-0.475
	c-1.666-0.206-3.125-0.206-4.384,0c-1.246,0.22-2.614,0.109-4.062-0.304c-1.058-0.426-2.188-0.62-3.435-0.62
	c-1.259,0-2.414-0.219-3.447-0.632c-2.292-0.426-4.584-0.888-6.877-1.411c-2.285-0.511-4.377-1.301-6.25-2.347
	c-2.304-0.827-4.432-1.617-6.407-2.347c-1.982-0.729-3.812-1.605-5.466-2.65c-6.676-4.171-12.616-9.011-17.82-14.543
	c-5.216-5.509-9.502-11.929-12.828-19.212c-1.046-2.299-1.879-4.646-2.499-7.041c-0.626-2.396-1.471-4.852-2.505-7.344
	c-0.2-0.839-0.31-1.617-0.31-2.359c0-0.718-0.098-1.508-0.298-2.335c-0.846-2.505-1.374-5.204-1.568-8.135
	c-0.213-2.905-0.426-5.824-0.627-8.742c0-1.046-0.061-2.188-0.158-3.441c-0.115-1.252-0.066-2.396,0.158-3.441v-3.757l0.937-7.503
	c0.82-3.538,1.557-6.979,2.188-10.311c0.627-3.332,1.557-6.457,2.803-9.375c8.968-21.681,24.18-36.989,45.647-45.963
	c2.924-1.253,5.891-2.128,8.919-2.651c3.01-0.522,6.183-1.204,9.533-2.043c1.672-0.194,3.229-0.304,4.693-0.304
	c1.447,0,3.016-0.098,4.682-0.316c10.621-0.206,19.753,0.997,27.358,3.6c7.594,2.602,14.415,5.994,20.483,10.153
	c1.866,1.252,3.732,2.663,5.63,4.219c1.866,1.569,3.532,3.187,4.991,4.853c0.62,1.045,1.453,1.872,2.499,2.505
	c1.672,2.285,3.24,4.632,4.699,7.027c1.441,2.396,3.01,4.852,4.682,7.345c1.046,1.885,1.915,3.794,2.663,5.788
	c0.724,1.981,1.508,4.109,2.341,6.408c1.045,2.711,1.878,5.521,2.505,8.438c0.62,2.918,1.343,5.837,2.176,8.755
	c0.426,1.678,0.572,3.478,0.486,5.472c-0.115,1.982,0.037,3.806,0.463,5.472V1134.7z M782.562,1116.267
	c1.44-2.091,1.604-4.633,0.462-7.66c-1.149-3.016-2.03-5.266-2.657-6.725c-2.924-5.617-6.772-9.946-11.551-12.974
	c-4.81-3.016-11.479-4.633-20.021-4.84c-0.638,0.413-1.361,0.522-2.194,0.304c-0.833-0.194-1.557-0.194-2.177,0
	c-1.046,0.426-2.194,0.682-3.453,0.791c-1.24,0.109-2.39,0.353-3.436,0.766c-9.162,2.931-15.935,8.657-20.318,17.206
	c-0.426,0.839-0.888,1.934-1.392,3.283c-0.523,1.361-0.912,2.711-1.113,4.061c-0.213,1.362-0.158,2.663,0.164,3.916
	c0.311,1.252,0.985,2.298,2.031,3.125c1.653,1.046,3.958,1.556,6.87,1.556h8.444h34.703c2.925,0,6.001-0.048,9.224-0.157
	C779.376,1118.82,781.516,1117.933,782.562,1116.267"/>
<path d="M891.256,1051.237c15.637-0.413,29.237,1.302,40.789,5.156c11.582,3.866,20.386,10.481,26.423,19.856
	c1.471,2.298,2.766,4.633,3.921,7.028c1.131,2.407,2.128,5.058,2.961,7.977c0.413,1.24,0.626,2.614,0.626,4.062
	c0,1.459-0.213,2.711-0.626,3.757c-0.833,1.252-1.988,2.079-3.435,2.505c-1.046,0.413-2.305,0.62-3.745,0.62h-4.384h-13.759
	c-1.459,0-2.912,0.049-4.384,0.146c-1.459,0.122-2.803-0.048-4.061-0.462c-2.092-0.413-3.648-1.252-4.694-2.492
	c-1.045-1.253-1.976-2.554-2.803-3.916c-0.833-1.35-1.617-2.809-2.353-4.377c-0.718-1.557-1.817-2.857-3.271-3.903
	c-2.08-1.678-4.122-2.918-6.104-3.757c-1.976-0.827-4.432-1.557-7.345-2.189c-1.471-0.413-3.599-0.717-6.401-0.936
	c-2.827-0.207-4.968-0.098-6.414,0.315h-2.189c-1.058,0.207-2.03,0.365-2.96,0.462c-0.949,0.109-1.946,0.268-2.979,0.475
	c-3.551,1.046-6.414,2.456-8.603,4.231c-2.177,1.764-3.697,4.414-4.536,7.965c-0.407,1.459-0.407,2.809,0,4.061
	c0.414,1.253,0.839,2.299,1.259,3.125c1.459,2.505,3.18,4.487,5.155,5.946c1.982,1.459,4.323,2.699,7.034,3.745
	c3.965,1.666,8.281,3.076,12.975,4.22c4.682,1.155,9.49,2.188,14.385,3.125s9.697,1.994,14.379,3.125
	c4.693,1.155,9.113,2.541,13.284,4.231c1.885,0.827,3.702,1.508,5.483,2.019c1.751,0.535,3.484,1.313,5.15,2.347
	c3.951,2.505,7.551,5.217,10.785,8.135c3.234,2.906,5.788,6.554,7.66,10.943c0.62,1.459,1.144,2.919,1.557,4.365
	c0.42,1.472,0.845,3.04,1.253,4.693c0.2,1.253,0.364,3.187,0.474,5.788c0.115,2.614,0.049,4.657-0.158,6.092v1.569
	c-0.413,1.252-0.687,2.456-0.771,3.587c-0.116,1.155-0.273,2.249-0.486,3.295c-1.46,6.25-3.739,11.771-6.877,16.573
	c-3.338,4.985-7.393,9.06-12.189,12.185c-4.791,3.125-10.221,5.836-16.245,8.122c-2.305,1.046-4.748,1.775-7.362,2.188
	c-2.603,0.414-5.156,0.937-7.655,1.569c-1.885,0.413-3.8,0.668-5.781,0.777c-1.988,0.11-3.909,0.365-5.788,0.778h-5.63
	c-1.24,0.426-3.387,0.633-6.408,0.633c-3.016,0-5.155-0.207-6.402-0.633c-0.62,0-1.307-0.048-2.03-0.157
	c-0.735-0.098-1.52-0.146-2.341-0.146c-2.499-0.413-5.016-0.729-7.521-0.948c-2.486-0.207-4.882-0.62-7.187-1.24
	c-8.116-2.298-15.297-4.949-21.564-7.977c-6.25-3.016-11.564-7.552-15.947-13.595c-2.912-3.952-5.417-8.548-7.497-13.752
	c-0.425-1.253-0.832-2.919-1.258-5.01c-0.407-1.034-0.724-2.505-0.931-4.378c-0.213-1.872-0.115-3.441,0.311-4.682
	c0.62-1.459,1.653-2.505,3.137-3.125c1.021-0.425,2.28-0.632,3.733-0.632h4.693h14.694h5.004c1.672,0,3.125,0.207,4.371,0.632
	c2.293,0.827,3.812,2.177,4.536,4.062c0.729,1.873,1.617,3.854,2.663,5.934c0.407,1.046,1.21,2.396,2.341,4.062
	c1.143,1.678,2.128,2.724,2.973,3.138c2.505,2.079,4.895,3.696,7.187,4.839c2.292,1.144,5.204,2.237,8.755,3.283
	c1.045,0.413,2.091,0.571,3.125,0.475c1.045-0.109,2.091-0.062,3.125,0.146c1.666,0.426,3.483,0.584,5.466,0.475
	c1.994-0.098,3.696-0.365,5.167-0.791c1.046-0.194,2.031-0.304,2.974-0.304c0.937,0,1.921-0.207,2.967-0.632
	c2.912-1.046,5.562-2.286,7.982-3.745c2.377-1.46,4.316-3.332,5.764-5.63c1.046-1.666,1.891-4.269,2.511-7.819
	c0.414-1.446,0.414-2.809,0-4.061c-0.407-1.253-0.845-2.286-1.252-3.138c-1.459-2.906-3.289-5.095-5.466-6.554
	c-2.194-1.447-4.748-2.809-7.673-4.062c-3.958-1.666-8.116-3.016-12.487-4.062c-4.384-1.045-8.768-2.188-13.139-3.453
	c-1.666-0.401-3.398-0.717-5.155-0.924c-1.782-0.207-3.484-0.522-5.156-0.937c-6.669-1.872-13.035-3.708-19.072-5.483
	c-6.049-1.764-11.569-4.414-16.585-7.965c-5.812-4.171-10.099-9.801-12.799-16.901c-0.425-1.436-0.839-3.417-1.246-5.922
	c-0.438-1.447-0.748-3.223-0.948-5.314c-0.213-2.079-0.098-3.951,0.31-5.629c0.414-1.034,0.523-1.922,0.316-2.651
	c-0.213-0.729-0.115-1.617,0.322-2.663c0.407-2.286,0.869-4.426,1.393-6.408c0.522-1.981,1.21-3.902,2.043-5.787
	c2.699-6.031,6.45-10.932,11.241-14.689c4.797-3.757,10.227-6.772,16.264-9.059c2.279-1.046,4.693-1.836,7.186-2.347
	c2.499-0.523,5.102-1.095,7.819-1.727c1.258-0.414,2.505-0.669,3.757-0.778c1.234-0.098,2.493-0.256,3.739-0.475
	c1.666-0.194,3.447-0.304,5.313-0.304C887.833,1051.554,889.584,1051.456,891.256,1051.237"/>
<path d="M980.021,994.343h21.248h6.104c1.982,0,3.6,0.523,4.852,1.557c1.447,0.833,2.396,2.614,2.821,5.313
	c0,1.046,0.036,2.031,0.146,2.979c0.098,0.937,0.171,1.921,0.171,2.967v11.26v35.943c0,1.459-0.073,3.125-0.171,5.01
	c-0.109,1.873-0.061,3.696,0.171,5.46c0.194,1.775,0.668,3.246,1.397,4.377c0.73,1.155,1.824,1.728,3.283,1.728
	c0.401-0.414,0.827-0.621,1.24-0.621c0.426,0,0.852-0.219,1.253-0.632c1.459-1.046,2.821-2.237,4.062-3.6
	c1.265-1.35,2.711-2.541,4.39-3.599c2.285-1.654,4.693-3.113,7.198-4.365c2.48-1.253,5.204-2.505,8.11-3.758
	c0.851-0.413,1.666-0.62,2.505-0.62s1.763-0.206,2.809-0.632c2.079-0.62,4.28-1.034,6.566-1.253
	c2.286-0.182,4.791-0.304,7.515-0.304h2.954c0.937,0,1.922,0.122,2.979,0.304h1.885c1.447,0.219,2.857,0.426,4.22,0.633
	c1.35,0.206,2.748,0.413,4.219,0.62c3.539,1.046,6.81,2.14,9.85,3.283c3.016,1.155,5.97,2.565,8.9,4.231
	c4.584,2.918,8.281,6.614,11.09,11.089c2.833,4.487,5.168,9.437,7.04,14.848c0.426,1.678,0.778,3.392,1.095,5.167
	c0.316,1.764,0.681,3.49,1.095,5.156c0.413,1.872,0.62,3.854,0.62,5.934c0,2.092,0.219,4.171,0.644,6.262v3.43
	c0.401,1.666,0.511,3.502,0.292,5.472c-0.194,1.994-0.292,3.806-0.292,5.472v22.203v48.76c0,3.562,0.098,7.308,0.292,11.26
	c0.219,3.964-0.511,6.979-2.188,9.071c-1.033,1.252-2.699,1.921-4.997,2.03c-2.286,0.109-4.572,0.158-6.87,0.158h-15.638
	c-3.332,0-6.152-0.158-8.427-0.475c-2.311-0.315-3.976-1.604-5.021-3.902c-0.608-1.253-0.937-2.772-0.937-4.536v-5.155v-17.826
	v-50.012c0-8.755-0.413-16.829-1.24-24.246c-0.852-7.381-3.441-13.169-7.807-17.34c-2.942-2.918-6.48-4.998-10.64-6.25
	c-0.826-0.207-1.52-0.316-2.043-0.316c-0.51,0-1.203-0.097-2.018-0.315c-0.84-0.195-1.934-0.414-3.296-0.62
	c-1.337-0.207-2.443-0.11-3.271,0.315c-1.265,0.207-2.565,0.305-3.916,0.305c-1.35,0-2.65,0.219-3.891,0.632
	c-4.815,1.252-8.986,3.125-12.512,5.63c-3.77,2.931-6.53,6.821-8.281,11.722c-1.787,4.889-2.979,10.433-3.599,16.562
	c-0.62,6.152-0.9,12.67-0.791,19.54c0.098,6.883,0.171,13.558,0.171,20.015v37.828v8.597c0,3.016-0.523,5.363-1.581,7.041
	c-0.62,0.827-1.447,1.398-2.493,1.714c-1.045,0.305-2.079,0.669-3.112,1.095c-1.265,0.413-2.663,0.511-4.231,0.304
	c-1.557-0.206-3.076-0.304-4.536-0.304c-1.885,0-4.073,0.049-6.565,0.158c-2.499,0.098-5.004,0.146-7.509,0.146
	c-2.486,0-4.791-0.146-6.883-0.462c-2.079-0.316-3.636-0.888-4.681-1.727c-1.259-1.033-1.934-2.65-2.031-4.84
	c-0.115-2.188-0.164-4.426-0.164-6.724v-27.809V1058.12v-42.522c0-2.699-0.097-5.945-0.31-9.69
	c-0.213-3.758,0.213-6.457,1.246-8.129c1.259-1.453,2.925-2.499,5.016-3.138c0.413-0.182,0.821-0.249,1.234-0.134
	C979.199,994.593,979.606,994.556,980.021,994.343"/>
<path d="M1177.753,996.21c1.459,1.672,2.188,4.177,2.188,7.508v9.691v8.438c0,2.931-0.729,4.889-2.188,5.946
	c-1.229,1.046-2.857,1.666-4.84,1.873c-1.994,0.206-4.122,0.315-6.42,0.315h-17.485c-2.311,0-4.342-0.109-6.104-0.315
	c-1.763-0.207-3.283-0.827-4.535-1.873c-0.827-0.632-1.398-1.824-1.727-3.6c-0.316-1.763-0.523-3.757-0.608-5.945
	c-0.122-2.189-0.122-4.414,0-6.712c0.085-2.299,0.146-4.269,0.146-5.946c0-1.666,0.049-3.174,0.146-4.535
	c0.121-1.344,0.474-2.542,1.094-3.588c0.426-0.833,0.997-1.453,1.739-1.878c0.718-0.426,1.508-0.833,2.335-1.247
	c0.413,0,0.936-0.048,1.556-0.164c0.633-0.109,1.144-0.146,1.557-0.146h22.823c2.092,0,4.074,0.097,5.959,0.31
	C1175.26,994.544,1176.707,995.164,1177.753,996.21 M1179.941,1199.729c0,4.184-0.109,7.722-0.304,10.64
	c-0.22,2.919-2.08,4.9-5.63,5.935c-1.24,0.425-2.614,0.583-4.074,0.474c-1.459-0.109-3.016-0.158-4.681-0.158h-17.51
	c-1.86,0-3.709-0.109-5.46-0.315c-1.787-0.207-3.076-0.827-3.915-1.873c-1.24-1.459-1.922-3.283-2.043-5.472
	c-0.098-2.177-0.146-4.535-0.146-7.04V1070v-6.263c0-2.079,0.426-3.745,1.24-4.997c1.265-1.447,3.028-2.396,5.339-2.809
	c0.4-0.207,0.984-0.268,1.702-0.158c0.729,0.097,1.301,0.048,1.714-0.158h15.638c1.265,0,2.675-0.049,4.231-0.158
	s2.857-0.049,3.891,0.158h2.505c1.253,0.426,2.408,0.729,3.454,0.937c1.045,0.206,1.86,0.839,2.492,1.872
	c0.827,1.046,1.301,2.505,1.41,4.378c0.098,1.885,0.146,3.866,0.146,5.934V1199.729z"/>
<path d="M1354.893,1134.396c0.231,1.24,0.316,3.125,0.316,5.63s-0.194,4.269-0.608,5.313v4.062c-0.62,2.299-0.997,4.487-1.094,6.566
	c-0.122,2.092-0.475,4.171-1.106,6.25c-0.414,1.872-0.84,3.806-1.253,5.788c-0.426,1.981-1.046,3.903-1.86,5.788
	c-1.459,3.538-2.931,6.821-4.401,9.837c-1.447,3.027-3.113,5.994-4.998,8.925c-1.252,1.86-2.541,3.587-3.903,5.155
	c-1.361,1.557-2.869,3.174-4.535,4.84l-2.188,2.188c-1.046,1.046-2.141,1.97-3.271,2.81c-1.155,0.839-2.249,1.678-3.295,2.505
	c-1.666,1.252-3.478,2.347-5.46,3.282c-1.994,0.937-4.024,1.934-6.104,2.968c-2.092,1.045-4.22,1.775-6.396,2.188
	c-2.2,0.413-4.438,0.839-6.724,1.252c-1.265,0.414-2.566,0.62-3.916,0.62s-2.772,0.22-4.219,0.633h-2.81
	c-1.678,0.413-3.246,0.413-4.693,0h-3.125c-1.252-0.413-2.554-0.584-3.915-0.475c-1.362,0.109-2.663-0.049-3.892-0.462
	c-3.344-1.046-6.529-1.981-9.557-2.821c-3.016-0.826-5.788-2.079-8.281-3.745c-1.459-0.839-2.809-1.727-4.062-2.662
	c-1.24-0.937-2.614-1.922-4.061-2.968c-0.827-0.632-2.092-1.556-3.758-2.809c-1.678-1.252-3.125-1.35-4.365-0.316
	c-1.046,0.62-1.557,1.398-1.557,2.347c0,0.937-0.219,2.031-0.632,3.283c-0.413,2.08-0.584,4.487-0.462,7.187
	c0.097,2.712,0.134,5.204,0.134,7.503v31.882c0,2.724-0.037,5.375-0.134,7.989c-0.122,2.59-0.693,4.729-1.727,6.396
	c-0.633,0.827-1.788,1.459-3.441,1.885c-1.666,0.413-3.538,0.669-5.63,0.778c-2.092,0.098-4.183,0.098-6.25,0
	c-2.079-0.109-3.867-0.158-5.313-0.158h-8.451h-2.188c-0.814,0-1.557-0.109-2.188-0.316h-2.493c-3.551-1.046-5.411-3.076-5.63-6.104
	c-0.194-3.016-0.304-6.603-0.304-10.773v-183.512c0-2.286-0.062-4.742-0.171-7.345c-0.109-2.614,0.365-4.645,1.411-6.104
	c0.839-1.46,1.981-2.384,3.453-2.81c1.033-0.413,2.335-0.632,3.891-0.632h4.536h15.005h5.934c1.873,0,3.441,0.522,4.693,1.568
	c1.459,1.046,2.25,2.347,2.359,3.903c0.085,1.568,0.56,3.186,1.41,4.852c0.194,0.62,0.45,1.095,0.767,1.41
	c0.328,0.305,0.668,0.669,1.094,1.095c2.299,0.207,4.171-0.426,5.63-1.885c1.459-1.447,2.931-2.699,4.378-3.745
	c2.711-1.885,5.521-3.6,8.45-5.155c2.906-1.569,6.141-2.87,9.68-3.916c1.678-0.62,3.489-1.046,5.472-1.252
	c1.994-0.207,3.915-0.511,5.775-0.937c0.852-0.207,1.727-0.207,2.663,0c0.937,0.219,1.727,0.109,2.359-0.316
	c11.88-0.401,21.923,1.204,30.167,4.852c8.232,3.648,15.248,8.391,21.098,14.228c1.045,1.045,1.97,2.03,2.809,2.979
	c0.839,0.924,1.666,1.921,2.505,2.955c1.459,1.885,2.76,3.757,3.903,5.63c1.155,1.872,2.237,3.757,3.295,5.63
	c0.401,0.426,0.656,0.937,0.766,1.568c0.098,0.62,0.377,1.35,0.791,2.177c1.24,2.091,2.383,4.596,3.429,7.515
	c0.413,1.24,0.827,2.541,1.265,3.891c0.413,1.374,0.814,2.772,1.24,4.231c0.839,2.505,1.41,5.107,1.715,7.807
	c0.315,2.724,0.778,5.532,1.41,8.451c0,1.046,0.049,2.188,0.158,3.44c0.109,1.253,0.255,2.493,0.462,3.745V1134.396z
	 M1310.814,1141.595c0.219-1.045,0.316-2.456,0.316-4.231c0-1.763-0.098-3.173-0.316-4.219v-2.81
	c-0.401-1.252-0.62-2.614-0.62-4.061c0-1.459-0.207-2.919-0.633-4.378c-0.413-2.079-0.826-4.109-1.24-6.104
	c-0.413-1.971-1.033-3.794-1.885-5.473c-2.492-6.663-5.727-11.977-9.69-15.94c-3.952-3.952-9.57-6.883-16.865-8.755
	c-1.666-0.414-3.502-0.62-5.484-0.62h-5.775c-0.852,0.206-1.569,0.304-2.201,0.304c-0.608,0-1.362,0.109-2.177,0.316
	c-1.459,0.426-2.882,0.778-4.231,1.094c-1.35,0.316-2.663,0.778-3.915,1.411c-5.399,2.298-9.631,5.836-12.634,10.627
	c-3.028,4.804-5.484,10.117-7.369,15.941c-0.401,1.678-0.729,3.393-0.924,5.155c-0.219,1.764-0.522,3.502-0.937,5.168
	c-0.219,0.827-0.328,2.188-0.328,4.062c-0.413,0.839-0.511,1.824-0.292,2.967c0.194,1.155,0.194,2.25,0,3.283
	c-0.426,1.252-0.426,2.396,0,3.441v3.757v2.809c0,0.84,0.194,1.666,0.62,2.505c0,1.46,0.098,2.603,0.304,3.43
	c0.22,1.252,0.414,2.505,0.633,3.757c0.194,1.253,0.522,2.505,0.924,3.745c1.885,6.056,4.122,11.005,6.725,14.859
	c2.602,3.854,6.299,7.247,11.113,10.165c2.906,1.666,6.336,3.016,10.312,4.062c0.814,0.207,1.568,0.255,2.177,0.158
	c0.632-0.109,1.35-0.049,2.201,0.146c0.839,0.207,2.079,0.365,3.745,0.475c1.678,0.109,3.016,0.049,4.061-0.158
	c1.666-0.413,3.393-0.778,5.168-1.095c1.764-0.315,3.49-0.778,5.156-1.41c5.01-2.092,9.083-4.998,12.195-8.755
	c3.125-3.745,5.739-8.123,7.819-13.133c1.045-2.492,1.751-5.106,2.188-7.806c0.413-2.712,0.937-5.521,1.568-8.439
	c0-1.045,0.036-2.091,0.134-3.137C1310.766,1143.675,1310.814,1142.629,1310.814,1141.595"/>
<path d="M1368.001,994.027h26.58c2.274,0,4.523,0.048,6.725,0.164c2.188,0.097,3.794,0.881,4.84,2.341
	c1.033,1.453,1.556,3.386,1.556,5.775v7.66v28.454v94.723v18.445c0,1.679-0.048,3.283-0.146,4.853
	c-0.122,1.556,0.049,3.076,0.475,4.522v3.125c0,1.472,0.048,2.87,0.146,4.232c0.098,1.361,0.365,2.553,0.766,3.587
	c1.46,2.711,4.402,4.073,8.768,4.073h12.816h60.651c1.653,0,3.745-0.061,6.263-0.158c2.492-0.109,4.876-0.109,7.186,0
	c2.274,0.098,4.414,0.365,6.396,0.778c1.994,0.426,3.283,1.046,3.927,1.872c1.034,1.253,1.557,2.821,1.557,4.694v5.945v14.373
	c0,1.678,0.049,3.234,0.146,4.682c0.097,1.471-0.049,2.724-0.462,3.757c-0.852,1.678-1.885,2.821-3.138,3.441
	c-1.046,0.839-2.603,1.252-4.682,1.252h-5.934h-22.191h-84.739h-22.508c-2.931,0-5.459-0.158-7.66-0.474
	c-2.188-0.305-3.806-1.289-4.852-2.955c-0.827-1.265-1.229-2.869-1.229-4.852v-5.788v-21.887v-82.844v-70.658v-19.687
	c0-1.885,0.037-3.758,0.146-5.63c0.097-1.866,0.474-3.338,1.082-4.384c0.839-1.453,2.517-2.499,5.021-3.125
	c0.401-0.194,0.814-0.262,1.24-0.146C1367.162,994.288,1367.587,994.24,1368.001,994.027"/>
<path d="M1661.24,1204.424c0.426,2.298,0.669,4.584,0.778,6.882s-0.985,3.854-3.283,4.693c-1.24,0.62-2.712,0.937-4.365,0.937
	h-5.022h-16.865c-1.885,0-3.708-0.049-5.483-0.158c-1.764-0.109-3.174-0.583-4.207-1.41c-1.472-0.827-2.566-2.031-3.296-3.6
	c-0.729-1.557-1.714-2.857-2.954-3.903c-0.438-0.413-0.949-0.778-1.557-1.094c-0.633-0.316-1.483-0.353-2.518-0.158
	c-1.045,0.426-2.03,0.937-2.967,1.557c-0.936,0.632-1.921,1.155-2.967,1.568c-1.058,0.839-2.201,1.568-3.441,2.188
	c-1.252,0.633-2.505,1.265-3.745,1.885c-2.724,1.24-5.532,2.237-8.45,2.967c-2.906,0.718-5.946,1.521-9.071,2.347
	c-1.459,0.414-2.857,0.669-4.207,0.778c-1.362,0.109-2.785,0.256-4.22,0.45c-0.632,0-1.265,0.061-1.885,0.17
	s-1.24,0.158-1.885,0.158h-3.417c-2.091,0.413-4.17,0.413-6.262,0h-2.821c-1.459-0.413-2.857-0.571-4.219-0.474
	c-1.35,0.109-2.663-0.049-3.892-0.463c-2.091-0.425-4.073-0.778-5.958-1.094c-1.86-0.305-3.647-0.9-5.313-1.715
	c-6.044-2.298-11.211-5.265-15.479-8.913c-4.256-3.647-7.66-8.487-10.153-14.543c-0.62-1.446-1.203-3.016-1.727-4.681
	c-0.511-1.666-0.984-3.441-1.386-5.326c-0.426-1.033-0.596-2.067-0.462-3.113c0.097-1.045,0.036-2.091-0.183-3.137
	c-0.207-0.62-0.353-1.921-0.462-3.903s-0.062-3.393,0.17-4.22c0.389-2.079,0.608-3.854,0.608-5.313
	c0.62-2.298,1.252-4.633,1.885-7.028c0.632-2.396,1.446-4.548,2.492-6.42c3.538-6.043,7.6-10.628,12.208-13.753
	c4.572-3.125,10.396-5.836,17.51-8.122c2.699-1.046,5.496-1.775,8.427-2.188c2.918-0.426,5.837-0.937,8.755-1.569
	c1.666-0.413,3.429-0.668,5.313-0.777s3.745-0.365,5.63-0.778c1.459-0.426,2.906-0.584,4.365-0.475s3.028-0.049,4.694-0.475
	c1.446-0.4,2.918-0.62,4.389-0.62c1.46,0,3.016-0.206,4.694-0.62c4.353-1.045,8.378-1.933,12.025-2.662
	c3.636-0.729,6.919-2.554,9.837-5.473c1.885-1.872,3.138-3.951,3.758-6.25c0.219-0.632,0.268-1.143,0.158-1.568
	c-0.109-0.413-0.049-0.826,0.17-1.24c0.183-0.426,0.292-1.046,0.292-1.885v-1.872c-0.207-0.827-0.353-1.666-0.462-2.505
	c-0.109-0.827-0.268-1.557-0.463-2.188c-2.091-6.25-6.469-10.519-13.145-12.816c-1.86-0.62-4.109-1.095-6.712-1.411
	c-2.614-0.304-5.265-0.413-7.977-0.304c-2.699,0.098-5.302,0.365-7.818,0.778c-2.493,0.426-4.682,0.937-6.566,1.568
	c-1.24,0.414-2.432,0.985-3.599,1.715c-1.144,0.729-2.237,1.52-3.271,2.347c-1.046,0.839-2.14,1.982-3.271,3.429
	c-1.168,1.472-1.945,2.821-2.359,4.073c-1.046,2.08-1.934,4.062-2.663,5.935c-0.717,1.885-2.225,3.137-4.535,3.757
	c-1.666,0.414-3.417,0.62-5.313,0.62h-5.63h-11.88c-1.034,0-2.079,0.062-3.125,0.158c-1.034,0.109-1.97,0.061-2.797-0.158h-2.821
	c-0.413-0.206-0.924-0.315-1.568-0.315c-0.62,0-1.143-0.207-1.557-0.621c-1.678-0.413-2.82-1.774-3.44-4.061
	c-0.22-1.059-0.22-2.092,0-3.113c0.194-1.058,0.425-1.994,0.62-2.833c0.632-2.286,1.301-4.426,2.042-6.408
	c0.718-1.97,1.605-3.794,2.639-5.472c0.633-1.033,1.265-2.079,1.897-3.125c0.62-1.033,1.24-2.079,1.86-3.125
	c1.666-2.286,3.757-4.475,6.25-6.566c0.426-0.194,1.046-0.729,1.885-1.556c1.033-0.84,1.981-1.569,2.821-2.189
	c0.814-0.632,1.763-1.252,2.809-1.885c3.551-2.286,7.296-4.109,11.247-5.459c3.952-1.362,8.025-2.663,12.185-3.916
	c2.528-0.62,5.131-1.046,7.83-1.252c2.699-0.207,5.411-0.62,8.135-1.253c0.814-0.194,2.141-0.194,3.892,0
	c1.787,0.219,2.882,0.109,3.295-0.304c8.536-0.207,16.731,0.109,24.55,0.937c7.795,0.826,14.896,2.396,21.255,4.693
	c6.348,2.286,11.819,5.362,16.403,9.217s8.135,8.804,10.628,14.847c1.471,3.551,2.286,7.612,2.517,12.196
	c0.194,4.584,0.304,9.277,0.304,14.068v69.711v12.05c0,4.062,0.401,7.758,1.253,11.09c0.194,0.62,0.304,1.301,0.304,2.03
	S1661.033,1203.804,1661.24,1204.424 M1615.277,1156.284c0.219-1.046,0.315-2.237,0.315-3.6c0-1.35-0.097-2.541-0.315-3.6
	c-0.401-1.24-0.62-2.383-0.62-3.44c0-1.034-0.426-1.86-1.24-2.493c-1.046-0.826-2.603-1.252-4.694-1.252
	c-0.839,0.219-1.556,0.364-2.188,0.474c-0.632,0.098-1.361,0.256-2.201,0.462c-1.459,0.426-3.015,0.73-4.681,0.949
	c-1.666,0.206-3.332,0.511-4.998,0.924c-0.632,0.219-1.568,0.316-2.821,0.316c-2.711,0.62-5.41,1.046-8.122,1.252
	c-2.724,0.219-5.326,0.729-7.831,1.568c-1.666,0.414-3.222,0.778-4.681,1.095c-1.447,0.304-2.919,0.778-4.366,1.398
	c-4.377,1.872-8.086,4.693-11.102,8.438c-3.027,3.758-4.109,8.974-3.295,15.638c0.413,3.538,1.568,6.469,3.441,8.755
	c1.471,2.298,3.647,4.122,6.578,5.472c2.906,1.361,6.08,2.334,9.521,2.967c3.454,0.632,7.102,0.778,10.944,0.474
	c3.854-0.315,7.453-0.997,10.797-2.03c5.411-1.678,9.68-4.329,12.816-7.977c3.125-3.647,5.521-8.184,7.187-13.582
	c0.413-1.472,0.681-2.991,0.79-4.548c0.085-1.568,0.365-3.186,0.767-4.852V1156.284z"/>
<path d="M1833.188,1142.094c-0.219,1.24-0.377,2.492-0.475,3.745c-0.098,1.252-0.158,2.396-0.158,3.441
	c-0.632,2.918-1.094,5.739-1.398,8.438c-0.328,2.712-0.899,5.313-1.738,7.818c-0.401,1.459-0.814,2.857-1.24,4.22
	c-0.426,1.361-0.839,2.663-1.24,3.915c-1.046,2.906-2.201,5.411-3.453,7.503c-0.414,0.826-0.669,1.556-0.778,2.188
	c-0.109,0.62-0.353,1.131-0.791,1.557c-1.033,1.885-2.128,3.757-3.259,5.63c-1.167,1.86-2.468,3.745-3.927,5.617
	c-0.815,1.046-1.666,2.043-2.493,2.979s-1.763,1.921-2.821,2.967c-5.824,5.837-12.864,10.566-21.097,14.227
	c-8.244,3.636-18.288,5.265-30.168,4.84c-0.62-0.414-1.41-0.523-2.334-0.305c-0.937,0.207-1.849,0.207-2.676,0
	c-1.86-0.425-3.806-0.729-5.775-0.936c-1.982-0.207-3.806-0.633-5.46-1.253c-3.562-1.046-6.785-2.347-9.703-3.915
	c-2.931-1.557-5.739-3.283-8.438-5.156c-1.459-1.045-2.931-2.298-4.378-3.745c-1.471-1.459-3.344-2.091-5.63-1.885
	c-0.401,0.426-0.778,0.791-1.094,1.106c-0.305,0.305-0.571,0.778-0.778,1.398c-0.839,1.666-1.313,3.283-1.411,4.852
	c-0.109,1.557-0.887,2.858-2.334,3.903c-1.265,1.046-2.821,1.557-4.693,1.557h-5.946h-15.005h-4.535c-1.569,0-2.87-0.194-3.916-0.62
	c-1.447-0.426-2.602-1.35-3.429-2.809c-1.046-1.459-1.521-3.502-1.398-6.104c0.098-2.602,0.146-5.046,0.146-7.344v-183.512
	c0-4.171,0.109-7.758,0.329-10.786c0.194-3.016,2.066-5.046,5.605-6.098h2.505c0.632-0.194,1.361-0.311,2.188-0.311h2.201h8.438
	c1.459,0,3.222-0.048,5.302-0.164c2.079-0.097,4.17-0.097,6.262,0c2.067,0.116,3.964,0.365,5.618,0.784
	c1.665,0.426,2.82,1.046,3.453,1.885c1.046,1.666,1.617,3.807,1.714,6.408c0.098,2.603,0.158,5.266,0.158,7.965v31.895
	c0,2.298-0.061,4.791-0.158,7.49c-0.097,2.724,0.037,5.119,0.463,7.198c0.425,1.253,0.62,2.347,0.62,3.283
	c0,0.948,0.522,1.727,1.568,2.347c1.265,1.046,2.712,0.937,4.39-0.316c1.666-1.252,2.906-2.188,3.745-2.809
	c1.471-1.046,2.809-2.03,4.073-2.979c1.229-0.924,2.603-1.823,4.049-2.65c2.505-1.666,5.277-2.918,8.293-3.757
	c3.016-0.84,6.189-1.764,9.546-2.81c1.228-0.413,2.541-0.571,3.891-0.474c1.35,0.109,2.65-0.037,3.915-0.462h3.113
	c1.471-0.414,3.027-0.414,4.693,0h2.821c1.446,0.425,2.857,0.632,4.219,0.632c1.351,0,2.663,0.219,3.903,0.62
	c2.299,0.413,4.548,0.839,6.725,1.253c2.188,0.4,4.316,1.143,6.408,2.188c2.079,1.033,4.109,2.03,6.092,2.967
	c1.981,0.937,3.794,2.03,5.483,3.283c1.046,0.826,2.141,1.666,3.271,2.505c1.143,0.826,2.237,1.763,3.283,2.809l2.188,2.188
	c1.678,1.666,3.186,3.283,4.535,4.852c1.362,1.557,2.651,3.271,3.916,5.144c1.86,2.931,3.538,5.897,4.985,8.913
	c1.459,3.028,2.918,6.311,4.401,9.85c0.814,1.896,1.447,3.806,1.849,5.788c0.426,1.981,0.839,3.902,1.265,5.787
	c0.62,2.08,0.997,4.159,1.094,6.25c0.098,2.08,0.462,4.269,1.083,6.566v4.062c0.425,1.046,0.632,2.809,0.632,5.313
	s-0.109,4.378-0.304,5.63V1142.094z M1788.939,1128.341c-0.109-1.045-0.158-2.091-0.158-3.137c-0.607-2.918-1.143-5.728-1.568-8.438
	c-0.413-2.712-1.143-5.314-2.177-7.819c-2.091-4.997-4.681-9.387-7.806-13.12c-3.125-3.757-7.199-6.675-12.209-8.755
	c-1.666-0.632-3.368-1.094-5.155-1.41c-1.764-0.316-3.478-0.681-5.168-1.094c-1.033-0.207-2.371-0.268-4.049-0.158
	c-1.678,0.097-2.931,0.255-3.758,0.474c-0.814,0.207-1.556,0.256-2.188,0.134c-0.62-0.085-1.35-0.036-2.188,0.171
	c-3.964,1.045-7.394,2.395-10.312,4.073c-4.791,2.906-8.487,6.299-11.09,10.153c-2.614,3.854-4.863,8.803-6.724,14.858
	c-0.438,1.253-0.742,2.493-0.948,3.745c-0.207,1.24-0.426,2.505-0.608,3.758c-0.231,0.826-0.328,1.97-0.328,3.429
	c-0.413,0.852-0.62,1.666-0.62,2.505v2.809v3.758c-0.426,1.033-0.426,2.188,0,3.44c0.207,1.034,0.207,2.128,0,3.283
	c-0.219,1.144-0.109,2.116,0.316,2.967c0,1.873,0.109,3.234,0.304,4.062c0.413,1.666,0.729,3.393,0.937,5.156
	c0.206,1.774,0.511,3.489,0.948,5.167c1.86,5.825,4.316,11.139,7.344,15.954c3.028,4.778,7.247,8.316,12.658,10.615
	c1.253,0.632,2.554,1.094,3.916,1.41c1.337,0.304,2.748,0.669,4.207,1.095c0.839,0.206,1.568,0.304,2.188,0.304
	c0.633,0,1.374,0.109,2.188,0.316h5.801c1.957,0,3.793-0.207,5.459-0.62c7.284-1.873,12.914-4.804,16.89-8.755
	c3.952-3.965,7.187-9.278,9.68-15.941c0.826-1.678,1.459-3.515,1.872-5.472c0.438-1.982,0.827-4.025,1.253-6.104
	c0.413-1.459,0.644-2.918,0.644-4.365c0-1.471,0.195-2.821,0.62-4.073v-2.809c0.195-1.046,0.305-2.456,0.305-4.22
	c0-1.775-0.109-3.186-0.305-4.22C1789.109,1130.421,1789.049,1129.375,1788.939,1128.341"/>
<path d="M401.604,931.782l207.636-55.994c0,0,41.987-10.494,54.815,12.828c12.834,23.328,71.157,4.669,83.992,30.325
	c12.828,25.663-43.167,45.501-104.974,60.664c-61.837,15.182-120.173,33.828-128.325,46.669
	c-9.327-12.841-62.993-22.167-86.327-18.678c-23.334,3.502-64.147,18.678-65.321,23.335c-4.669-4.657-58.316-39.659-107.313-11.661
	c-6.998-3.502-13.996-10.506-23.334-9.339c30.331-10.487,76.228-26.562,79.225-27.699c3.016-1.119-9.909-4.718-21.029-8.64
	c-11.655-18.069-5.643-19.51,11.643-25.937c14.281-5.642,27.055-10.506,27.055-10.506l-36.454-79.681
	c0,0,28.186-13.893,59.752,21.808C384.209,914.972,390.422,933.563,401.604,931.782"/>
<polygon points="826.725,820.911 832.354,848.903 860.34,854.533 832.354,860.145 826.725,888.147 821.107,860.145 793.116,854.533 
	821.107,848.903 "/>
<polygon points="595.985,769.635 600.065,789.966 620.39,794.039 600.065,798.125 595.985,818.443 591.899,798.125 571.581,794.039 
	591.899,789.966 "/>
<polygon points="742.398,725.958 744.939,738.609 757.586,741.151 744.939,743.687 742.398,756.326 739.869,743.687 
	727.217,741.151 739.869,738.609 "/>
<polygon points="749.609,847.699 752.15,860.351 764.796,862.874 752.15,865.428 749.609,878.056 747.067,865.428 734.428,862.874 
	747.067,860.351 "/>
<path d="M1896.552,1051.237c15.649-0.413,29.243,1.302,40.795,5.156c11.576,3.866,20.38,10.481,26.423,19.856
	c1.472,2.298,2.76,4.633,3.928,7.028c1.131,2.407,2.128,5.058,2.954,7.977c0.414,1.24,0.62,2.614,0.62,4.062
	c0,1.459-0.206,2.711-0.62,3.757c-0.826,1.252-1.981,2.079-3.429,2.505c-1.046,0.413-2.311,0.62-3.757,0.62h-4.378h-13.765
	c-1.446,0-2.906,0.049-4.365,0.146c-1.471,0.122-2.809-0.048-4.073-0.462c-2.092-0.413-3.647-1.252-4.682-2.492
	c-1.058-1.253-1.994-2.554-2.809-3.916c-0.839-1.35-1.617-2.809-2.359-4.377c-0.717-1.557-1.812-2.857-3.283-3.903
	c-2.066-1.678-4.109-2.918-6.092-3.757c-1.981-0.827-4.413-1.557-7.344-2.189c-1.472-0.413-3.6-0.717-6.396-0.936
	c-2.833-0.207-4.973-0.098-6.432,0.315h-2.177c-1.059,0.207-2.043,0.365-2.967,0.462c-0.937,0.109-1.922,0.268-2.968,0.475
	c-3.55,1.046-6.42,2.456-8.608,4.231c-2.177,1.764-3.685,4.414-4.535,7.965c-0.414,1.459-0.414,2.809,0,4.061
	c0.425,1.253,0.851,2.299,1.264,3.125c1.46,2.505,3.174,4.487,5.156,5.946c1.97,1.459,4.316,2.699,7.028,3.745
	c3.964,1.666,8.28,3.076,12.974,4.22c4.694,1.155,9.484,2.188,14.385,3.125c4.889,0.937,9.704,1.994,14.385,3.125
	c4.694,1.155,9.107,2.541,13.278,4.231c1.885,0.827,3.696,1.508,5.484,2.019c1.751,0.535,3.489,1.313,5.155,2.347
	c3.952,2.505,7.539,5.217,10.786,8.135c3.222,2.906,5.787,6.554,7.647,10.943c0.62,1.459,1.144,2.919,1.557,4.365
	c0.426,1.472,0.852,3.04,1.265,4.693c0.194,1.253,0.353,3.187,0.475,5.788c0.109,2.614,0.049,4.657-0.171,6.092v1.569
	c-0.4,1.252-0.681,2.456-0.766,3.587c-0.109,1.155-0.279,2.249-0.486,3.295c-1.459,6.25-3.733,11.771-6.858,16.573
	c-3.355,4.985-7.417,9.06-12.208,12.185s-10.214,5.836-16.245,8.122c-2.311,1.046-4.742,1.775-7.344,2.188
	c-2.615,0.414-5.156,0.937-7.661,1.569c-1.896,0.413-3.806,0.668-5.788,0.777c-1.994,0.11-3.915,0.365-5.788,0.778h-5.617
	c-1.265,0.426-3.404,0.633-6.42,0.633s-5.168-0.207-6.408-0.633c-0.62,0-1.302-0.048-2.043-0.157
	c-0.718-0.098-1.508-0.146-2.322-0.146c-2.505-0.413-5.01-0.729-7.515-0.948c-2.505-0.207-4.889-0.62-7.198-1.24
	c-8.111-2.298-15.31-4.949-21.56-7.977c-6.25-3.016-11.575-7.552-15.953-13.595c-2.918-3.952-5.411-8.548-7.502-13.752
	c-0.414-1.253-0.827-2.919-1.253-5.01c-0.413-1.034-0.718-2.505-0.937-4.378c-0.194-1.872-0.109-3.441,0.316-4.682
	c0.62-1.459,1.666-2.505,3.138-3.125c1.045-0.425,2.273-0.632,3.732-0.632h4.693h14.701h4.998c1.665,0,3.125,0.207,4.389,0.632
	c2.274,0.827,3.794,2.177,4.523,4.062c0.729,1.873,1.605,3.854,2.651,5.934c0.413,1.046,1.216,2.396,2.347,4.062
	c1.143,1.678,2.14,2.724,2.979,3.138c2.505,2.079,4.889,3.696,7.187,4.839c2.286,1.144,5.217,2.237,8.755,3.283
	c1.034,0.413,2.079,0.571,3.113,0.475c1.046-0.109,2.091-0.062,3.137,0.146c1.679,0.426,3.478,0.584,5.46,0.475
	c1.994-0.098,3.696-0.365,5.168-0.791c1.033-0.194,2.03-0.304,2.979-0.304c0.925,0,1.909-0.207,2.955-0.632
	c2.918-1.046,5.581-2.286,7.989-3.745c2.383-1.46,4.316-3.332,5.787-5.63c1.021-1.666,1.873-4.269,2.493-7.819
	c0.413-1.446,0.413-2.809,0-4.061c-0.426-1.253-0.852-2.286-1.265-3.138c-1.447-2.906-3.283-5.095-5.46-6.554
	c-2.188-1.447-4.742-2.809-7.672-4.062c-3.952-1.666-8.123-3.016-12.488-4.062c-4.39-1.045-8.767-2.188-13.133-3.453
	c-1.678-0.401-3.404-0.717-5.155-0.924c-1.787-0.207-3.502-0.522-5.155-0.937c-6.688-1.872-13.035-3.708-19.091-5.483
	c-6.043-1.764-11.552-4.414-16.562-7.965c-5.824-4.171-10.104-9.801-12.815-16.901c-0.414-1.436-0.827-3.417-1.24-5.922
	c-0.438-1.447-0.754-3.223-0.961-5.314c-0.183-2.079-0.085-3.951,0.328-5.629c0.413-1.034,0.522-1.922,0.304-2.651
	c-0.206-0.729-0.109-1.617,0.329-2.663c0.413-2.286,0.875-4.426,1.397-6.408c0.523-1.981,1.204-3.902,2.043-5.787
	c2.699-6.031,6.444-10.932,11.235-14.689c4.791-3.757,10.227-6.772,16.27-9.059c2.286-1.046,4.693-1.836,7.187-2.347
	c2.493-0.523,5.095-1.095,7.807-1.727c1.265-0.414,2.505-0.669,3.77-0.778c1.24-0.098,2.492-0.256,3.745-0.475
	c1.653-0.194,3.44-0.304,5.302-0.304C1893.135,1051.554,1894.886,1051.456,1896.552,1051.237"/>
</svg>
