<?xml version="1.0" encoding="utf-8"?>
<!-- Generator: Adobe Illustrator 16.0.0, SVG Export Plug-In . SVG Version: 6.00 Build 0)  -->
<!DOCTYPE svg PUBLIC "-//W3C//DTD SVG 1.1//EN" "http://www.w3.org/Graphics/SVG/1.1/DTD/svg11.dtd">
<svg version="1.1" id="Layer_1" xmlns="http://www.w3.org/2000/svg" xmlns:xlink="http://www.w3.org/1999/xlink" x="0px" y="0px"
	 width="2000px" height="2000px" viewBox="0 0 2000 2000" enable-background="new 0 0 2000 2000" xml:space="preserve">
<g>
	<g>
		<g>
			<path fill="#010101" d="M234.248,1001.4c-5.299,0-10.614-1.901-14.836-5.756c-29.306-26.758-52.14-60.635-66.032-97.968
				c-23.618-63.167-21.213-131.792,6.786-193.201c27.997-61.408,78.23-108.24,141.447-131.868
				c130.448-48.691,276.265,17.798,325.055,148.215c13.892,37.257,18.819,76.042,14.653,115.298
				c-1.283,12.09-12.129,20.856-24.212,19.565c-12.089-1.282-20.849-12.123-19.566-24.212c3.439-32.414-0.636-64.46-12.116-95.249
				c-40.282-107.674-160.693-162.583-268.41-122.376c-52.193,19.508-93.674,58.181-116.794,108.89
				c-23.118,50.707-25.105,107.369-5.594,159.552c11.476,30.837,30.307,58.781,54.469,80.844c8.978,8.197,9.61,22.12,1.413,31.097
				C246.167,998.986,240.218,1001.4,234.248,1001.4z"/>
		</g>
		<g>
			<g>
				<path fill="#010101" d="M195.047,1890.885c-0.621,0-1.245-0.027-1.875-0.08c-12.114-1.021-21.106-11.67-20.084-23.784
					l83.529-990.061c1.021-12.115,11.659-21.11,23.784-20.084c12.114,1.022,21.106,11.671,20.084,23.784l-83.528,990.061
					C215.988,1882.205,206.366,1890.885,195.047,1890.885z"/>
			</g>
			<g>
				<path fill="#010101" d="M1232.06,1503.399c-5.531,0-11.067-2.071-15.345-6.232L504.419,804.448
					c-8.715-8.476-8.91-22.411-0.434-31.126c8.476-8.716,22.412-8.91,31.127-0.433l712.296,692.719
					c8.715,8.475,8.908,22.411,0.433,31.127C1243.527,1501.171,1237.796,1503.399,1232.06,1503.399z"/>
			</g>
		</g>
		<g>
			<path fill="#010101" d="M309.284,615.284c-8.921,0-17.315-5.462-20.622-14.311l-81.905-219.142
				c-4.256-11.387,1.525-24.069,12.913-28.325c11.387-4.258,24.069,1.525,28.325,12.913l81.905,219.142
				c4.256,11.387-1.525,24.069-12.913,28.325C314.448,614.834,311.843,615.284,309.284,615.284z"/>
		</g>
		<g>
			<path fill="#010101" d="M131.907,1516.184c-8.922,0-17.316-5.466-20.623-14.315c-4.255-11.388,1.528-24.068,12.915-28.323
				l902.107-337.063c11.385-4.26,24.067,1.528,28.323,12.916c4.255,11.388-1.527,24.068-12.915,28.323l-902.106,337.063
				C137.069,1515.733,134.466,1516.184,131.907,1516.184z"/>
		</g>
	</g>
	<g>
		<path fill="#010101" d="M1870.505,1890.883H470.704c-12.157,0-22.012-9.855-22.012-22.012V130.268
			c0-12.157,9.855-22.012,22.012-22.012h829.957c5.608,0,11.004,2.141,15.088,5.985l569.846,536.471
			c4.418,4.16,6.923,9.959,6.923,16.027v1202.132C1892.517,1881.027,1882.662,1890.883,1870.505,1890.883z M492.715,1846.859
			h1355.778V676.248L1291.93,152.28H492.715V1846.859z"/>
	</g>
	<g>
		<path fill="#010101" d="M1870.505,688.751H1300.66c-12.157,0-22.012-9.855-22.012-22.012V130.268
			c0-12.157,9.854-22.012,22.012-22.012c12.156,0,22.012,9.855,22.012,22.012v514.459h547.833c12.157,0,22.012,9.855,22.012,22.012
			C1892.517,678.896,1882.662,688.751,1870.505,688.751z"/>
	</g>
</g>
</svg>
