<?xml version="1.0" encoding="utf-8"?>
<!-- Generator: Adobe Illustrator 16.0.0, SVG Export Plug-In . SVG Version: 6.00 Build 0)  -->
<!DOCTYPE svg PUBLIC "-//W3C//DTD SVG 1.1//EN" "https://www.w3.org/Graphics/SVG/1.1/DTD/svg11.dtd">
<svg version="1.1" id="Layer_1" xmlns="https://www.w3.org/2000/svg" xmlns:xlink="https://www.w3.org/1999/xlink" x="0px" y="0px"
	 width="2000px" height="2000px" viewBox="0 0 2000 2000" enable-background="new 0 0 2000 2000" xml:space="preserve">
<g id="Layer_2">
	<g>
		<g id="Layer_1_2_">
			<g>
				<path fill="#010101" d="M1162.512,958.641c-167.2,0-303.227-136.002-303.227-303.172c0-167.424,136.027-303.633,303.227-303.633
					c81.227,0,157.523,31.571,214.835,88.898c57.293,57.307,88.845,133.567,88.845,214.735c0,80.935-31.575,157.048-88.908,214.319
					C1319.923,927.085,1243.649,958.641,1162.512,958.641z M1162.512,380.836c-151.209,0-274.227,123.2-274.227,274.633
					c0,151.179,123.018,274.172,274.227,274.172c73.397,0,142.393-28.542,194.276-80.37
					c51.849-51.792,80.403-120.619,80.403-193.802c0-73.422-28.536-142.402-80.353-194.231
					C1305.004,409.39,1235.99,380.836,1162.512,380.836z"/>
			</g>
		</g>
		<g>
			<path fill="#010101" d="M1965.074,1651.301H1020.02c-8.008,0-14.5-6.492-14.5-14.5c0-4.371,0.316-108.531,27.834-237.236
				c16.206-75.803,38.55-144.19,66.408-203.264c35.128-74.486,79.21-134.376,131.023-178.006
				c23.723-19.978,50.49-35.044,79.56-44.78c26.453-8.859,54.915-13.351,84.595-13.351c100.693,0,193.279,50.502,236.789,97.481
				c56.419,57.753,109.762,123.878,158.56,196.552c39.021,58.115,75.242,120.531,107.659,185.516
				c55.243,110.745,79.949,189.488,80.974,192.786c1.368,4.401,0.562,9.19-2.171,12.901
				C1974.017,1649.11,1969.683,1651.301,1965.074,1651.301z M1034.834,1622.301h910.018
				c-10.536-29.803-34.355-92.537-73.142-170.218c-31.853-63.795-67.424-125.048-105.725-182.057
				c-47.791-71.136-99.986-135.819-155.137-192.255c-0.095-0.097-0.188-0.195-0.279-0.294
				c-21.327-23.081-53.267-44.65-89.937-60.735c-41.132-18.042-84.596-27.579-125.693-27.579
				c-56.099,0-105.044,17.264-145.474,51.314c-48.599,40.922-90.141,97.51-123.475,168.192
				c-26.91,57.062-48.537,123.329-64.279,196.958C1040.677,1504.018,1035.911,1589.344,1034.834,1622.301z"/>
		</g>
	</g>
	<g>
		<path fill="#010101" d="M146.265,1650.996c-0.001,0-0.002,0-0.003,0c-6.298,0-62.547-1.235-97.619-44.01
			c-22.351-27.295-30.67-61.399-24.733-101.375c0.501-4.139,1.01-6.898,1.803-9.787c0.021-0.078,0.043-0.156,0.066-0.234
			c43.984-150.247,104.451-306.049,136.581-385.548c36.9-91.305,82.887-196.565,96.656-211.913
			c19.819-22.349,40.204-37.363,64.096-47.185c0.09-0.037,0.181-0.073,0.272-0.108l2.651-1.028l-0.885-4.58
			c-0.119-0.615-0.198-1.238-0.236-1.863c-56.551-304.103-47.84-440.495-47.441-446.162l1.009-14.964
			c0.438-6.493,5.148-11.899,11.52-13.222l89.336-18.547c3.766-0.782,7.689-0.035,10.905,2.076c3.216,2.111,5.461,5.414,6.241,9.181
			l204.695,988.613c1.623,7.836-3.409,15.505-11.243,17.136l-88.074,18.34c-5.971,1.249-12.085-1.384-15.292-6.574l-7.22-11.688
			c-1.478-2.333-19.146-30.844-44.968-99.478c-32.341-85.964-62.38-193.764-89.321-320.52c-7.416,3.682-13.944,9.116-16.238,12.879
			c-15.499,29.896-152.469,349.289-213.337,556.254c-0.058,1.197-0.179,2.393-0.299,3.578l-0.077,0.755
			c-0.007,0.067-0.014,0.135-0.021,0.203l-0.013,0.112c-1.433,12.493-1.914,20.498,5.913,27.335
			c11.343,9.927,24.879,10.213,26.386,10.213l357.608-0.049c15.214-40.583,41.577-75.539,76.721-101.577
			c38.806-28.751,84.925-43.948,133.371-43.948c59.67,0,115.832,23.156,158.14,65.204c42.276,42.016,65.79,97.979,66.208,157.577
			c0.027,3.863-1.488,7.577-4.21,10.318s-6.426,4.283-10.289,4.283H603.409c-0.79,0.134-1.602,0.203-2.429,0.203L146.265,1650.996z
			 M53.648,1503.612c-0.27,0.995-0.568,2.303-0.969,5.656c-0.017,0.143-0.036,0.283-0.057,0.425
			c-4.735,31.628,1.474,58.179,18.453,78.913c27.064,33.008,73.229,33.39,75.187,33.39l452.279-0.097
			c0.792-0.135,1.606-0.204,2.436-0.204h308.808c-3.736-46.386-23.674-89.476-57.014-122.609
			c-36.837-36.611-85.739-56.773-137.697-56.773c-42.183,0-82.332,13.227-116.107,38.25c-33.119,24.537-57.285,58.157-69.886,97.225
			c-1.932,5.988-7.505,10.048-13.798,10.049l-367.906,0.051c-4.279,0-26.573-0.838-45.477-17.381
			c-19.682-17.194-17.149-39.277-15.635-52.472l0.07-0.693c0.047-0.466,0.104-1.022,0.149-1.501c-0.131-1.71,0.042-3.45,0.536-5.139
			c61.247-209.296,201.352-535.632,216.288-564.056c0.089-0.171,0.183-0.339,0.279-0.506c6.41-11.1,21.014-22.312,36.34-27.899
			c0.283-0.103,0.569-0.197,0.857-0.283l11.117-3.285c3.926-1.161,8.16-0.606,11.655,1.524c3.496,2.131,5.928,5.64,6.696,9.661
			l1.288,6.742c65.74,313.192,131.639,418.396,132.297,419.422c0.043,0.067,0.087,0.137,0.129,0.205l1.932,3.127l63.945-13.315
			L371.028,381.814l-64.352,13.36l-0.271,4.024c-0.393,5.57-8.896,138.863,47.338,440.571c0.104,0.556,0.174,1.114,0.212,1.672
			l2.852,14.756c1.331,6.885-2.457,13.736-8.995,16.271l-13.801,5.35c-19.6,8.082-36.556,20.672-53.354,39.614
			C264.533,936.541,130.248,1242.01,53.648,1503.612z"/>
	</g>
</g>
</svg>
