<?xml version="1.0" encoding="utf-8"?>
<!-- Generator: Adobe Illustrator 16.0.0, SVG Export Plug-In . SVG Version: 6.00 Build 0)  -->
<!DOCTYPE svg PUBLIC "-//W3C//DTD SVG 1.1//EN" "https://www.w3.org/Graphics/SVG/1.1/DTD/svg11.dtd">
<svg version="1.1" id="Layer_1" xmlns="https://www.w3.org/2000/svg" xmlns:xlink="https://www.w3.org/1999/xlink" x="0px" y="0px"
	 width="2000px" height="2000px" viewBox="0 0 2000 2000" enable-background="new 0 0 2000 2000" xml:space="preserve">
<g>
	<g>
		<g>
			<path d="M1884.691,1827.75H114.168v-678.623h1770.523V1827.75z M160.645,1781.273h1677.57v-585.67H160.645V1781.273z"/>
		</g>
		<g>
			<path d="M999.434,1367.997c-76.189,0-138.176-61.983-138.176-138.173h46.476c0,50.561,41.135,91.697,91.7,91.697
				c50.557,0,91.692-41.137,91.692-91.697h46.476C1137.602,1306.014,1075.619,1367.997,999.434,1367.997z"/>
		</g>
		<g>
			<g>
				<path d="M1401.928,505.974h-195.867v-80.705c0-113.944-92.695-206.639-206.627-206.639
					c-113.94,0-206.639,92.695-206.639,206.639v80.705H597.708v-46.476h148.611v-34.229c0-139.564,113.546-253.115,253.115-253.115
					c139.561,0,253.104,113.55,253.104,253.115v34.229h149.391V505.974z"/>
			</g>
		</g>
	</g>
	<g>
		<polygon points="1884.691,999.948 1838.215,999.948 1838.215,735.85 160.645,735.85 160.645,999.948 114.168,999.948 
			114.168,689.374 1884.691,689.374 		"/>
	</g>
</g>
</svg>
