<?xml version="1.0" encoding="utf-8"?>
<!-- Generator: Adobe Illustrator 21.1.0, SVG Export Plug-In . SVG Version: 6.00 Build 0)  -->
<svg version="1.1" id="Layer_1" xmlns="https://www.w3.org/2000/svg" xmlns:xlink="https://www.w3.org/1999/xlink" x="0px" y="0px"
	 viewBox="0 0 2000 2000" style="enable-background:new 0 0 2000 2000;" xml:space="preserve">
<style type="text/css">
	.st0{stroke:#FFFFFF;stroke-miterlimit:10;}
</style>
<g>
	<path class="st0" d="M703.7,807.7c14.7,0,26.5-11.9,26.5-26.5c0.1-97.9,79.5-177.2,177.3-177.3h185.8
		c97.5,0.7,176.1,79.9,176.3,177.3c0,14.7,11.9,26.5,26.5,26.5c14.7,0,26.5-11.9,26.5-26.5c-0.1-127.2-103.2-230.3-230.4-230.4
		H906.6C779.4,550.9,676.3,654,676.1,781.2h1.1C677.2,795.9,689.1,807.7,703.7,807.7z"/>
	<path class="st0" d="M847.6,373.2c7.9,71.4,64.3,127.8,135.7,135.7c84.2,9.3,160.1-51.4,169.4-135.7l8-78
		c0.5-5.2,0.8-10.4,0.8-15.7c0-84.7-68.7-153.4-153.4-153.4H992c-5.1,0-10.3,0.3-15.4,0.8c-84.3,8.7-145.6,84-137,168.3L847.6,373.2
		z M992,179.1h15.9c28.5-0.2,55.7,11.9,74.6,33.2c19.1,21.1,28.1,49.3,25,77.5l-8,78c-5.4,46.3-41.9,82.8-88.2,88.2
		c-55.1,6.4-104.8-33.1-111.2-88.2l-8-78c-0.4-3.4-0.5-6.9-0.5-10.4C891.7,224,936.6,179.1,992,179.1z"/>
	<path class="st0" d="M1517.1,454.1l8,77.8c7.9,71.3,64.1,127.5,135.4,135.4c84.1,9.3,159.8-51.3,169.1-135.4l8-77.8
		c0.5-5.2,0.8-10.4,0.8-15.7c0-84.6-68.6-153.2-153.2-153.2H1669c-43.7-0.3-85.4,18.1-114.7,50.4l1.1,0
		C1526.5,368,1512.6,411,1517.1,454.1z M1568.9,437.9c0.2-55.1,45-99.7,100.1-99.5h16.2c3.1,0,6.2,0.2,9.3,0.5
		c54.8,5.7,94.6,54.8,88.9,109.6l-8,77.8c-5.3,46.2-41.8,82.6-87.9,87.9c-54.9,6.4-104.6-33-110.9-87.9l-8-77.8l0.8,0
		C1569.1,445,1568.9,441.5,1568.9,437.9z"/>
	<path class="st0" d="M1775.4,683.5h-116.8c-40.8,0-80.5,13.8-112.6,39L1394,842.8h-212.4c-51.3,0-92.9,41.6-92.9,92.9
		c0,51.3,41.6,92.9,92.9,92.9h240.5c3.3,0,6.5-0.7,9.6-1.9l99.3-38.8v253h-98c-101.2,0.4-190.2,67.2-218.8,164.3l-111.8,386.8
		c-4.1,14.1,3.9,28.8,18,32.9c14.1,4.1,28.8-3.9,32.9-18c0,0,0-0.1,0-0.1l112-386.8c21.8-74.4,89.9-125.7,167.5-126.1h124.5
		c14.7,0,26.5-11.9,26.5-26.5V967.3l95.8-37.4c13.9-4.8,21.2-19.9,16.5-33.7c-4.8-13.9-19.9-21.2-33.7-16.5
		c-0.7,0.2-1.4,0.5-2.1,0.8l-112.3,43.8h-1.9l-129.3,51.2h-235.5c-22,0-39.8-17.8-39.8-39.8c0-22,17.8-39.8,39.8-39.8h221.9
		c6,0,11.8-2.1,16.5-5.8l159.3-125.8c22.8-17.5,50.9-26.8,79.6-26.5h116.8c40.4,0.1,73.2,32.6,73.8,73v486.6
		c-0.1,100.8-81.8,182.5-182.6,182.6h-204.7c-10.6,0-20.2,6.2-24.4,15.9l-148.4,339.5c-6.6,13.1-1.3,29.1,11.8,35.6
		s29.1,1.3,35.6-11.8c0.4-0.8,0.8-1.7,1.1-2.6l141.5-323.6h187.4c130.1-0.1,235.6-105.6,235.7-235.7V810.7
		C1902.6,740.4,1845.7,683.5,1775.4,683.5z"/>
	<path class="st0" d="M495.6,1081.7c0,14.7,11.9,26.5,26.5,26.5h955.7c14.7,0,26.5-11.9,26.5-26.5s-11.9-26.5-26.5-26.5H522.1
		C507.5,1055.2,495.6,1067,495.6,1081.7z"/>
	<path class="st0" d="M171.5,531.9c7.9,71.3,64.1,127.5,135.4,135.4c84.1,9.3,159.8-51.3,169.1-135.4l8-77.8
		c4.4-43-9.6-85.9-38.5-118.1l-0.8-0.3c-29.1-32.1-70.3-50.4-113.6-50.4h-16.2c-4.9,0-9.8,0.3-14.6,0.8
		c-84.2,8.7-145.4,83.9-136.7,168L171.5,531.9z M314.8,338.4H331c28.6-0.3,55.9,11.8,74.9,33.2l-0.8-0.3c19,21,28.1,49.1,25,77.3
		l-8,77.8c-5.3,46.2-41.8,82.6-87.9,87.9c-54.9,6.4-104.6-33-110.9-87.9l-8-77.8c-0.4-3.5-0.5-7.1-0.5-10.6
		C214.9,382.8,259.7,338.2,314.8,338.4z"/>
	<path class="st0" d="M785.5,1405.3c-28.5-97-117.3-163.9-218.5-164.3h-98V988l99,38.8c3,1.2,6.3,1.8,9.6,1.9h240.8
		c51.3,0,92.9-41.6,92.9-92.9c0-51.3-41.6-92.9-92.9-92.9H606L453.9,722.5c-32.1-25.3-71.7-39-112.6-39H224.6
		c-70.2,0-127.2,56.9-127.2,127.2v486.6c0.1,130.1,105.6,235.6,235.7,235.7h187.4l141.5,323.6c5.2,13.7,20.5,20.7,34.2,15.5
		c13.7-5.2,20.7-20.5,15.5-34.2c-0.3-0.9-0.7-1.7-1.1-2.6l-148.4-339.5c-4.2-9.7-13.8-16-24.4-15.9H333.1
		c-100.8-0.1-182.5-81.8-182.6-182.6V810.7c0-40.9,33.2-74.1,74.1-74.1h116.8c28.8-0.3,56.8,9,79.6,26.5L580.3,889
		c4.7,3.7,10.5,5.8,16.5,5.8h221.9c22,0,39.8,17.8,39.8,39.8s-17.8,39.8-39.8,39.8H582.9L453.7,924h-1.9l-112.3-43.8
		c-13.4-5.9-29.1,0.1-35,13.5c-5.9,13.4,0.1,29.1,13.5,35c0.7,0.3,1.4,0.6,2.1,0.8l95.8,37.7v300.3c0,14.7,11.9,26.5,26.5,26.5H567
		c77.6,0.4,145.7,51.7,167.5,126.1l112,386.8c4.1,14.1,18.9,22.1,32.9,18c14-4.1,22.1-18.8,18-32.9L785.5,1405.3z"/>
</g>
</svg>
