<?xml version="1.0" encoding="utf-8"?>
<!-- Generator: Adobe Illustrator 16.0.0, SVG Export Plug-In . SVG Version: 6.00 Build 0)  -->
<!DOCTYPE svg PUBLIC "-//W3C//DTD SVG 1.1//EN" "https://www.w3.org/Graphics/SVG/1.1/DTD/svg11.dtd">
<svg version="1.1" id="Layer_1" xmlns="https://www.w3.org/2000/svg" xmlns:xlink="https://www.w3.org/1999/xlink" x="0px" y="0px"
	 width="2000px" height="2000px" viewBox="0 0 2000 2000" enable-background="new 0 0 2000 2000" xml:space="preserve">
<g transform="translate(0,36)">
	<path fill="#010101" d="M1403.314,105.888c-9.918,0.645-18.764,6.465-23.282,15.317l-467.466,907.363
		c-7.155,13.83-1.744,30.842,12.085,37.996c7.696,3.98,16.794,4.203,24.674,0.602l922.066-421.516
		c14.189-6.413,20.494-23.114,14.082-37.303c-1.228-2.716-2.879-5.222-4.892-7.421l-454.601-485.847
		c-5.198-5.701-12.504-9.022-20.218-9.19C1404.948,105.853,1404.13,105.852,1403.314,105.888z M1411.892,182.471l400.685,428.256
		l-812.398,371.277L1411.892,182.471z M923.594,227.196c-79.654,0.765-159.488,12.954-236.49,37.373
		c-424.837,134.722-660.391,589.13-525.67,1013.967c134.723,424.837,589.13,660.393,1013.967,525.67
		s660.391-589.131,525.67-1013.967c-4.737-14.888-20.646-23.117-35.535-18.38s-23.117,20.646-18.38,35.535
		c125.511,395.791-93.119,817.387-488.91,942.897s-817.386-93.118-942.897-488.91C89.838,865.59,308.467,443.995,704.259,318.484
		c163.729-51.92,339.938-45.929,499.938,16.542c14.55,5.752,31.009-1.379,36.761-15.929s-1.38-31.008-15.93-36.76
		c-86-33.578-176.777-52.176-267.736-55.14C945.921,226.826,934.973,227.086,923.594,227.196z M918.693,654.227
		c-13.395,0.44-27.107,1.201-40.436,3.063c-207.853,29.016-353.118,221.628-324.102,429.481s221.628,353.73,429.481,324.715
		c207.853-29.017,353.73-221.629,324.715-429.481c-2.2-15.564-16.601-26.399-32.165-24.2c-15.566,2.199-26.4,16.601-24.201,32.165
		l0,0c24.804,177.674-98.026,340.96-275.701,365.764c-177.673,24.804-341.572-98.64-366.375-276.313
		c-24.803-177.674,98.64-340.96,276.314-365.764c45.418-6.341,91.989-3.049,136.013,9.803c15.057,4.23,30.691-4.548,34.922-19.605
		c4.229-15.057-4.549-30.692-19.605-34.922C998.793,657.615,958.878,652.905,918.693,654.227z"/>
</g>
</svg>
