<?xml version="1.0" encoding="utf-8"?>
<!-- Generator: Adobe Illustrator 16.0.0, SVG Export Plug-In . SVG Version: 6.00 Build 0)  -->
<!DOCTYPE svg PUBLIC "-//W3C//DTD SVG 1.1//EN" "https://www.w3.org/Graphics/SVG/1.1/DTD/svg11.dtd">
<svg version="1.1" id="Layer_1" xmlns="https://www.w3.org/2000/svg" xmlns:xlink="https://www.w3.org/1999/xlink" x="0px" y="0px"
	 width="2000px" height="2000px" viewBox="0 0 2000 2000" enable-background="new 0 0 2000 2000" xml:space="preserve">
<path fill="#010101" d="M1000.149,34.629c-130.404,0-256.882,25.515-375.922,75.836C509.246,159.071,406,228.661,317.358,317.302
	c-21.465,21.465-41.804,43.795-61.008,66.934c-0.435,0.448-0.832,0.927-1.196,1.433c-59.552,72.035-108.041,151.942-144.632,238.503
	C60.201,743.213,34.686,869.69,34.686,1000.094s25.515,256.88,75.836,375.919c48.605,114.983,118.195,218.23,206.836,306.869
	c88.642,88.642,191.888,158.232,306.869,206.839c119.041,50.32,245.518,75.836,375.922,75.836
	c130.405,0,256.882-25.516,375.923-75.836c114.98-48.606,218.226-118.197,306.867-206.839
	c88.642-88.639,158.233-191.886,206.84-306.869c50.318-119.039,75.835-245.516,75.835-375.919
	C1965.614,467.735,1532.511,34.629,1000.149,34.629z M602.126,564.192c31.058,7.976,64.135,15.469,99.025,22.076
	c0.075,0.015,0.15,0.028,0.226,0.04c95.899,16.373,184.515,24.774,270.367,25.634v359.746H547.427
	C549.342,827.172,568.204,688.369,602.126,564.192z M971.744,1026.534v349.419c-90.871,0.902-181.156,9.688-268.537,26.162
	c-36.112,6.565-70.279,14.165-102.296,22.322c-32.704-121.8-51.063-257.119-53.375-397.903H971.744z M1026.589,1376.39v-349.855
	h426.176c-2.346,142.813-21.181,280.024-54.776,403.183C1275.828,1397.312,1151.758,1379.477,1026.589,1376.39z M1026.589,971.688
	V611.485c103.256-2.673,207.687-15.596,311.012-38.559c19.697-4.377,39.375-9.169,59.027-14.284
	c34.884,125.588,54.299,266.368,56.243,413.046H1026.589z M1318.124,352.139c24.136,47.711,45.251,99.805,63.184,155.351
	c-116.62,30.58-235.113,47.475-354.719,50.551V91.019c50.559,5.875,99.802,28.627,146.734,67.879
	C1227.432,204.149,1276.148,269.165,1318.124,352.139z M971.744,558.508c-83.283-0.818-166.091-8.454-246.413-22.747
	c-36.031-6.267-72.057-14.036-107.96-23.205c18.275-57.447,39.936-111.259,64.806-160.417
	c41.976-82.974,90.693-147.99,144.799-193.241c46.324-38.744,94.901-61.418,144.769-67.65V558.508z M549.438,549.688
	c-35.324,129.524-54.923,273.236-56.862,422H89.985c6.155-199.822,76.99-383.638,192.238-531.17
	c23.081,13.454,58.611,31.545,102.718,50.409C425.632,508.328,481.456,529.707,549.438,549.688z M685.344,1648.493
	c-26.608-52.062-49.614-109.282-68.837-170.462c36.201-9.27,72.524-17.114,108.854-23.432
	c80.678-14.237,163.485-21.873,246.383-22.738v477.021C864.72,1895.136,763.929,1803.919,685.344,1648.493z M1026.589,1432.308
	c119.85,3.027,238.644,19.994,355.618,50.759c-18.9,59.286-41.373,114.794-67.251,165.425
	c-79.906,156.265-181.447,247.642-288.367,260.613V1432.308z M1507.696,971.688c-2.086-152.253-22.164-297.943-58.234-427.708
	c90.83-26.752,180.803-61.276,268.788-103.236c115.146,147.494,185.912,331.224,192.062,530.943H1507.696z M1434.093,492.646
	c-19.445-60.43-42.525-116.885-69.059-168.262c-47.413-91.857-102.837-163.41-163.431-212.438
	c188.816,42.805,355.561,144.441,479.838,284.561C1600.208,435.578,1517.663,467.647,1434.093,492.646z M635.218,322.516
	c-27.238,53.884-50.825,112.792-70.582,175.521c-49.448-14.615-98.542-31.907-146.944-51.837
	c-45.797-19.283-79.602-37.104-99.801-48.592c124.271-140.562,291.2-242.567,480.306-285.55
	C737.899,160.747,682.641,231.62,635.218,322.516z M89.923,1026.534h402.759c2.325,145.681,21.356,285.868,55.322,412.405
	c-66.413,19.517-121.078,40.554-161.129,57.811c-49.237,21.215-87.871,41.588-110.364,55.541
	C164.262,1405.541,95.576,1223.795,89.923,1026.534z M417.599,1544.203c48.097-19.804,96.852-36.996,145.948-51.548
	c20.861,66.82,46.088,129.224,75.411,185.862c46.282,89.395,100.319,159.713,160.61,209.002c0.528,0.431,1.058,0.847,1.587,1.275
	c-193.245-43.243-363.502-148.072-488.99-292.744C331.338,1584.875,367.201,1565.422,417.599,1544.203z M1200.73,1887.554
	c60.277-49.249,114.313-119.493,160.609-208.782c28.619-55.201,53.318-115.885,73.882-180.753
	c85.229,25.576,169.421,58.514,252.278,98.757c-125.417,144.281-295.402,248.829-488.299,292.006
	C1199.708,1888.37,1200.219,1887.97,1200.73,1887.554z M1450.927,1444.719c34.976-128.105,54.509-270.361,56.728-418.185h402.723
	c-5.662,197.503-74.508,379.455-187.002,526.298C1633.959,1508.516,1543.026,1472.451,1450.927,1444.719z"/>
</svg>
