<?xml version="1.0" encoding="utf-8"?>
<!-- Generator: Adobe Illustrator 16.0.0, SVG Export Plug-In . SVG Version: 6.00 Build 0)  -->
<!DOCTYPE svg PUBLIC "-//W3C//DTD SVG 1.1//EN" "http://www.w3.org/Graphics/SVG/1.1/DTD/svg11.dtd">
<svg version="1.1" id="Layer_1" xmlns="http://www.w3.org/2000/svg" xmlns:xlink="http://www.w3.org/1999/xlink" x="0px" y="0px"
	 width="2000px" height="2000px" viewBox="0 0 2000 2000" enable-background="new 0 0 2000 2000" xml:space="preserve">
<g>
	<path fill="#010101" d="M1932.359,502.264c-31.238-31.233-72.697-48.434-116.745-48.434h-454.123V352.596
		c0-73.964-60.173-134.137-134.136-134.137H772.954c-73.962,0-134.136,60.173-134.136,134.137V453.83H184.695
		c-91.088,0-165.194,74.106-165.194,165.195v997.479c0,91.1,74.106,165.214,165.194,165.214h1630.898
		c91.088,0,165.194-74.114,165.194-165.214V619.026C1980.8,574.97,1963.602,533.503,1932.359,502.264z M772.954,279.568h454.381
		c40.27,0,73.028,32.759,73.028,73.027V453.83H699.928V352.596C699.928,312.328,732.688,279.568,772.954,279.568z
		 M1815.614,1720.631H184.695c-57.392,0-104.084-46.712-104.084-104.127v-552.178c52.051,25.656,148.062,68.554,279.162,108.557
		c174.386,53.211,355.085,84.654,537.241,93.496v11.193c0,40.98,33.389,74.32,74.428,74.32h57.449c41.04,0,74.43-33.34,74.43-74.32
		v-10.827c183.155-8.29,364.184-39.508,538.175-92.821c130.747-40.062,226.354-83.289,278.206-109.204v551.784
		C1919.701,1673.919,1873.01,1720.631,1815.614,1720.631z M184.695,514.939h1630.898c57.396,0,104.086,46.692,104.086,104.085
		v388.857c-69.553,37.021-378.041,187.974-816.404,208.244v-66.841c0-41.038-33.386-74.428-74.426-74.428h-57.408
		c-41.039,0-74.428,33.39-74.428,74.428v66.47c-435.471-21.639-746.19-171.324-816.403-208.045V619.024
		C80.611,561.632,127.303,514.939,184.695,514.939z M947.565,1149.285c0-13.152,10.711-23.854,23.876-23.854h57.449
		c13.154,0,23.854,10.701,23.854,23.854v128.287c0,13.104-10.712,23.768-23.874,23.768h-57.429
		c-13.166,0-23.876-10.663-23.876-23.768V1149.285z"/>
	<rect x="962" y="1227.739" fill="#010101" width="76.332" height="50.554"/>
</g>
</svg>
