<?xml version="1.0" encoding="utf-8"?>
<!-- Generator: Adobe Illustrator 16.0.0, SVG Export Plug-In . SVG Version: 6.00 Build 0)  -->
<!DOCTYPE svg PUBLIC "-//W3C//DTD SVG 1.1//EN" "http://www.w3.org/Graphics/SVG/1.1/DTD/svg11.dtd">
<svg version="1.1" id="Layer_1" xmlns="http://www.w3.org/2000/svg" xmlns:xlink="http://www.w3.org/1999/xlink" x="0px" y="0px"
	 width="2000px" height="2000px" viewBox="0 0 2000 2000" enable-background="new 0 0 2000 2000" xml:space="preserve">
<g>
	<path fill="#010101" d="M1069.178,1239.809c80.98-82.777,125.496-192.195,125.496-308.811c0-243.99-198.497-442.49-442.485-442.49
		c-243.986,0-442.483,198.5-442.483,442.49c0,116.619,44.518,226.039,125.501,308.811
		c-131.837,44.652-235.26,116.477-307.452,213.535c-73.414,98.703-110.638,218.283-110.638,355.414v149.899h1470.151v-149.899
		c0-137.131-37.229-256.711-110.642-355.414C1304.436,1356.285,1201.014,1284.461,1069.178,1239.809z M509.177,1286.212
		l64.292-16.893l-52.456-40.831c-92.516-72-145.576-180.432-145.576-297.492c0-207.744,169.01-376.756,376.751-376.756
		c207.743,0,376.755,169.012,376.755,376.756c0,117.057-53.062,225.487-145.577,297.492l-52.455,40.831l64.293,16.893
		c128.611,33.797,235.026,96.247,307.753,180.603c78.682,91.279,118.576,206.326,118.576,341.943v84.168H82.848v-84.168
		c0-135.619,39.895-250.667,118.576-341.943C274.146,1382.454,380.565,1320.004,509.177,1286.212z"/>
	<path fill="#010101" d="M1872.306,1006.266c-72.196-97.062-175.617-168.885-307.453-213.539
		c80.979-82.782,125.5-192.202,125.5-308.811c0-243.991-198.498-442.491-442.486-442.491c-214.216,0-397.331,152.769-435.408,363.25
		l-0.661,3.649l64.687,11.701l0.661-3.649c32.409-179.174,188.32-309.218,370.722-309.218
		c207.741,0,376.752,169.013,376.752,376.757c0,117.056-53.058,225.487-145.575,297.492l-52.454,40.83l64.29,16.894
		c128.61,33.795,235.031,96.247,307.753,180.603c78.682,91.278,118.58,206.325,118.58,341.942v108.466h-403.346v65.731h469.075
		v-174.197C1982.941,1224.543,1945.719,1104.967,1872.306,1006.266z"/>
</g>
</svg>
