<?xml version="1.0" encoding="utf-8"?>
<!-- Generator: Adobe Illustrator 16.0.0, SVG Export Plug-In . SVG Version: 6.00 Build 0)  -->
<!DOCTYPE svg PUBLIC "-//W3C//DTD SVG 1.1//EN" "https://www.w3.org/Graphics/SVG/1.1/DTD/svg11.dtd">
<svg version="1.1" id="Layer_1" xmlns="https://www.w3.org/2000/svg" xmlns:xlink="https://www.w3.org/1999/xlink" x="0px" y="0px"
	 width="2000px" height="2000px" viewBox="0 0 2000 2000" enable-background="new 0 0 2000 2000" xml:space="preserve">
<path d="M1967.913,749.874c-48.602-97.181-269.482-26.501-318.099-114.867c-48.602-88.353-207.645-48.594-207.645-48.594
	L655.78,798.457c-42.331,6.751-65.814-63.635-185.383-198.84c-119.564-135.209-226.285-82.554-226.285-82.554l138.058,301.722
	c0,0-48.398,18.492-102.467,39.869c-65.508,24.305-88.254,29.768-44.135,98.189c42.138,14.858,91.089,28.461,79.696,32.732
	c-11.387,4.27-185.225,65.137-300.073,104.887c5.23-0.648,0,0,0,0l121.938,45.184l234.946-33.391
	c74.972,22.164,129.171,59.002,137.915,67.758l-41.013,330.785l277.198-42.638l338.142-305.837
	c30.923-48.587,251.826-119.271,485.986-176.704C1804.445,922.19,2016.515,847.084,1967.913,749.874"/>
</svg>
