<?xml version="1.0" encoding="utf-8"?>
<!-- Generator: Adobe Illustrator 16.0.0, SVG Export Plug-In . SVG Version: 6.00 Build 0)  -->
<!DOCTYPE svg PUBLIC "-//W3C//DTD SVG 1.1//EN" "https://www.w3.org/Graphics/SVG/1.1/DTD/svg11.dtd">
<svg version="1.1" id="Layer_1" xmlns="https://www.w3.org/2000/svg" xmlns:xlink="https://www.w3.org/1999/xlink" x="0px" y="0px"
	 width="2000px" height="2000px" viewBox="0 0 2000 2000" enable-background="new 0 0 2000 2000" xml:space="preserve">
<path fill="#010101" d="M1950.613,494.186h-162.162c0-139.35-35.457-220.418-207.738-220.418H184.664
	c-88.678,0-159.613,70.936-159.613,159.613v1119.871c0,93.75,76.008,172.283,172.281,172.283c10.145,0,20.277,0,30.408-2.523
	c2.537,0,7.598,0,10.133,0h1532.861c114.014,0,205.215-91.227,205.215-205.24v-998.25
	C1975.949,506.854,1965.805,494.186,1950.613,494.186 M197.332,1672.338c-65.863,0-121.609-55.744-121.609-121.633V433.381
	c0-60.805,48.137-108.941,108.941-108.941h1396.049c124.133,0,157.064,35.469,157.064,169.746H377.223
	c-15.203,0-25.336,10.133-25.336,25.336v998.25C351.887,1603.926,283.486,1672.338,197.332,1672.338 M1925.277,1517.771
	c0,86.154-68.414,154.566-154.543,154.566H334.158c43.064-38.004,70.938-93.748,70.938-154.566V544.859h1522.705v972.912H1925.277z"
	/>
<path fill="#010101" d="M1261.459,770.35h435.791c15.191,0,25.336-10.133,25.336-25.336c0-15.191-10.145-25.336-25.336-25.336
	h-435.791c-15.191,0-25.336,10.145-25.336,25.336C1236.123,760.217,1246.268,770.35,1261.459,770.35"/>
<path fill="#010101" d="M1697.25,1259.336H648.326c-15.203,0-25.336,10.145-25.336,25.336c0,15.217,10.133,25.338,25.336,25.338
	H1697.25c15.191,0,25.336-10.121,25.336-25.338C1722.586,1269.48,1709.918,1259.336,1697.25,1259.336"/>
<path fill="#010101" d="M1697.25,1451.908H648.326c-15.203,0-25.336,10.119-25.336,25.336c0,15.191,10.133,25.336,25.336,25.336
	H1697.25c15.191,0,25.336-10.145,25.336-25.336C1722.586,1462.027,1709.918,1451.908,1697.25,1451.908"/>
<path fill="#010101" d="M1697.25,1066.789h-430.719c-15.191,0-25.336,10.145-25.336,25.338c0,15.191,10.145,25.336,25.336,25.336
	h430.719c15.191,0,25.336-10.145,25.336-25.336C1722.586,1076.934,1709.918,1066.789,1697.25,1066.789"/>
<path fill="#010101" d="M1697.25,891.971h-430.719c-15.191,0-25.336,10.133-25.336,25.338c0,15.203,10.145,25.336,25.336,25.336
	h430.719c15.191,0,25.336-10.133,25.336-25.336C1722.586,902.104,1709.918,891.971,1697.25,891.971"/>
<path fill="#010101" d="M645.791,1117.463h445.91c15.217,0,25.336-10.145,25.336-25.336V742.49
	c0-15.205-10.119-25.338-25.336-25.338h-445.91c-15.205,0-25.336,10.133-25.336,25.338v349.637
	C620.455,1104.795,630.586,1117.463,645.791,1117.463 M671.127,767.826h395.238v298.963H671.127V767.826z"/>
</svg>
