<?xml version="1.0" encoding="utf-8"?>
<!-- Generator: Adobe Illustrator 16.0.0, SVG Export Plug-In . SVG Version: 6.00 Build 0)  -->
<!DOCTYPE svg PUBLIC "-//W3C//DTD SVG 1.1//EN" "https://www.w3.org/Graphics/SVG/1.1/DTD/svg11.dtd">
<svg version="1.1" id="Layer_1" xmlns="https://www.w3.org/2000/svg" xmlns:xlink="https://www.w3.org/1999/xlink" x="0px" y="0px"
	 width="2000px" height="2000px" viewBox="0 0 2000 2000" enable-background="new 0 0 2000 2000" xml:space="preserve">
<path fill="#010101" d="M1066.253,802.571l-319.012,316.94c-26.929,26.93-37.287,64.217-31.072,99.432l-18.644,18.644
	c-24.857,24.858-24.857,64.217,0,89.075c12.43,12.429,26.931,18.643,43.502,18.643c16.572,0,33.144-6.214,43.501-18.643
	l18.644-18.644c6.214,2.07,14.5,2.07,20.715,2.07c29,0,58.002-12.429,78.717-33.144l319.012-319.012l45.572,45.573
	c6.216,6.215,14.501,8.287,22.787,8.287c8.285,0,16.572-2.072,22.786-8.287c12.43-12.428,12.43-31.072,0-43.501l-22.786-22.787
	l159.506-159.505c26.93-26.931,41.431-62.145,41.431-101.504c0-39.359-14.501-74.574-41.431-101.504
	c-26.93-26.929-62.145-41.43-101.504-41.43s-74.573,14.5-101.504,41.43l-159.505,159.506l-22.787-22.786
	c-12.429-12.43-31.072-12.43-43.501,0c-12.43,12.428-12.43,31.072,0,43.501L1066.253,802.571z M861.174,1233.444
	c-14.501,14.5-35.216,18.644-51.788,10.357c-12.428-4.143-24.858-2.072-33.144,6.215l-31.072,31.072l0,0l0,0l31.072-31.072
	c8.286-8.287,12.429-22.787,6.214-33.146c-6.214-18.643-2.072-39.357,10.358-51.787l319.011-319.011l68.36,68.359L861.174,1233.444z
	"/>
<path fill="#010101" d="M542.162,508.418c68.361-72.503,155.363-128.433,246.509-161.578l29.001-10.357L720.312,75.474
	L691.31,85.832c-130.504,49.716-250.651,128.434-350.083,229.937l-20.715,22.787l198.864,192.649L542.162,508.418z M407.514,336.483
	c78.718-76.646,174.006-138.791,275.511-182.292l53.858,145.005c-80.789,35.216-155.363,82.86-219.579,145.005L407.514,336.483z"/>
<path fill="#010101" d="M666.452,1544.17c-82.86-53.859-155.363-126.362-209.221-209.223l-16.572-26.929l-234.08,149.148
	l16.572,26.929c74.574,118.076,178.149,219.579,296.225,296.225l26.929,16.572l149.148-234.08L666.452,1544.17z M525.59,1707.818
	c-91.146-62.146-171.935-140.862-234.08-232.009l130.504-82.86c49.717,72.503,113.933,134.647,186.436,184.364L525.59,1707.818z"/>
<path fill="#010101" d="M1414.265,1521.383c-82.859,58.002-174.007,97.361-271.367,113.933l-31.072,6.214l49.716,273.438
	l31.073-6.214c140.861-24.858,269.295-78.717,385.299-161.577l24.858-18.644l-161.577-225.793L1414.265,1521.383z
	 M1211.258,1842.466l-26.931-151.22c87.004-18.644,167.793-53.858,242.366-101.504l89.074,124.29
	C1422.551,1776.178,1318.975,1819.68,1211.258,1842.466z"/>
<path fill="#010101" d="M364.013,858.502c16.572-99.432,55.931-190.579,113.933-271.366l18.645-24.858L270.795,400.7l-18.644,24.858
	c-82.86,116.004-136.719,246.508-161.577,385.299l-6.214,29.002l273.439,47.644L364.013,858.502z M156.863,790.143
	c22.786-109.79,66.288-211.293,128.433-304.511l124.291,89.074c-47.645,74.575-82.86,155.363-101.504,242.366L156.863,790.143z"/>
<path fill="#010101" d="M1664.916,1181.657l-10.357,29c-35.216,93.218-91.146,178.15-161.577,246.51l-22.786,20.715l192.65,198.863
	l22.785-20.715c101.505-97.36,180.222-217.508,229.938-350.083l10.358-29.002L1664.916,1181.657z M1662.846,1591.814
	l-107.719-109.789c60.074-64.218,109.789-138.791,142.935-219.58l145.005,53.859
	C1801.637,1417.808,1739.491,1511.025,1662.846,1591.814z"/>
<path fill="#010101" d="M409.586,1245.873c-37.287-84.931-55.931-176.078-55.931-271.366c0-6.216,0-12.43,0-18.644V924.79
	l-277.581-6.214v31.072c0,8.285,0,16.572,0,26.929c0,132.577,26.93,263.082,80.789,383.228l12.428,29.002l254.796-111.862
	L409.586,1245.873z M200.364,1305.947c-41.43-103.575-62.145-211.294-64.216-323.155l155.363,4.144
	c2.071,89.074,18.644,176.077,49.717,256.866L200.364,1305.947z"/>
<path fill="#010101" d="M1074.538,1645.673h-31.072c-4.144,0-8.285,0-14.501,0h-4.143c-95.29,0-184.364-18.643-271.367-55.931
	l-29-12.429l-111.862,254.795l29.001,12.43c120.147,53.858,248.58,80.788,381.155,80.788h2.072c8.286,0,16.572,0,26.93,0h31.072
	l-6.214-246.509L1074.538,1645.673z M695.453,1798.965l62.146-140.862c82.86,33.144,167.791,49.716,256.866,49.716l4.143,153.291
	C906.747,1861.109,799.028,1840.395,695.453,1798.965z"/>
</svg>
