<?xml version="1.0" encoding="utf-8"?>
<!-- Generator: Adobe Illustrator 16.0.0, SVG Export Plug-In . SVG Version: 6.00 Build 0)  -->
<!DOCTYPE svg PUBLIC "-//W3C//DTD SVG 1.1//EN" "http://www.w3.org/Graphics/SVG/1.1/DTD/svg11.dtd">
<svg version="1.1" id="Layer_1" xmlns="http://www.w3.org/2000/svg" xmlns:xlink="http://www.w3.org/1999/xlink" x="0px" y="0px"
	 width="2000px" height="2000px" viewBox="0 0 2000 2000" enable-background="new 0 0 2000 2000" xml:space="preserve">
<g>
	<path fill="#010101" d="M624.488,905.191h-6.516H145.086v767.699h479.402V905.191z M572.664,1614.555H196.906V966.707h375.758
		V1614.555z"/>
	<path fill="#010101" d="M384.766,1705.258c-23.254,0-42.105,18.875-42.105,42.109c0,23.273,18.852,42.148,42.105,42.148
		c23.273,0,42.129-18.875,42.129-42.148C426.895,1724.133,408.039,1705.258,384.766,1705.258z"/>
	<path fill="#010101" d="M1971.984,1407.266V137.492h-871.344H229.277V804.75H28.461v1059.242h709.383v-456.727h327.141v152.199
		H831.797v58.336h268.844h268.824v-58.336h-233.207v-152.199H1971.984z M686.023,1815.395H80.281V856.57h605.742V1815.395z
		 M1100.641,1348.977H737.844V804.75h-6.469H287.57V195.785h813.07h813.051v1153.191H1100.641z"/>
</g>
</svg>
