<?xml version="1.0" encoding="utf-8"?>
<!-- Generator: Adobe Illustrator 16.0.0, SVG Export Plug-In . SVG Version: 6.00 Build 0)  -->
<!DOCTYPE svg PUBLIC "-//W3C//DTD SVG 1.1//EN" "https://www.w3.org/Graphics/SVG/1.1/DTD/svg11.dtd">
<svg version="1.1" id="Layer_1" xmlns="https://www.w3.org/2000/svg" xmlns:xlink="https://www.w3.org/1999/xlink" x="0px" y="0px"
	 width="2000px" height="2000px" viewBox="0 0 2000 2000" enable-background="new 0 0 2000 2000" xml:space="preserve">
<g>
	<path fill="#010101" d="M538.59,85.377c-10.458,2.413-18.532,12.957-17.729,22.668v131.239H205.091c-0.805,0-1.61,0-1.61,0
		c-11.289,0.804-20.942,11.348-20.942,22.668V804.72c0,191.198,153.044,344.302,342.375,344.302c28.988,0,50.766,0,75.732,0
		c69.269,103.687,177.208,179.016,302.902,204.959v230.07H727.115h-1.636c-0.805,0-0.805,0-1.61,0
		c-173.185,0-314.193,135.291-324.649,306.205c-0.805,12.957,10.457,25.14,23.357,24.334c5.63,0,9.681-0.803,10.486-0.803h1147.135
		c12.095,0,23.357-12.154,22.553-24.306c-10.458-170.944-152.241-305.431-324.649-305.431h-178.844v-230.07
		c124.859-26.747,232.826-101.244,302.095-204.959c25.772,0,47.52,0,76.537,0c189.302,0,341.573-153.102,341.573-344.302V261.98
		c0-12.153-10.459-22.668-22.555-22.668h-315.772V108.074c0-11.349-10.486-22.668-22.553-22.668H543.416
		C541.836,85.377,540.198,85.377,538.59,85.377L538.59,85.377z M565.97,131.546h870.031v750.143c0,11.347-0.803,22.696-1.638,34.045
		c-0.775,6.493-1.607,12.957-2.413,19.45c-0.805,7.269-1.607,14.565-2.413,21.863c-4.827,25.914-12.096,51.024-20.943,75.33
		c0,0,0,0.805-0.806,1.638c-10.456,27.552-23.356,55.075-38.671,79.409c-0.803,1.61-1.638,3.218-2.412,4.855
		c-77.342,119.891-211.885,200.106-365.733,200.106c-153.849,0-287.588-79.411-364.93-199.301c0,0,0,0,0-0.806
		c-0.803,0-0.803-0.805-0.803-0.805c-0.776-1.638-1.609-2.44-2.415-4.051c-28.988-47.002-49.932-99.664-60.418-156.349
		c-0.805-7.296-1.638-14.595-2.413-21.863c-2.415-17.841-4.052-35.653-4.052-53.468V261.98c0-0.805,0-1.608,0-2.414V131.546H565.97z
		 M227.645,284.649h293.219v597.04c0,80.214,19.334,155.544,53.983,221.969c-16.117,0-31.431,0-49.933,0
		c-164.365,0-297.269-132.044-297.269-298.938V284.649L227.645,284.649z M1481.136,284.649h293.219v520.099
		c0,166.894-132.13,298.938-296.437,298.938c-19.335,0-34.648,0-50.766,0c34.648-66.453,53.983-141.783,53.983-221.969V284.649
		L1481.136,284.649z M949.43,1360.474c16.922,2.443,33.843,3.246,51.57,3.246c17.727,0,35.425-0.803,52.347-3.246v222.774H949.43
		V1360.474L949.43,1360.474z M722.26,1629.417c0.805,0,0.805,0,1.638,0h554.232c140.175,0,252.135,103.685,273.107,238.977H450.79
		C471.734,1733.937,582.892,1630.25,722.26,1629.417L722.26,1629.417z"/>
</g>
</svg>
