<?xml version="1.0" encoding="utf-8"?>
<!-- Generator: Adobe Illustrator 16.0.0, SVG Export Plug-In . SVG Version: 6.00 Build 0)  -->
<!DOCTYPE svg PUBLIC "-//W3C//DTD SVG 1.1//EN" "http://www.w3.org/Graphics/SVG/1.1/DTD/svg11.dtd">
<svg version="1.1" id="Layer_1" xmlns="http://www.w3.org/2000/svg" xmlns:xlink="http://www.w3.org/1999/xlink" x="0px" y="0px"
	 width="2000px" height="2000px" viewBox="0 0 2000 2000" enable-background="new 0 0 2000 2000" xml:space="preserve">
<path fill="#010101" d="M1090.523,1964.621H914.466c-46.601,0-82.848-33.657-90.617-77.672l-25.891-157.931
	c-54.369-15.534-108.739-38.836-160.52-64.727l-132.041,93.205c-36.247,25.891-88.028,23.302-119.096-10.356l-124.274-124.274
	c-31.069-31.069-36.248-82.85-10.357-119.096l93.205-129.452c-28.479-51.781-51.781-106.15-69.904-163.11l-160.521-25.89
	c-44.014-7.768-77.671-46.604-77.671-90.617V918.646c0-46.603,33.657-82.85,77.671-90.617l157.931-25.891
	c15.534-56.959,38.836-111.329,67.315-165.7l-93.205-132.041c-25.891-36.248-23.302-88.028,10.356-119.096l124.274-124.274
	c31.069-31.069,82.85-36.247,119.096-10.356l129.452,93.205c51.781-28.479,106.151-51.781,163.11-69.905l25.891-160.521
	c7.767-44.014,46.603-77.671,90.617-77.671h176.055c46.603,0,82.851,33.657,90.617,77.671l25.891,157.932
	c59.548,15.534,116.507,38.835,168.288,69.905l132.041-93.206c36.247-25.89,88.027-23.302,119.097,10.357l124.274,124.274
	c31.068,31.069,36.247,82.85,10.356,119.096l-93.206,129.453c28.48,51.781,51.78,106.15,67.315,163.11l157.932,25.89l0,0
	c44.015,7.767,77.672,46.603,77.672,90.617v176.055c0,46.603-33.657,82.851-77.672,90.617l-157.932,25.89
	c-15.535,56.96-38.835,111.329-67.315,163.11l93.206,132.041c25.891,36.247,23.301,88.028-10.356,119.096l-124.274,124.274
	c-31.069,31.068-82.85,36.247-119.097,10.356l-129.453-93.205c-51.781,28.479-106.15,51.78-163.107,67.314l-25.891,157.932
	C1173.371,1933.553,1134.535,1964.621,1090.523,1964.621z M634.85,1607.332c5.178,0,7.767,0,12.945,2.589
	c56.959,33.657,116.507,56.96,178.644,72.493c10.357,2.588,18.125,10.357,18.125,20.712l28.479,173.467
	c2.589,20.712,20.712,33.657,41.424,33.657h176.057c20.71,0,36.245-15.533,41.424-33.657l28.479-173.467
	c2.59-10.356,10.357-18.124,18.125-20.712c64.727-15.533,124.273-41.424,181.234-75.083c7.765-5.179,20.71-5.179,28.479,0
	l144.986,103.562c15.535,12.945,38.836,10.357,51.781-5.178l124.275-124.274c12.945-12.945,15.533-36.247,5.177-51.78
	l-103.562-144.986c-5.178-7.768-5.178-18.124,0-28.479c33.658-56.959,59.549-119.096,75.082-181.233
	c2.589-10.356,10.357-18.123,20.713-18.123l173.467-28.479c20.711-2.588,33.656-20.712,33.656-41.424V910.879
	c0-20.712-15.535-36.248-33.656-41.424l-173.467-28.479c-10.355-2.588-18.124-10.357-20.713-18.124
	c-15.533-64.726-41.424-124.274-75.082-181.233c-5.178-7.767-5.178-20.712,0-28.479l103.562-144.986
	c12.945-15.534,10.356-38.836-5.177-51.781l-124.275-124.274c-12.945-12.945-36.246-15.534-51.781-5.178l-144.986,103.562
	c-7.767,5.179-18.124,5.179-28.479,0c-56.961-33.657-121.688-59.548-186.414-77.671c-10.355-2.588-18.122-10.357-18.122-20.712
	l-28.48-173.467c-2.59-20.712-20.712-33.657-41.426-33.657H909.29c-20.713,0-36.248,15.534-41.426,33.657l-31.069,176.055
	c-2.588,10.357-10.357,18.124-18.124,20.712c-64.727,18.124-124.274,41.424-181.234,77.672c-7.767,5.178-20.712,5.178-28.479,0
	L466.561,292.098c-15.534-12.945-38.835-10.357-51.781,5.178L290.506,421.55c-12.945,12.945-15.533,36.248-5.178,51.781
	L388.89,618.317c5.179,7.767,5.179,18.124,0,28.479c-33.657,56.959-56.959,119.096-75.083,181.233
	c-2.588,10.357-10.357,18.124-20.712,18.124l-173.467,28.479c-20.712,2.589-33.657,20.712-33.657,41.424v176.055
	c0,20.712,15.534,36.247,33.657,41.424l176.055,31.069c10.357,2.588,18.124,10.356,20.712,18.123
	c18.124,64.727,41.424,124.274,77.671,181.233c5.179,7.768,5.179,20.713,0,28.479l-100.974,142.397
	c-12.945,15.533-10.356,38.836,5.179,51.781l124.274,124.273c12.945,12.945,36.248,15.534,51.781,5.179l144.986-103.562
	C624.494,1609.921,629.671,1607.332,634.85,1607.332z M1002.494,1400.209c-220.068,0-398.714-178.646-398.714-398.715
	c0-220.069,178.646-398.714,398.714-398.714c220.069,0,398.713,178.645,398.713,398.714
	C1401.209,1221.563,1222.563,1400.209,1002.494,1400.209z M1002.494,654.561c-191.59,0-346.933,155.343-346.933,346.933
	c0,191.591,155.343,346.934,346.933,346.934c191.589,0,346.933-155.343,346.933-346.934
	C1349.428,809.904,1194.085,654.561,1002.494,654.561z"/>
</svg>
