<?xml version="1.0" encoding="utf-8"?>
<!-- Generator: Adobe Illustrator 16.0.0, SVG Export Plug-In . SVG Version: 6.00 Build 0)  -->
<!DOCTYPE svg PUBLIC "-//W3C//DTD SVG 1.1//EN" "http://www.w3.org/Graphics/SVG/1.1/DTD/svg11.dtd">
<svg version="1.1" id="Layer_1" xmlns="http://www.w3.org/2000/svg" xmlns:xlink="http://www.w3.org/1999/xlink" x="0px" y="0px"
	 width="2000px" height="2000px" viewBox="0 0 2000 2000" enable-background="new 0 0 2000 2000" xml:space="preserve">
<g>
	<path fill="#010101" d="M1861.093,1328.049c-60.471-60.471-140.292-94.334-227.37-94.334c-84.659,0-166.898,33.863-227.369,94.334
		s-94.335,140.292-94.335,227.369c0,84.659,33.864,166.899,94.335,227.37s140.292,94.335,227.369,94.335
		c84.659,0,166.899-33.864,227.37-94.335s94.335-140.292,94.335-227.37C1955.428,1470.759,1921.563,1388.52,1861.093,1328.049z
		 M1839.323,1761.019c-55.633,55.634-128.198,84.659-205.601,84.659c-77.401,0-149.966-29.025-205.601-84.659
		c-55.633-55.633-84.659-128.198-84.659-205.601c0-77.401,29.026-149.966,84.659-205.601
		c55.635-55.632,128.199-84.659,205.601-84.659c77.402,0,149.968,29.027,205.601,84.659
		c55.634,55.635,84.659,128.199,84.659,205.601C1923.982,1632.82,1894.957,1705.386,1839.323,1761.019z"/>
	<path fill="#010101" d="M1764.34,1434.477c-7.256-4.836-16.932-2.418-21.77,4.838l-116.104,198.344l-101.592-106.429
		c-4.836-7.256-16.93-7.256-21.768,0c-7.257,4.838-7.257,16.933,0,21.771l116.104,120.941c2.418,2.418,7.256,4.838,12.094,4.838
		c0,0,0,0,2.418,0c4.838,0,9.676-2.42,12.094-7.258l128.199-215.275C1774.016,1448.99,1771.596,1439.314,1764.34,1434.477z"/>
	<path fill="#010101" d="M1229.779,1695.711l-365.243,183.83V887.822l295.097-145.13v372.5c0,4.837,2.419,9.675,7.257,14.513
		c2.419,2.418,4.838,2.418,7.256,2.418c2.42,0,4.838,0,7.258-2.418l162.06-89.497c4.839-2.418,7.258-7.256,7.258-14.513V645.939
		l268.49-133.036v604.708c0,9.676,7.256,16.932,16.932,16.932c9.674,0,16.932-7.256,16.932-16.932V488.716c0-2.418,0-2.418,0-4.838
		l0,0c0,0,0-2.418-2.42-2.418l0,0l-2.418-2.419l0,0l-2.42-2.418l0,0L854.861,79.934c-4.838-2.419-9.676-2.419-14.514,0
		L397.703,300.047c-4.838,0-9.676,2.418-12.094,7.256L54.229,474.203l0,0c0,0-2.418,0-2.418,2.418l0,0l-2.42,2.418l0,0
		c0,0,0,2.419-2.418,2.419l0,0c0,2.418,0,2.418,0,4.838v1023.164c0,4.838,2.418,12.095,9.676,14.513l786.119,399.106l0,0h2.418l0,0
		h2.418h2.42l0,0h2.418l0,0l387.012-195.925c7.256-4.838,9.676-14.514,7.256-21.77
		C1246.71,1695.711,1237.036,1693.291,1229.779,1695.711z M1181.403,689.478l-745-372.499l120.941-60.471l749.836,374.919
		l-120.941,60.471C1186.239,691.898,1183.821,689.478,1181.403,689.478z M1321.695,1018.439l-130.617,70.146V725.76l130.617-65.309
		V1018.439z M847.604,111.378l749.837,374.919l-256.396,128.198L591.208,239.577L847.604,111.378z M402.541,333.911l749.836,374.917
		L847.604,861.216L97.767,486.297L402.541,333.911z M78.417,512.904L833.091,890.24v991.72L78.417,1499.785V512.904z"/>
</g>
</svg>
