<?xml version="1.0" encoding="utf-8"?>
<!-- Generator: Adobe Illustrator 16.0.0, SVG Export Plug-In . SVG Version: 6.00 Build 0)  -->
<!DOCTYPE svg PUBLIC "-//W3C//DTD SVG 1.1//EN" "http://www.w3.org/Graphics/SVG/1.1/DTD/svg11.dtd">
<svg version="1.1" id="Layer_1" xmlns="http://www.w3.org/2000/svg" xmlns:xlink="http://www.w3.org/1999/xlink" x="0px" y="0px"
	 width="2000px" height="2000px" viewBox="0 0 2000 2000" enable-background="new 0 0 2000 2000" xml:space="preserve">
<g>
	<path fill="#010101" d="M480.726,569.161c-9.004,0-18.03-3.432-24.894-10.295l-95.435-95.175
		c-13.799-13.751-13.822-36.083-0.07-49.857c13.727-13.798,36.081-13.822,49.856-0.07l70.518,70.353l151.45-151.05
		c13.774-13.751,36.105-13.728,49.857,0.071c13.75,13.774,13.727,36.105-0.07,49.856L505.595,558.89
		C498.731,565.729,489.729,569.161,480.726,569.161z"/>
</g>
<g>
	<path fill="#010101" d="M480.726,957.201c-9.004,0-18.03-3.432-24.894-10.297l-95.435-95.175
		c-13.799-13.751-13.822-36.083-0.07-49.857c13.727-13.797,36.081-13.822,49.856-0.07l70.518,70.353l151.45-151.049
		c13.774-13.774,36.105-13.729,49.857,0.07c13.75,13.775,13.727,36.106-0.07,49.856L505.595,946.904
		C498.731,953.769,489.729,957.201,480.726,957.201z"/>
</g>
<g>
	<path fill="#010101" d="M1604.952,515.661H879.389c-19.486,0-35.259-15.772-35.259-35.259c0-19.486,15.773-35.259,35.259-35.259
		h725.54c19.464,0,35.259,15.773,35.259,35.259C1640.188,499.889,1624.415,515.661,1604.952,515.661z"/>
</g>
<g>
	<path fill="#010101" d="M1604.952,895.026H879.389c-19.486,0-35.259-15.773-35.259-35.259c0-19.486,15.773-35.259,35.259-35.259
		h725.54c19.464,0,35.259,15.773,35.259,35.259C1640.188,879.253,1624.415,895.026,1604.952,895.026z"/>
</g>
<g>
	<path fill="#010101" d="M480.726,1677.263c-9.004,0-18.03-3.433-24.894-10.297l-95.435-95.175
		c-13.799-13.751-13.822-36.082-0.07-49.88c13.727-13.822,36.081-13.847,49.856-0.07l70.518,70.354l151.45-151.074
		c13.774-13.751,36.105-13.729,49.857,0.07c13.75,13.798,13.727,36.105-0.07,49.88l-176.343,175.873
		C498.731,1673.831,489.729,1677.263,480.726,1677.263z"/>
</g>
<g>
	<path fill="#010101" d="M1604.952,1615.112H879.389c-19.486,0-35.259-15.796-35.259-35.26c0-19.463,15.773-35.259,35.259-35.259
		h725.54c19.464,0,35.259,15.796,35.259,35.259C1640.188,1599.316,1624.415,1615.112,1604.952,1615.112z"/>
</g>
<g>
	<path fill="#010101" d="M1604.952,1274.391H879.389c-19.486,0-35.259-15.796-35.259-35.259s15.773-35.259,35.259-35.259h725.54
		c19.464,0,35.259,15.796,35.259,35.259S1624.415,1274.391,1604.952,1274.391z"/>
</g>
<g>
	<path fill="#010101" d="M1905.313,1928.331H95.343c-19.486,0-35.259-15.796-35.259-35.259V106.608
		c0-19.486,15.773-35.259,35.259-35.259h1809.971c19.463,0,35.259,15.773,35.259,35.259v1786.464
		C1940.572,1912.535,1924.776,1928.331,1905.313,1928.331z M130.602,1857.812h1739.453V141.867H130.602V1857.812z"/>
</g>
</svg>
