<?xml version="1.0" encoding="utf-8"?>
<!-- Generator: Adobe Illustrator 21.1.0, SVG Export Plug-In . SVG Version: 6.00 Build 0)  -->
<svg version="1.1" id="Layer_1" xmlns="https://www.w3.org/2000/svg" xmlns:xlink="https://www.w3.org/1999/xlink" x="0px" y="0px"
	 viewBox="0 0 2000 2000" style="enable-background:new 0 0 2000 2000;" xml:space="preserve">
<g>
	<path d="M260.9,541.5v-13.4v-40.3v-12.1h-67.1v-84.6c0-88.6,57.7-169.2,145-201.4L321.3,140C212.5,178.9,140,281,140,392.4v149
		h13.4h40.3H260.9z"/>
	<path d="M328,541.5h26.9h26.9h80.6v-13.4v-40.3v-12.1h-80.6v-84.6c0-88.6,57.7-169.2,143.7-201.4L506.6,140
		C400.5,178.9,328,279.6,328,392.4V541.5z"/>
	<path d="M1846.7,1457.3H1805h-67.1v13.4v40.3v12.1h67.1v84.6c0,88.6-57.7,169.2-145,201.4l18.8,51
		c107.4-38.9,181.3-141,181.3-252.4v-150.4H1846.7z"/>
	<path d="M1670.8,1457.3h-26.9h-26.9h-80.6v13.4v40.3v12.1h80.6v84.6c0,88.6-57.7,169.2-143.7,201.4l18.8,51
		c107.4-38.9,178.6-139.6,178.6-252.4C1670.8,1607.7,1670.8,1457.3,1670.8,1457.3z"/>
	<path d="M1799.7,1053.1h-1606c-14.8,0-26.9,12.1-26.9,26.9s12.1,26.9,26.9,26.9h1606c14.8,0,26.9-12.1,26.9-26.9
		S1814.4,1053.1,1799.7,1053.1z"/>
	<path d="M1799.7,851.7h-1606c-14.8,0-26.9,12.1-26.9,26.9s12.1,26.9,26.9,26.9h1606c14.8,0,26.9-12.1,26.9-26.9
		S1814.4,851.7,1799.7,851.7z"/>
	<path d="M690.5,704H1805c14.8,0,26.9-12.1,26.9-26.9c0-14.8-12.1-26.9-26.9-26.9H690.5c-14.8,0-26.9,12.1-26.9,26.9
		C663.7,691.9,675.8,704,690.5,704z"/>
	<path d="M1321.6,1254.5H193.7c-14.8,0-26.9,12.1-26.9,26.9c0,14.8,12.1,26.9,26.9,26.9h1127.9c14.8,0,26.9-12.1,26.9-26.9
		C1348.5,1266.6,1336.4,1254.5,1321.6,1254.5z"/>
</g>
</svg>
