<?xml version="1.0" encoding="utf-8"?>
<!-- Generator: Adobe Illustrator 16.0.0, SVG Export Plug-In . SVG Version: 6.00 Build 0)  -->
<!DOCTYPE svg PUBLIC "-//W3C//DTD SVG 1.1//EN" "http://www.w3.org/Graphics/SVG/1.1/DTD/svg11.dtd">
<svg version="1.1" id="Layer_1" xmlns="http://www.w3.org/2000/svg" xmlns:xlink="http://www.w3.org/1999/xlink" x="0px" y="0px"
	 width="2000px" height="2000px" viewBox="0 0 2000 2000" enable-background="new 0 0 2000 2000" xml:space="preserve">
<g>
	<path fill="#010101" d="M302.087,1164.597c-9.52-0.682-18.426,6.896-19,16.849l-11.746,192.438
		c-62.207-119.062-94.928-250.948-94.928-384.88c0-460.411,374.572-835.021,835.021-835.021
		c223.042,0,432.719,86.848,590.428,244.556c7.004,7.004,18.392,7.004,25.396,0s7.004-18.391,0-25.393
		c-164.498-164.498-383.229-255.08-615.822-255.08c-480.235,0-870.937,390.7-870.937,870.937c0,132.746,31.178,263.375,89.9,382.617
		L93.555,1269.223c-8.008-5.963-19.215-4.274-25.141,3.628c-5.963,7.974-4.31,19.215,3.626,25.143l202.783,151.779
		c0.289,0.218,0.685,0.146,0.972,0.325c0.106,0.072,0.179,0.143,0.286,0.215c0.431,0.286,0.755,0.683,1.187,0.898
		c2.189,1.147,4.597,1.938,7.219,2.082c0.359,0.036,0.719,0.036,1.076,0.036l0,0l0,0h0.038c2.622,0,5.063-0.683,7.326-1.689
		c0.467-0.214,0.861-0.502,1.329-0.754c0.252-0.142,0.539-0.07,0.754-0.215c0.504-0.287,0.754-0.789,1.221-1.148
		c1.042-0.754,1.94-1.616,2.766-2.587c0.288-0.321,0.72-0.467,0.97-0.824c0.038-0.073,0.038-0.144,0.106-0.216
		c0.324-0.468,0.469-1.007,0.754-1.51c0.577-1.006,1.044-2.011,1.438-3.125c0.215-0.574,0.608-1.113,0.754-1.723
		c0.145-0.54,0-1.079,0.106-1.616c0.073-0.54,0.36-0.971,0.396-1.509l15.409-252.853
		C319.543,1173.721,311.998,1165.174,302.087,1164.597z"/>
	<path fill="#010101" d="M1950.826,680.051l-202.783-151.783c-0.072-0.034-0.146-0.034-0.217-0.106
		c-0.468-0.324-1.006-0.467-1.472-0.754c-0.934-0.574-1.94-0.972-2.981-1.328c-0.646-0.252-1.221-0.685-1.867-0.827
		c-0.574-0.146-1.15-0.037-1.725-0.107c-0.504-0.071-0.936-0.358-1.438-0.396c-0.612-0.035-1.113,0.217-1.688,0.251
		c-0.647,0.038-1.33-0.179-1.978-0.072c-0.718,0.109-1.365,0.504-2.047,0.685c-0.897,0.25-1.761,0.537-2.587,0.934
		c-0.646,0.287-1.327,0.359-1.939,0.717c-0.068,0.037-0.178,0.037-0.287,0.107c-0.537,0.323-0.826,0.863-1.328,1.223
		c-0.826,0.609-1.508,1.292-2.228,2.045c-0.429,0.467-1.005,0.719-1.399,1.258c-0.035,0.073-0.035,0.144-0.108,0.215
		c-0.321,0.468-0.468,1.007-0.755,1.509c-0.573,0.934-0.969,1.904-1.327,2.945c-0.253,0.646-0.683,1.222-0.826,1.868
		c-0.146,0.537,0,1.114-0.108,1.65c-0.07,0.504-0.357,0.934-0.394,1.473L1703.9,794.409c-0.611,9.875,6.934,18.425,16.846,19
		c0.358,0,0.754,0.034,1.075,0.034c9.446,0,17.312-7.325,17.923-16.88l11.744-192.439c62.243,119.098,94.965,250.947,94.965,384.879
		c0,460.41-374.609,835.02-835.021,835.02c-223.041,0-432.719-86.847-590.427-244.59c-7.006-7.004-18.391-7.004-25.395,0
		s-7.004,18.389,0,25.393c164.497,164.496,383.191,255.114,615.821,255.114c480.237,0,870.936-390.7,870.936-870.937
		c0-132.746-31.212-263.375-89.899-382.617l136.844,102.433c3.23,2.407,7.002,3.594,10.775,3.594c5.422,0,10.847-2.479,14.362-7.185
		C1960.38,697.255,1958.763,685.976,1950.826,680.051z"/>
</g>
<path fill="#010101" d="M1208.892,653.782c-3.091,2.637-6.066,5.504-8.926,8.611l-448.512,468.636l-93.703,208.521l226.091-75.587
	l452.743-474.372c16.637-19.016,25.935-44.189,24.339-69.33c-1.595-25.173-12.893-48.14-31.809-64.67
	c-18.936-16.545-43.215-24.693-68.355-22.892C1240.751,634.121,1223.504,641.327,1208.892,653.782 M1262.503,657.138
	c18.521-1.289,36.514,4.687,50.496,16.9c13.959,12.207,22.298,29.165,23.479,47.769c1.058,16.719-3.825,32.934-13.753,46.298
	l-96.95-97.364C1236.42,662.856,1249.032,658.089,1262.503,657.138z M705.172,1297.236l65.933-146.479l92.555,92.934
	L705.172,1297.236z M883.496,1228.476l-97.397-97.793l422.801-441.752l97.504,97.917L883.496,1228.476z"/>
</svg>
