<?xml version="1.0" encoding="utf-8"?>
<!-- Generator: Adobe Illustrator 16.0.0, SVG Export Plug-In . SVG Version: 6.00 Build 0)  -->
<!DOCTYPE svg PUBLIC "-//W3C//DTD SVG 1.1//EN" "https://www.w3.org/Graphics/SVG/1.1/DTD/svg11.dtd">
<svg version="1.1" id="Layer_1" xmlns="https://www.w3.org/2000/svg" xmlns:xlink="https://www.w3.org/1999/xlink" x="0px" y="0px"
	 width="2000px" height="2000px" viewBox="0 0 2000 2000" enable-background="new 0 0 2000 2000" xml:space="preserve">
<g>
	<path fill="#010101" d="M901.184,1860.246c-16.029,0-32.058,0-44.881,0c-32.057,3.205-57.703-6.412-73.731-35.265
		c-16.029-28.85-9.617-57.702,9.617-83.348c-22.44-32.057-28.85-64.114-3.205-96.171c3.205-3.205,3.205-9.617,0-12.823
		c-19.235-25.646-19.235-51.291-6.412-80.144c-6.412-6.409-9.617-9.616-16.029-12.821c-22.44-22.44-38.469-51.293-38.469-86.555
		c3.207-73.73,0-147.462-35.262-211.576c-19.235-35.264-38.469-67.321-60.909-102.583
		c-64.114-99.378-118.612-198.754-163.49-307.749C333.772,510.641,551.76,141.985,885.155,68.253
		c333.392-76.937,653.963,134.64,721.285,474.445c19.233,108.995,0,208.371-38.469,307.75
		c-38.469,96.171-89.76,185.931-144.257,272.485c-25.646,38.469-48.086,76.936-70.526,115.404
		c-32.057,64.114-41.674,134.641-35.262,205.167c3.205,44.878-16.028,80.143-51.293,108.992
		c9.619,28.853,12.824,60.909-12.821,86.555c25.646,35.265,25.646,67.321,3.205,99.378c6.411,12.822,12.823,25.646,16.028,38.468
		c9.617,48.085-22.44,83.35-70.525,86.555c-19.234,0-35.263,0-54.496,0c0,16.028,3.205,28.852,3.205,44.88
		c0,38.468-32.058,67.319-70.526,70.524c-32.057,0-67.319,0-99.376,0c-51.292,0-80.143-28.851-80.143-83.348
		C897.977,1882.687,901.184,1873.067,901.184,1860.246z M1023,1514.029c64.114,0,128.229,0,195.547,0
		c22.441,0,38.47-9.618,48.086-28.852c6.412-12.824,9.619-25.646,9.619-38.47c-3.207-80.143,3.205-160.285,41.674-230.812
		c19.233-38.467,44.879-76.936,70.525-115.404c54.496-86.555,105.789-173.109,144.258-269.28
		c38.467-96.172,60.907-195.548,35.262-298.131c-54.498-224.4-192.343-371.862-416.742-426.359
		c-224.4-51.292-413.538,19.234-557.794,198.755c-86.553,105.788-125.021,234.016-112.2,371.861
		c6.412,76.938,41.676,150.669,70.526,221.195c44.88,102.583,112.2,192.342,169.902,288.514
		c25.647,44.879,44.881,92.964,51.293,144.257c6.412,41.674,3.205,83.348,3.205,125.021c0,35.264,22.44,57.704,57.702,57.704
		C894.771,1514.029,958.886,1514.029,1023,1514.029z M1023,1760.867c-57.702,0-115.405,0-176.314,0
		c-22.44,0-32.057,12.824-32.057,28.853c0,19.233,12.823,28.853,32.057,28.853c118.612,0,234.016,0,352.628,0
		c16.028,0,28.852-6.412,32.057-25.647c3.205-19.233-9.617-35.262-35.262-35.262C1138.404,1760.867,1080.702,1760.867,1023,1760.867
		z M1023,1558.908c-54.498,0-112.2,0-166.697,0c-25.646,0-38.469,9.617-38.469,28.853c0,19.233,12.823,28.85,38.469,28.85
		c112.2,0,227.606,0,339.807,0c25.645,0,38.467-9.616,38.467-28.85c0-19.235-12.822-28.853-35.262-28.853
		C1138.404,1558.908,1080.702,1558.908,1023,1558.908z M1026.205,1715.989c57.704,0,115.406,0,173.109,0
		c22.439,0,35.262-9.617,35.262-28.853c0-16.028-12.822-28.851-32.057-28.851c-115.405,0-234.017,0-349.422,0
		c-9.617,0-25.646,9.617-28.852,16.029c-12.822,19.233,3.207,41.674,32.057,41.674
		C907.595,1719.193,968.502,1715.989,1026.205,1715.989z M1023,1930.771c16.028,0,35.262,0,51.291,0
		c22.439,0,32.057-9.618,32.057-32.057c0-22.44-9.617-35.264-28.851-35.264c-35.264,0-70.525,0-105.788,0
		c-22.44,0-32.057,12.823-32.057,35.264c0,22.438,9.617,32.057,32.057,35.262C990.943,1930.771,1006.972,1930.771,1023,1930.771z"/>
	<path fill="#010101" d="M1301.897,622.84L1045.44,914.562l-346.216-224.4l-163.493,163.49c-9.617,9.617-9.617,25.646,0,35.264
		c6.412,6.41,12.824,6.41,16.029,6.41c6.412,0,12.824-3.205,16.028-6.41l134.64-134.64l349.423,224.399l288.515-330.188
		l67.319,41.674l12.823-192.343l-173.109,73.731L1301.897,622.84z"/>
</g>
</svg>
