<?xml version="1.0" encoding="utf-8"?>
<!-- Generator: Adobe Illustrator 16.0.0, SVG Export Plug-In . SVG Version: 6.00 Build 0)  -->
<!DOCTYPE svg PUBLIC "-//W3C//DTD SVG 1.1//EN" "http://www.w3.org/Graphics/SVG/1.1/DTD/svg11.dtd">
<svg version="1.1" id="Layer_1" xmlns="http://www.w3.org/2000/svg" xmlns:xlink="http://www.w3.org/1999/xlink" x="0px" y="0px"
	 width="2000px" height="2000px" viewBox="0 0 2000 2000" enable-background="new 0 0 2000 2000" xml:space="preserve">
<g>
	<path fill="#010101" d="M1847.378,183.267h-814.846V53.79c0-17.884-14.5-32.382-32.382-32.382
		c-17.884,0-32.382,14.498-32.382,32.382v129.477H153.043c-72.553,0-131.58,55.649-131.58,124.05v955.973
		c0,68.401,59.026,124.05,131.58,124.05h814.725v104.439l-395.631,432.769c-12.066,13.199-11.148,33.682,2.052,45.748
		c6.212,5.681,14.037,8.482,21.84,8.482c8.774,0,17.522-3.546,23.909-10.533l347.831-380.481v358.633
		c0,17.883,14.498,32.382,32.382,32.382c17.882,0,32.382-14.499,32.382-32.382v-358.626l347.79,380.475
		c6.386,6.987,15.133,10.533,23.911,10.533c7.8,0,15.623-2.802,21.837-8.48c13.201-12.066,14.121-32.549,2.054-45.75
		l-395.592-432.769V1387.34h814.846c72.487,0,131.459-55.648,131.459-124.05V307.317
		C1978.837,238.916,1919.865,183.267,1847.378,183.267z M1914.073,1263.29c0,32.69-29.921,59.286-66.695,59.286H153.043
		c-36.842,0-66.816-26.596-66.816-59.286V307.317c0-32.69,29.974-59.286,66.816-59.286h1694.334
		c36.774,0,66.695,26.596,66.695,59.286V1263.29z"/>
	<path fill="#010101" d="M1717.303,426.085c-13.573-11.648-34.015-10.08-45.659,3.49l-441.658,514.751L710.427,634.272
		l-430.085,463.65c-12.164,13.113-11.393,33.601,1.718,45.763c6.234,5.782,14.134,8.642,22.015,8.642
		c8.696,0,17.368-3.482,23.748-10.358L722.256,716.75l521.371,311.134l477.168-556.137
		C1732.439,458.174,1730.876,437.731,1717.303,426.085z"/>
</g>
</svg>
