<?xml version="1.0" encoding="utf-8"?>
<!-- Generator: Adobe Illustrator 16.0.0, SVG Export Plug-In . SVG Version: 6.00 Build 0)  -->
<!DOCTYPE svg PUBLIC "-//W3C//DTD SVG 1.1//EN" "https://www.w3.org/Graphics/SVG/1.1/DTD/svg11.dtd">
<svg version="1.1" id="Layer_1" xmlns="https://www.w3.org/2000/svg" xmlns:xlink="https://www.w3.org/1999/xlink" x="0px" y="0px"
	 width="2000px" height="2000px" viewBox="0 0 2000 2000" enable-background="new 0 0 2000 2000" xml:space="preserve">
<g>
	<path fill="#010101" d="M1000.15,1407.811c10.059,0,19.753-4.021,26.674-11.071c7.024-6.921,11.066-16.61,11.066-26.668
		c0-9.933-4.018-19.623-11.066-26.673c-14.079-14.1-39.247-13.971-53.347,0c-7.027,7.045-11.069,16.74-11.069,26.673
		c0,9.928,4.02,19.618,11.069,26.668S990.22,1407.811,1000.15,1407.811z"/>
	<path fill="#010101" d="M1438.127,1042.648h59.944c13.908,0,25.167-11.263,25.167-25.166c0-13.908-11.259-25.17-25.167-25.17
		h-59.944c-13.904,0-25.167,11.262-25.167,25.17C1412.96,1031.386,1424.223,1042.648,1438.127,1042.648z"/>
	<path fill="#010101" d="M1942.154,228.891H58.146c-13.841,0-25.169,11.306-25.169,25.147v1235.918
		c0,13.841,11.328,25.167,25.169,25.167H697.06l-143.571,217.16c-5.158,7.676-5.523,17.625-1.139,25.793
		c4.276,8.168,12.832,13.22,22.136,13.22h1109.605c13.842,0,25.167-11.2,25.167-25.171v-230.981h232.896
		c13.971,0,25.167-11.325,25.167-25.167V254.038C1967.321,240.197,1956.125,228.891,1942.154,228.891z M621.297,1720.979
		l136.135-205.835h469.553v205.835H621.297z M1227.006,1464.811H83.313v-181.549h1143.693V1464.811z M1277.319,1720.979v-96.887
		h381.602v96.887H1277.319z M1658.921,1063.432h-381.602v-91.087h381.602V1063.432z M1658.921,1113.769v460.01h-381.602v-460.01
		H1658.921z M1916.988,1464.811h-207.729v-181.549h207.729V1464.811z M1917.009,1232.924h-207.729V947.178
		c-0.021-13.841-11.325-25.146-25.166-25.146h-431.94c-13.841,0-25.167,11.326-25.167,25.167v285.746H83.313v-953.74h1833.696
		V1232.924z"/>
	<path fill="#010101" d="M1468.111,1646.229c-14.008,0-25.362,11.354-25.362,25.358c0,14.008,11.354,25.363,25.362,25.363
		c14.004,0,25.359-11.355,25.359-25.363C1493.471,1657.584,1482.115,1646.229,1468.111,1646.229z"/>
</g>
</svg>
