<?xml version="1.0" encoding="utf-8"?>
<!-- Generator: Adobe Illustrator 16.0.0, SVG Export Plug-In . SVG Version: 6.00 Build 0)  -->
<!DOCTYPE svg PUBLIC "-//W3C//DTD SVG 1.1//EN" "https://www.w3.org/Graphics/SVG/1.1/DTD/svg11.dtd">
<svg version="1.1" id="Layer_1" xmlns="https://www.w3.org/2000/svg" xmlns:xlink="https://www.w3.org/1999/xlink" x="0px" y="0px"
	 width="2000px" height="2000px" viewBox="0 0 2000 2000" enable-background="new 0 0 2000 2000" xml:space="preserve">
<g>
	<path fill="#010101" d="M1629.194,448.215H50.367V53.509h1578.828V448.215z M130.919,367.663h1417.722V134.062H130.919V367.663z"/>
	<rect x="247.72" y="210.586" fill="#010101" width="80.553" height="80.553"/>
	<rect x="404.797" y="210.586" fill="#010101" width="80.553" height="80.553"/>
	<rect x="561.875" y="210.586" fill="#010101" width="80.553" height="80.553"/>
	<g>
		<path fill="#010101" d="M1294.902,1370.542c-153.05,0-298.044-84.58-374.57-217.492
			c-124.855-209.437-52.358-475.26,157.078-592.06c64.442-36.249,140.967-56.387,217.492-56.387
			c153.05,0,298.043,84.58,374.567,217.492c56.389,100.69,72.497,217.492,44.305,330.264
			c-28.193,112.774-100.69,205.409-201.382,261.796C1443.924,1350.403,1367.399,1370.542,1294.902,1370.542z M1290.874,581.127
			c-60.415,0-124.856,16.111-177.215,48.332c-169.16,96.663-229.574,314.154-128.884,483.315
			c64.442,108.745,181.243,177.215,306.099,177.215c60.414,0,124.855-16.109,177.216-48.331
			c80.552-48.331,140.966-124.855,165.132-217.491c24.165-92.636,12.083-185.271-36.249-269.851
			C1536.559,649.597,1419.758,581.127,1290.874,581.127z"/>
		<path fill="#010101" d="M1786.271,1946.491L1786.271,1946.491c-56.388,0-108.746-32.221-136.939-80.552l-253.739-439.012
			l52.358-12.083c36.248-8.055,68.47-20.138,100.69-40.276c32.221-16.111,60.414-40.275,84.58-68.47l36.248-40.275l253.74,443.037
			c20.139,36.25,28.194,80.553,16.111,120.829c-12.083,40.277-36.249,76.525-72.497,96.664
			C1838.63,1938.437,1814.464,1946.491,1786.271,1946.491z M1516.421,1479.287l201.381,346.375
			c12.082,24.166,40.276,40.277,68.471,40.277l0,0c12.083,0,28.193-4.028,40.274-12.083c20.14-12.083,32.223-28.194,36.25-48.332
			s4.027-40.276-8.056-60.414l-201.38-346.376c-20.139,16.11-40.277,32.222-64.443,44.305
			C1564.752,1459.148,1540.587,1471.231,1516.421,1479.287z"/>
	</g>
	<polygon fill="#010101" points="1319.068,1551.784 50.367,1551.784 50.367,367.663 1588.918,367.663 1588.918,448.215 
		130.919,448.215 130.919,1471.231 1319.068,1471.231 	"/>
</g>
</svg>
