<?xml version="1.0" encoding="utf-8"?>
<!-- Generator: Adobe Illustrator 16.0.0, SVG Export Plug-In . SVG Version: 6.00 Build 0)  -->
<!DOCTYPE svg PUBLIC "-//W3C//DTD SVG 1.1//EN" "http://www.w3.org/Graphics/SVG/1.1/DTD/svg11.dtd">
<svg version="1.1" id="Layer_1" xmlns="http://www.w3.org/2000/svg" xmlns:xlink="http://www.w3.org/1999/xlink" x="0px" y="0px"
	 width="2000px" height="2000px" viewBox="0 0 2000 2000" enable-background="new 0 0 2000 2000" xml:space="preserve">
<g>
	<path fill="#010101" d="M1475.075,1088.623c13.356,15.725,21.726,35.848,21.726,58.09c0,32.959-17.867,61.52-44.284,77.242
		c13.355,15.746,21.726,35.869,21.726,58.113c0,32.98-17.89,61.496-44.285,77.242c13.355,15.723,21.726,35.846,21.726,58.09
		c0,49.832-40.402,90.236-90.236,90.236l-527.974-0.045v-0.543c-36.139-1.555-68.083-18.586-89.672-44.576H594.436
		c-62.308,0-112.796-121.209-112.796-270.709s50.488-270.709,112.796-270.709h189.203L955.382,672.95V560.153
		c12.204-73.588,67.677-67.678,67.677-67.678c49.901,0,67.677,22.56,67.677,22.56c67.679,67.677,67.679,180.473,67.679,180.473
		c0,149.071-67.679,225.592-67.679,225.592h338.387c49.834,0,90.236,40.403,90.236,90.236
		C1519.359,1044.316,1501.471,1072.877,1475.075,1088.623z M594.436,966.172c-17.393,0-67.677,77.558-67.677,225.591
		s50.284,225.59,67.677,225.59h125.835c-1.264-4.467-2.685-8.863-3.43-13.533c-13.354-64.791-32.169-171.293-32.169-257.176
		c0-91.205,49.698-155.589,67.677-180.472h0.045l0,0H594.436z M1429.123,966.217H990.596l66.346-75.008
		c0.564-0.655,56.353-67.317,56.353-195.565c0-0.948-1.218-95.47-54.458-148.688l-2.639-2.368
		c-15.182-9.542-36.071-7.083-36.071-7.083c-12.024,0-17.37,15.476-19.627,26.732v122.812L788.918,992.566l-2.458,3.43
		c-18.408,25.288-56.668,77.897-56.668,150.649c0,83.785,19.559,191.393,31.538,249.797c6.046,36.344,37.177,63.912,74.106,65.512
		l526.011,0.564c24.883,0,45.119-20.236,45.119-45.117c0-13.176-6.002-22.988-10.987-28.898l-34.493-40.629l45.749-27.318
		c13.965-8.326,22.289-22.719,22.289-38.486c0-13.176-6-23.033-11.009-28.943l-34.471-40.674l45.796-27.275
		c13.919-8.279,22.243-22.672,22.243-38.463c0-13.174-6.001-22.986-10.987-28.898l-34.492-40.629l45.75-27.318
		c13.965-8.324,22.289-22.717,22.289-38.51C1474.242,986.453,1454.006,966.217,1429.123,966.217z M628.275,1372.236
		c-18.679,0-33.839-15.16-33.839-33.84c0-18.678,15.16-33.838,33.839-33.838c18.679,0,33.838,15.16,33.838,33.838
		C662.113,1357.076,646.954,1372.236,628.275,1372.236z"/>
</g>
<g>
	<path fill="#010101" d="M1000.5,1942.762c-127.263,0-250.73-24.93-366.973-74.096c-112.266-47.484-213.086-115.458-299.661-202.033
		c-86.575-86.574-154.549-187.395-202.033-299.661C82.667,1250.729,57.737,1127.263,57.737,1000
		c0-127.263,24.929-250.73,74.096-366.973c47.484-112.266,115.458-213.086,202.033-299.661s187.395-154.549,299.661-202.033
		C749.77,82.166,873.237,57.237,1000.5,57.237s250.73,24.929,366.973,74.096c112.266,47.484,213.086,115.458,299.661,202.033
		s154.549,187.395,202.033,299.661c49.166,116.243,74.096,239.71,74.096,366.973c0,127.262-24.93,250.73-74.096,366.972
		c-47.484,112.267-115.458,213.087-202.033,299.661c-86.575,86.575-187.396,154.549-299.661,202.033
		C1251.23,1917.832,1127.763,1942.762,1000.5,1942.762z M1000.5,100.237c-121.477,0-239.308,23.787-350.222,70.699
		c-107.141,45.317-203.367,110.196-286.007,192.836c-82.64,82.639-147.519,178.866-192.835,286.006
		C124.524,760.691,100.737,878.523,100.737,1000c0,121.477,23.787,239.308,70.699,350.221
		c45.317,107.141,110.196,203.367,192.835,286.007s178.866,147.519,286.007,192.835c110.914,46.913,228.745,70.699,350.222,70.699
		s239.308-23.786,350.222-70.699c107.141-45.316,203.367-110.195,286.007-192.835s147.519-178.866,192.835-286.007
		c46.913-110.913,70.699-228.744,70.699-350.221c0-121.477-23.786-239.308-70.699-350.222
		c-45.316-107.141-110.195-203.367-192.835-286.006c-82.64-82.64-178.866-147.519-286.007-192.836
		C1239.808,124.023,1121.977,100.237,1000.5,100.237z"/>
</g>
</svg>
