<?xml version="1.0" encoding="utf-8"?>
<!-- Generator: Adobe Illustrator 16.0.0, SVG Export Plug-In . SVG Version: 6.00 Build 0)  -->
<!DOCTYPE svg PUBLIC "-//W3C//DTD SVG 1.1//EN" "https://www.w3.org/Graphics/SVG/1.1/DTD/svg11.dtd">
<svg version="1.1" id="Layer_1" xmlns="https://www.w3.org/2000/svg" xmlns:xlink="https://www.w3.org/1999/xlink" x="0px" y="0px"
	 width="2000px" height="2000px" viewBox="0 0 2000 2000" enable-background="new 0 0 2000 2000" xml:space="preserve">
<g>
	<path fill="#010101" d="M603.734,897.318h397.07c12.648,0,22.893-10.244,22.893-22.906s-10.244-22.906-22.893-22.906h-397.07
		c-12.662,0-22.906,10.244-22.906,22.906S591.102,897.318,603.734,897.318z"/>
	<path fill="#010101" d="M1397.832,1027.115H603.734c-12.662,0-22.906,10.271-22.906,22.92c0,12.646,10.244,22.891,22.906,22.891
		h794.098c12.676,0,22.92-10.244,22.92-22.891C1420.752,1037.387,1410.48,1027.115,1397.832,1027.115z"/>
	<path fill="#010101" d="M1397.832,1202.723H603.734c-12.662,0-22.906,10.244-22.906,22.92s10.244,22.92,22.906,22.92h794.098
		c12.676,0,22.92-10.244,22.92-22.92S1410.48,1202.723,1397.832,1202.723z"/>
	<path fill="#010101" d="M1930.064,916.061c-0.029-0.143-0.258-0.4-0.717-0.814l-0.629-0.631
		c-5.379-6.309-11.246-12.174-17.568-17.525l-749.59-747.328c-42.979-42.949-100.035-66.586-160.756-66.586
		c-60.748,0-117.82,23.637-160.771,66.586L90.416,897.09c-6.338,5.352-12.203,11.23-17.598,17.525l-0.629,0.631
		c-0.43,0.428-0.645,0.701-0.701,0.814c-22.047,26.512-35.354,60.535-35.354,97.633v751.248
		c0,84.242,68.547,152.773,152.773,152.773h811.896h811.854c84.24,0,152.803-68.531,152.803-152.773v-751.248
		C1965.461,976.596,1952.125,942.572,1930.064,916.061z M872.439,182.154c34.266-34.266,79.85-53.152,128.365-53.152
		c48.473,0,94.057,18.887,128.336,53.18l712.762,711.332l-217.271,217.127V815.91c0-84.242-68.531-152.773-152.773-152.773H529.723
		c-84.242,0-152.773,68.531-152.773,152.773v294.674L159.664,893.471L872.439,182.154z M1578.82,815.91v340.457l-449.68,449.277
		c-34.279,34.309-79.863,53.193-128.336,53.193c-48.488,0-94.1-18.885-128.365-53.193l-449.678-449.277V815.91
		c0-58.961,48-106.961,106.961-106.961h942.135C1530.861,708.949,1578.82,756.949,1578.82,815.91z M1919.619,1764.941
		c0,32.221-14.365,61.064-36.998,80.693l-404.01-404.01c-8.812-8.842-23.178-8.842-32.049,0l-0.314,0.314
		c-8.842,8.871-8.842,23.236,0,32.078l390.703,390.703h13.879c-11.875,4.551-24.723,7.182-38.172,7.182h-811.854H188.908
		c-13.449,0-26.283-2.631-38.143-7.182h13.863l390.703-390.703c8.857-8.842,8.857-23.207,0-32.078l-0.314-0.314
		c-8.842-8.842-23.191-8.842-32.076,0l-404.01,404.01c-22.605-19.629-36.971-48.473-36.971-80.693v-751.248
		c0-36.326,18.229-68.402,45.955-87.76l712.133,712.131c42.936,42.951,100.008,66.586,160.756,66.586
		c60.721,0,117.777-23.635,160.756-66.586l712.104-712.131c27.729,19.344,45.955,51.434,45.955,87.76V1764.941z"/>
</g>
</svg>
