<?xml version="1.0" encoding="utf-8"?>
<!-- Generator: Adobe Illustrator 16.0.0, SVG Export Plug-In . SVG Version: 6.00 Build 0)  -->
<!DOCTYPE svg PUBLIC "-//W3C//DTD SVG 1.1//EN" "https://www.w3.org/Graphics/SVG/1.1/DTD/svg11.dtd">
<svg version="1.1" id="Layer_1" xmlns="https://www.w3.org/2000/svg" xmlns:xlink="https://www.w3.org/1999/xlink" x="0px" y="0px"
	 width="2000px" height="2000px" viewBox="0 0 2000 2000" enable-background="new 0 0 2000 2000" xml:space="preserve">
<path fill="#010101" d="M599.562,623.792c-312.035,0-565.432,245.021-565.432,548.679c0,142.405,56.543,274.34,150.782,370.673
	c-4.188,94.239-18.848,224.078-75.392,288.999c108.898,0,217.796-87.957,284.811-150.782
	c64.919,25.13,134.027,37.694,207.324,37.694c312.036,0,565.432-245.021,565.432-548.679
	C1167.088,866.718,911.596,623.792,599.562,623.792z M599.562,1670.889c-64.92,0-129.84-12.564-190.572-35.602l-27.224-10.471
	l-20.942,20.942c-37.695,35.602-96.333,87.956-161.253,115.181c18.848-58.638,31.413-129.841,33.508-217.796v-20.941l-14.66-14.66
	c-87.956-92.144-136.123-213.608-136.123-339.26c-2.094-274.339,230.361-498.417,517.266-498.417
	c284.81,0,517.266,224.079,517.266,500.511C1116.828,1446.811,884.372,1670.889,599.562,1670.889z M1887.491,1383.984
	c-39.79-46.072-64.921-140.312-69.108-263.868c96.333-104.71,148.688-238.738,148.688-381.144
	c0-316.223-263.868-571.714-588.468-571.714c-215.703,0-414.651,115.181-517.266,297.375c-6.283,10.471-2.095,25.129,8.376,31.413
	c10.471,6.282,25.13,2.094,31.413-8.377c94.239-169.629,278.529-274.339,475.383-274.339c299.469,0,542.396,234.549,542.396,523.549
	c0,131.934-50.262,257.586-142.405,356.014l-6.283,6.282v10.471c2.095,81.673,14.659,184.288,52.354,257.585
	c-87.955-20.941-173.817-92.145-219.891-138.216l-10.471-10.471l-14.658,6.282c-62.826,25.131-129.84,37.695-198.948,37.695
	c-12.566,0-23.037,10.471-23.037,23.035c0,12.566,10.471,23.037,23.037,23.037c69.108,0,138.216-12.566,203.136-35.602
	c75.392,69.109,182.195,146.594,289,146.594h52.354L1887.491,1383.984z M1255.045,665.676c-31.413,0-54.449,25.131-54.449,54.449
	c0,31.413,25.13,54.45,54.449,54.45c31.412,0,54.448-25.13,54.448-54.45C1309.493,688.712,1286.457,665.676,1255.045,665.676z
	 M1424.674,665.676c-31.413,0-54.449,25.131-54.449,54.449c0,31.413,25.131,54.45,54.449,54.45c29.319,0,54.449-25.13,54.449-54.45
	C1479.123,688.712,1453.993,665.676,1424.674,665.676z M1594.304,665.676c-31.412,0-54.449,25.131-54.449,54.449
	c0,31.413,25.13,54.45,54.449,54.45c31.413,0,54.449-25.13,54.449-54.45C1648.753,688.712,1623.622,665.676,1594.304,665.676z
	 M465.533,988.183c8.377-6.284,16.753-14.66,25.131-20.942c8.377-6.283,18.848-12.565,29.319-16.754
	c10.471-4.188,23.036-8.376,35.601-12.564c12.566-4.189,27.225-4.189,41.884-4.189c18.848,0,37.696,2.095,54.45,8.376
	c16.753,6.284,31.413,12.566,41.884,23.037c12.564,10.471,20.942,23.037,29.318,37.695c6.284,14.659,10.471,31.413,10.471,50.261
	s-2.094,35.601-8.376,48.166c-6.282,12.566-12.566,25.131-20.942,35.602c-8.377,10.472-16.753,18.848-27.225,27.225
	c-10.471,8.376-18.848,14.66-27.225,20.942c-8.376,6.282-16.753,12.565-23.036,18.847c-6.282,6.283-12.564,6.283-14.659,14.659
	l-4.189,18.849H563.96l-4.188-39.79c0-10.471,2.095-10.471,6.282-18.847c4.189-8.378,12.566-10.472,20.942-16.755
	c8.377-6.282,16.755-12.564,27.226-18.847c10.471-6.283,18.847-12.566,27.224-20.942c8.376-8.376,16.753-16.753,20.942-29.317
	c6.283-10.472,8.376-23.037,8.376-39.791c0-10.471-2.093-20.941-6.282-29.319c-4.188-8.376-10.471-16.753-16.753-20.941
	c-6.283-6.282-14.66-10.471-25.131-14.658c-10.471-4.189-20.942-4.189-31.413-4.189c-14.659,0-27.224,2.095-37.695,6.282
	c-10.471,4.189-18.848,8.377-27.224,12.566c-8.377,4.188-12.566,8.376-18.849,12.564c-4.188,4.189-8.376,6.283-10.471,6.283
	c-6.282,0-10.471-2.094-14.66-8.377L465.533,988.183z M543.019,1379.796c0-6.282,0-10.472,2.094-16.754
	c2.095-4.188,4.188-8.376,8.377-12.564c4.188-4.188,8.377-6.282,12.564-8.377c4.189-2.094,10.471-4.188,16.754-4.188
	c6.283,0,10.471,2.095,16.753,4.188c4.189,2.095,8.376,4.188,12.565,8.377c4.188,4.188,6.282,8.376,8.377,12.564
	c2.094,4.188,4.189,10.472,4.189,16.754c0,6.283-2.095,10.471-4.189,16.754c-2.095,4.188-4.188,8.376-8.377,12.565
	c-4.189,4.188-8.376,6.283-12.565,8.377c-4.188,2.094-10.471,2.094-16.753,2.094c-6.283,0-10.471,0-16.754-2.094
	c-4.188-2.095-8.376-4.188-12.564-8.377c-4.189-4.188-6.283-8.377-8.377-12.565C545.112,1390.267,543.019,1383.984,543.019,1379.796
	z"/>
</svg>
