<?xml version="1.0" encoding="utf-8"?>
<!-- Generator: Adobe Illustrator 16.0.0, SVG Export Plug-In . SVG Version: 6.00 Build 0)  -->
<!DOCTYPE svg PUBLIC "-//W3C//DTD SVG 1.1//EN" "http://www.w3.org/Graphics/SVG/1.1/DTD/svg11.dtd">
<svg version="1.1" id="Layer_1" xmlns="http://www.w3.org/2000/svg" xmlns:xlink="http://www.w3.org/1999/xlink" x="0px" y="0px"
	 width="2000px" height="2000px" viewBox="0 0 2000 2000" enable-background="new 0 0 2000 2000" xml:space="preserve">
<g id="Layer_1_7_" display="none">
	<g id="Layer_1_8_" display="inline">
		<g>
			<g>
				<path fill="#010101" d="M722.064,1177.855c63.9,0,115.697,51.797,115.697,115.713s-51.797,115.682-115.697,115.682
					s-115.697-51.766-115.697-115.682S658.164,1177.855,722.064,1177.855z"/>
			</g>
		</g>
		<g>
			<g>
				<path fill="#010101" d="M1673.777,1177.885c63.885,0,115.684,51.799,115.684,115.684s-51.799,115.682-115.684,115.682
					s-115.682-51.797-115.682-115.682S1609.893,1177.885,1673.777,1177.885z"/>
			</g>
		</g>
		<g>
			<path fill="#010101" d="M247.248,665.146H46.18c-12.91,0-23.396-10.457-23.396-23.414c0-12.91,10.486-23.396,23.396-23.396
				h201.068c12.912,0,23.398,10.486,23.398,23.396C270.646,654.689,260.16,665.146,247.248,665.146z"/>
		</g>
		<g>
			<path fill="#010101" d="M304.701,808.777H180.227c-12.943,0-23.414-10.471-23.414-23.412c0-12.91,10.471-23.398,23.414-23.398
				h124.475c12.926,0,23.414,10.488,23.414,23.398C328.131,798.291,317.643,808.777,304.701,808.777z"/>
		</g>
		<g>
			<path fill="#010101" d="M1931.18,1453.154H124.576c-12.928,0-23.414-10.502-23.414-23.428c0-12.957,10.486-23.428,23.414-23.428
				H1931.18c12.926,0,23.398,10.471,23.398,23.428C1954.578,1442.652,1944.105,1453.154,1931.18,1453.154z"/>
		</g>
		<g>
			<path fill="#010101" d="M1905.018,564.053h-680.67v47.137h680.732c10.441,0,26.35-2.082,26.35,8.42v612.342
				c0,10.533-15.908,15.598-26.412,15.598h-17.648c-0.062,0-2.176-3.045-2.361-3.852c-22.186-97.66-111.021-167.666-211.105-167.666
				c-97.754,0-183.793,64.691-209.209,159.215c-2.611,12.863-11.963,12.303-13.797,12.303h-226.549v47.137h226.953
				c19.141,0,56.924-7.238,65.469-49.994c18.736-69.479,83.492-116.77,157.133-116.77c75.381,0,142.219,54.625,158.967,128.172
				c3.914,31.912,30.232,47.883,54.438,47.883c0.559,0,1.988,0.342,2.609,0.25l15.6,0.217c39.988,0,73.051-32.377,73.051-72.398
				V643.178C1978.566,603.156,1945.008,564.053,1905.018,564.053z"/>
		</g>
		<g>
			<path fill="#010101" d="M1271.516,1247.549H945.07c-1.863,0-11.17,0.996-13.811-11.932
				c-25.371-94.459-111.41-159.586-209.195-159.586c-100.1,0-188.873,69.602-211.137,167.262c-0.154,0.838-2.236,4.256-2.33,4.256
				H490.98c-10.52,0-20.818-5.064-20.818-15.566V619.609c0-10.502,10.299-8.42,20.756-8.42h780.598v-47.137H490.98
				c-40.021,0-67.955,39.104-67.955,79.125v588.773c0,40.021,30.232,72.586,70.238,72.586l13.92-0.062
				c0.592,0.062,1.445,0.062,2.035,0.062c24.16,0,50.197-15.35,54.16-47.23c16.732-73.549,83.459-126.961,158.811-126.961
				c73.625,0,138.318,44.744,157.055,114.314c8.592,42.787,46.25,50.025,65.406,50.025h326.865V1247.549z"/>
		</g>
		<g>
			<path fill="#010101" d="M705.846,895.025h-94.273c-26.542,0-48.137-21.594-48.137-48.137v-94.273
				c0-26.551,21.594-48.152,48.137-48.152h94.273c26.542,0,48.137,21.601,48.137,48.152v94.273
				C753.982,873.431,732.388,895.025,705.846,895.025z M611.572,706.463c-25.44,0-46.137,20.704-46.137,46.152v94.273
				c0,25.44,20.697,46.137,46.137,46.137h94.273c25.44,0,46.137-20.697,46.137-46.137v-94.273c0-25.449-20.697-46.152-46.137-46.152
				H611.572z"/>
		</g>
		<g>
			<path fill="#010101" d="M988.695,895.025h-94.289c-26.542,0-48.137-21.594-48.137-48.137v-94.273
				c0-26.551,21.594-48.152,48.137-48.152h94.289c26.525,0,48.105,21.601,48.105,48.152v94.273
				C1036.801,873.431,1015.221,895.025,988.695,895.025z M894.406,706.463c-25.44,0-46.137,20.704-46.137,46.152v94.273
				c0,25.44,20.697,46.137,46.137,46.137h94.289c25.423,0,46.105-20.697,46.105-46.137v-94.273
				c0-25.449-20.683-46.152-46.105-46.152H894.406z"/>
		</g>
		<g>
			<path fill="#010101" d="M1271.516,895.025h-94.273c-26.56,0-48.168-21.594-48.168-48.137v-94.273
				c0-26.551,21.608-48.152,48.168-48.152h94.273c26.525,0,48.105,21.601,48.105,48.152v94.273
				C1319.621,873.431,1298.041,895.025,1271.516,895.025z M1177.242,706.463c-25.457,0-46.168,20.704-46.168,46.152v94.273
				c0,25.44,20.711,46.137,46.168,46.137h94.273c25.423,0,46.105-20.697,46.105-46.137v-94.273
				c0-25.449-20.683-46.152-46.105-46.152H1177.242z"/>
		</g>
		<g>
			<path fill="#010101" d="M1554.336,895.025h-94.273c-26.543,0-48.137-21.594-48.137-48.137v-94.273
				c0-26.551,21.594-48.152,48.137-48.152h94.273c26.543,0,48.137,21.601,48.137,48.152v94.273
				C1602.473,873.431,1580.879,895.025,1554.336,895.025z M1460.062,706.463c-25.439,0-46.137,20.704-46.137,46.152v94.273
				c0,25.44,20.697,46.137,46.137,46.137h94.273c25.439,0,46.137-20.697,46.137-46.137v-94.273
				c0-25.449-20.697-46.152-46.137-46.152H1460.062z"/>
		</g>
		<g>
			<path fill="#010101" d="M1813.604,1012.867h-94.273c-26.56,0-48.168-21.594-48.168-48.137V752.615
				c0-26.551,21.608-48.152,48.168-48.152h94.273c26.525,0,48.105,21.601,48.105,48.152V964.73
				C1861.709,991.273,1840.129,1012.867,1813.604,1012.867z M1719.33,706.463c-25.457,0-46.168,20.704-46.168,46.152V964.73
				c0,25.44,20.711,46.137,46.168,46.137h94.273c25.423,0,46.105-20.697,46.105-46.137V752.615
				c0-25.449-20.683-46.152-46.105-46.152H1719.33z"/>
		</g>
	</g>
	<g id="smarthphone_3_" display="inline">
		<g>
			<g>
				<g>
					<path fill="#010101" d="M1660.387,1695.363H599.795c-13.02,0-23.568-10.533-23.568-23.553
						c0-13.051,10.549-23.584,23.568-23.584h1060.592c13.018,0,23.584,10.533,23.584,23.584
						C1683.971,1684.83,1673.404,1695.363,1660.387,1695.363z"/>
				</g>
			</g>
			<g>
				<g>
					<path fill="#010101" d="M1126.938,1758.783c34.832,0,63.045,28.244,63.045,63.045c0,34.832-28.213,63.076-63.045,63.076
						s-63.047-28.244-63.047-63.076C1063.891,1787.027,1092.105,1758.783,1126.938,1758.783z"/>
				</g>
			</g>
			<g>
				<g>
					<path fill="#010101" d="M1660.387,328.369H599.795c-13.02,0-23.568-10.564-23.568-23.568s10.549-23.568,23.568-23.568h1060.592
						c13.018,0,23.584,10.564,23.584,23.568S1673.404,328.369,1660.387,328.369z"/>
				</g>
			</g>
			<g>
				<g>
					<g>
						<path fill="#010101" d="M969.369,161.246c13.92,0,25.199,11.295,25.199,25.215c0,13.922-11.279,25.217-25.199,25.217
							c-13.951,0-25.23-11.295-25.23-25.217C944.139,172.541,955.418,161.246,969.369,161.246z"/>
					</g>
				</g>
				<g>
					<g>
						<path fill="#010101" d="M1306.877,186.959c0,13.004-10.564,23.568-23.584,23.568h-212.131
							c-12.988,0-23.553-10.564-23.553-23.568l0,0c0-13.02,10.564-23.568,23.553-23.568h212.131
							C1296.312,163.391,1306.877,173.939,1306.877,186.959L1306.877,186.959z"/>
					</g>
				</g>
			</g>
			<g>
				<g>
					<path fill="#010101" d="M1509.096,1978.186h-758.01c-96.434,0-174.859-78.428-174.859-174.846V196.84
						c0-96.434,78.426-174.875,174.859-174.875h758.01c96.447,0,174.875,78.441,174.875,174.875v1606.5
						C1683.971,1899.758,1605.543,1978.186,1509.096,1978.186z M751.086,69.102c-70.426,0-127.723,57.297-127.723,127.738v1606.5
						c0,70.379,57.297,127.707,127.723,127.707h758.01c70.408,0,127.707-57.328,127.707-127.707V196.84
						c0-70.441-57.299-127.738-127.707-127.738H751.086z"/>
				</g>
			</g>
		</g>
	</g>
</g>
<g id="Layer_1_6_" display="none">
	<g display="inline">
		<g>
			<g>
				<path fill="#010101" d="M722.064,1177.855c63.9,0,115.697,51.797,115.697,115.713s-51.797,115.682-115.697,115.682
					s-115.697-51.766-115.697-115.682S658.164,1177.855,722.064,1177.855z"/>
			</g>
		</g>
	</g>
	<g display="inline">
		<g>
			<g>
				<path fill="#010101" d="M1673.777,1177.885c63.885,0,115.684,51.799,115.684,115.684s-51.799,115.682-115.684,115.682
					s-115.682-51.797-115.682-115.682S1609.893,1177.885,1673.777,1177.885z"/>
			</g>
		</g>
	</g>
	<g display="inline">
		<g>
			<path fill="#010101" d="M247.248,665.146H46.18c-12.91,0-23.396-10.457-23.396-23.414c0-12.91,10.486-23.396,23.396-23.396
				h201.068c12.912,0,23.398,10.486,23.398,23.396C270.646,654.689,260.16,665.146,247.248,665.146z"/>
		</g>
	</g>
	<g display="inline">
		<g>
			<path fill="#010101" d="M304.701,808.777H180.227c-12.943,0-23.414-10.471-23.414-23.412c0-12.91,10.471-23.398,23.414-23.398
				h124.475c12.926,0,23.414,10.488,23.414,23.398C328.131,798.291,317.643,808.777,304.701,808.777z"/>
		</g>
	</g>
	<g display="inline">
		<g>
			<path fill="#010101" d="M1931.18,1453.154H124.576c-12.928,0-23.414-10.502-23.414-23.428c0-12.957,10.486-23.428,23.414-23.428
				H1931.18c12.926,0,23.398,10.471,23.398,23.428C1954.578,1442.652,1944.105,1453.154,1931.18,1453.154z"/>
		</g>
	</g>
	<g display="inline">
		<g>
			<path fill="#010101" d="M1905.018,564.053h-680.67v47.137h680.732c10.441,0,26.35-2.082,26.35,8.42v612.342
				c0,10.533-15.908,15.598-26.412,15.598h-17.648c-0.062,0-2.176-3.045-2.361-3.852c-22.186-97.66-111.021-167.666-211.105-167.666
				c-97.754,0-183.793,64.691-209.209,159.215c-2.611,12.863-11.963,12.303-13.797,12.303h-226.549v47.137h226.953
				c19.141,0,56.924-7.238,65.469-49.994c18.736-69.479,83.492-116.77,157.133-116.77c75.381,0,142.219,54.625,158.967,128.172
				c3.914,31.912,30.232,47.883,54.438,47.883c0.559,0,1.988,0.342,2.609,0.25l15.6,0.217c39.988,0,73.051-32.377,73.051-72.398
				V643.178C1978.566,603.156,1945.008,564.053,1905.018,564.053z"/>
		</g>
	</g>
	<g display="inline">
		<g>
			<path fill="#010101" d="M1271.516,1247.549H945.07c-1.863,0-11.17,0.996-13.811-11.932
				c-25.371-94.459-111.41-159.586-209.195-159.586c-100.1,0-188.873,69.602-211.137,167.262c-0.154,0.838-2.236,4.256-2.33,4.256
				H490.98c-10.52,0-20.818-5.064-20.818-15.566V619.609c0-10.502,10.299-8.42,20.756-8.42h780.598v-47.137H490.98
				c-40.021,0-67.955,39.104-67.955,79.125v588.773c0,40.021,30.232,72.586,70.238,72.586l13.92-0.062
				c0.592,0.062,1.445,0.062,2.035,0.062c24.16,0,50.197-15.35,54.16-47.23c16.732-73.549,83.459-126.961,158.811-126.961
				c73.625,0,138.318,44.744,157.055,114.314c8.592,42.787,46.25,50.025,65.406,50.025h326.865V1247.549z"/>
		</g>
	</g>
	<g display="inline">
		<g>
			<path fill="#010101" d="M705.846,917.594h-94.273c-38.98,0-70.705-31.725-70.705-70.705v-94.273
				c0-38.98,31.725-70.705,70.705-70.705h94.273c38.994,0,70.719,31.725,70.719,70.705v94.273
				C776.564,885.869,744.84,917.594,705.846,917.594z M611.572,729.047c-12.988,0-23.568,10.58-23.568,23.568v94.273
				c0,12.988,10.58,23.568,23.568,23.568h94.273c12.988,0,23.582-10.58,23.582-23.568v-94.273c0-12.988-10.594-23.568-23.582-23.568
				H611.572z"/>
		</g>
	</g>
	<g display="inline">
		<g>
			<path fill="#010101" d="M988.695,917.594h-94.289c-38.979,0-70.705-31.725-70.705-70.705v-94.273
				c0-38.98,31.727-70.705,70.705-70.705h94.289c38.965,0,70.689,31.725,70.689,70.705v94.273
				C1059.385,885.869,1027.66,917.594,988.695,917.594z M894.406,729.047c-12.988,0-23.568,10.58-23.568,23.568v94.273
				c0,12.988,10.58,23.568,23.568,23.568h94.289c12.988,0,23.553-10.58,23.553-23.568v-94.273c0-12.988-10.564-23.568-23.553-23.568
				H894.406z"/>
		</g>
	</g>
	<g display="inline">
		<g>
			<path fill="#010101" d="M1271.516,917.594h-94.273c-38.996,0-70.721-31.725-70.721-70.705v-94.273
				c0-38.98,31.725-70.705,70.721-70.705h94.273c38.965,0,70.689,31.725,70.689,70.705v94.273
				C1342.205,885.869,1310.48,917.594,1271.516,917.594z M1177.242,729.047c-13.02,0-23.584,10.58-23.584,23.568v94.273
				c0,12.988,10.564,23.568,23.584,23.568h94.273c12.988,0,23.553-10.58,23.553-23.568v-94.273
				c0-12.988-10.564-23.568-23.553-23.568H1177.242z"/>
		</g>
	</g>
	<g display="inline">
		<g>
			<path fill="#010101" d="M1554.336,917.594h-94.273c-38.996,0-70.721-31.725-70.721-70.705v-94.273
				c0-38.98,31.725-70.705,70.721-70.705h94.273c38.965,0,70.721,31.725,70.721,70.705v94.273
				C1625.057,885.869,1593.301,917.594,1554.336,917.594z M1460.062,729.047c-13.02,0-23.584,10.58-23.584,23.568v94.273
				c0,12.988,10.564,23.568,23.584,23.568h94.273c12.988,0,23.553-10.58,23.553-23.568v-94.273
				c0-12.988-10.564-23.568-23.553-23.568H1460.062z"/>
		</g>
	</g>
	<g display="inline">
		<g>
			<path fill="#010101" d="M1813.604,1035.451h-94.273c-38.996,0-70.721-31.742-70.721-70.721V752.615
				c0-38.98,31.725-70.705,70.721-70.705h94.273c38.965,0,70.689,31.725,70.689,70.705V964.73
				C1884.293,1003.709,1852.568,1035.451,1813.604,1035.451z M1719.33,729.047c-13.02,0-23.584,10.58-23.584,23.568V964.73
				c0,12.988,10.564,23.568,23.584,23.568h94.273c12.988,0,23.553-10.58,23.553-23.568V752.615
				c0-12.988-10.564-23.568-23.553-23.568H1719.33z"/>
		</g>
	</g>
</g>
<g id="cloud_1_" display="none">
	<g display="inline">
		<path fill="#010101" d="M1628.506,1294.904h-448.652c-155.984,0-282.852-126.9-282.852-282.867
			c0-155.982,126.867-282.852,282.852-282.852c21.719,0,43.438,2.564,64.816,7.629c42.568-51.379,106.143-81.611,173.041-81.611
			c121.523,0,220.924,97.023,224.621,217.707c110.059,7.133,197.434,98.936,197.434,210.764
			C1839.703,1200.133,1744.965,1294.904,1628.506,1294.904z M1179.854,773.496c-131.561,0-238.543,106.996-238.543,238.557
			s106.982,238.572,238.543,238.572h448.652c92.006,0,166.889-74.883,166.889-166.92c0-92.035-74.883-166.92-166.889-166.92
			c-1.398,0-2.828,0.094-4.258,0.186l-3.791,0.25c-6.432,0.154-12.49-2.176-16.902-6.729c-4.412-4.566-6.65-10.766-6.152-17.074
			c0.342-4.77,0.652-9.104,0.652-13.484c0-99.494-80.912-180.422-180.406-180.422c-57.764,0-112.574,28.184-146.475,75.412
			c-5.469,7.645-15.193,11.016-24.236,8.344C1224.908,776.773,1202.35,773.496,1179.854,773.496z"/>
	</g>
</g>
<g id="music_1_" display="none">
	<g display="inline">
		<path fill="#010101" d="M1626.268,1118.879c0.031-0.59,0-423.795,0-423.795c0-7.115-3.23-13.857-8.73-18.348
			c-5.531-4.443-12.74-6.199-19.793-4.707L1199.365,757.4c-10.844,2.33-18.58,11.916-18.58,23.039v354.039
			c-21.781-13.672-49.498-21.721-80.135-21.721c-12.646,0-25.512,1.367-38.189,3.979c-36.291,7.52-68.545,25.105-90.73,49.467
			c-24.158,26.473-33.992,57.732-27.639,88.059c10.098,48.752,61.57,82.838,125.205,82.838c12.615,0,25.48-1.367,38.158-3.977
			c36.291-7.551,68.545-25.107,90.793-49.467c21.471-23.553,29.021-46.732,29.021-78.086c0.154-1.025,0-406.053,0-406.053
			l351.861-75.256v324.83c-21.656-13.518-49.186-21.473-79.637-21.473c-12.646,0-25.48,1.338-38.158,3.947
			c-36.322,7.551-68.514,25.137-90.762,49.498c-24.143,26.443-33.992,57.732-27.686,88.027c10.16,48.752,61.617,82.84,125.191,82.84
			c12.678,0,25.541-1.336,38.219-3.979c36.291-7.551,68.514-25.105,90.762-49.436
			C1618.967,1174.438,1626.268,1151.443,1626.268,1118.879z M1163.385,1251.838c-15.6,17.09-38.871,29.58-65.562,35.111
			c-9.508,1.988-19.141,2.982-28.557,2.982c-41.014,0-73.547-18.611-79.047-45.303c-3.17-15.133,2.641-31.693,16.281-46.67
			c15.6-17.09,38.871-29.551,65.531-35.082c9.539-1.988,19.141-3.014,28.588-3.014c41.016,0,73.547,18.645,79.078,45.334
			C1182.836,1220.33,1177.057,1236.861,1163.385,1251.838z M1562.26,1166.668c-15.629,17.09-38.871,29.551-65.531,35.082
			c-9.57,1.988-19.203,2.982-28.648,2.982c-41.016,0-73.518-18.613-79.049-45.303c-3.107-15.133,2.672-31.695,16.312-46.641
			c15.631-17.09,38.902-29.549,65.594-35.08c9.479-2.02,19.141-3.014,28.525-3.014c41.016,0,73.578,18.611,79.078,45.303
			C1581.68,1135.131,1575.9,1151.723,1562.26,1166.668z"/>
	</g>
	<g display="inline">
		<path fill="#010101" d="M1227.393,1204.514"/>
	</g>
</g>
<g>
	<path fill="#010101" d="M854.241,1762.598c-34.816,0-63.047,28.244-63.047,63.045c0,34.832,28.23,63.076,63.047,63.076
		c34.832,0,63.061-28.244,63.061-63.076C917.302,1790.842,889.073,1762.598,854.241,1762.598z"/>
	<path fill="#010101" d="M696.657,215.492c13.936,0,25.23-11.295,25.23-25.217c0-13.92-11.295-25.215-25.23-25.215
		c-13.92,0-25.215,11.295-25.215,25.215C671.442,204.197,682.737,215.492,696.657,215.492z"/>
	<path fill="#010101" d="M798.481,214.342h212.131c13.02,0,23.553-10.564,23.553-23.568c0-13.02-10.533-23.568-23.553-23.568
		H798.481c-13.004,0-23.568,10.549-23.568,23.568C774.913,203.777,785.478,214.342,798.481,214.342z"/>
	<path fill="#010101" d="M1387.208,1410.33c-12.988,0-23.055,10.533-23.055,23.553v218.158H350.667V332.184h1013.486v217.289
		c0,13.004,10.564,23.568,23.553,23.568c13.049,0,23.553-10.564,23.553-23.568V200.654c0-96.434-78.428-174.875-174.844-174.875
		H478.39c-96.416,0-174.859,78.441-174.859,174.875v1606.5c0,96.418,78.443,174.846,174.859,174.846h758.025
		c96.416,0,174.844-78.428,174.844-174.846v-373.271C1411.259,1420.863,1400.196,1410.33,1387.208,1410.33z M478.39,72.916h758.025
		c70.408,0,127.738,57.297,127.738,127.738v84.393H350.667v-84.393C350.667,130.213,407.995,72.916,478.39,72.916z
		 M1236.415,1934.861H478.39c-70.395,0-127.723-57.328-127.723-127.707v-107.977h1013.486v107.977
		C1364.153,1877.533,1306.823,1934.861,1236.415,1934.861z"/>
	<path fill="#010101" d="M1573.89,666.49h-490.6c-79.266,0-143.74,64.475-143.74,143.74v233.479
		c0,79.234,64.475,143.709,143.74,143.709h260.604v59.783c0,41.822,23.086,56.707,42.879,56.707
		c14.232,0,28.619-7.117,42.693-21.191c0.746-0.746,1.43-1.523,2.051-2.33l71.467-92.969h70.906
		c79.297,0,143.773-64.506,143.773-143.709V810.23C1717.663,730.965,1653.155,666.49,1573.89,666.49z M1670.526,1043.709
		c0,53.227-43.316,96.541-96.637,96.541h-82.496c-7.332,0-14.262,3.418-18.705,9.229l-77.525,100.859
		c-1.367,1.338-2.611,2.424-3.729,3.264c-0.25-1.709-0.373-3.854-0.373-6.369v-83.367c0-13.051-10.564-23.553-23.584-23.553H1083.29
		c-53.258,0-96.604-43.346-96.604-96.574V810.262c0-53.273,43.346-96.619,96.604-96.619v-0.016h490.6
		c53.32,0,96.637,43.346,96.637,96.604V1043.709z"/>
</g>
</svg>
