<?xml version="1.0" encoding="utf-8"?>
<!-- Generator: Adobe Illustrator 16.0.0, SVG Export Plug-In . SVG Version: 6.00 Build 0)  -->
<!DOCTYPE svg PUBLIC "-//W3C//DTD SVG 1.1//EN" "http://www.w3.org/Graphics/SVG/1.1/DTD/svg11.dtd">
<svg version="1.1" id="Layer_1" xmlns="http://www.w3.org/2000/svg" xmlns:xlink="http://www.w3.org/1999/xlink" x="0px" y="0px"
	 width="2000px" height="2000px" viewBox="0 0 2000 2000" enable-background="new 0 0 2000 2000" xml:space="preserve">
<g id="Ebene_1">
	<path fill="#010101" d="M1968.613,1127.375c-15.543-520.348-443.652-938.863-967.711-938.863S48.738,607.027,33.176,1127.375H32.68
		v498.773c0,102.488,83.359,185.832,185.816,185.832c95.191,0,173.848-71.957,184.543-164.344
		c79.844,55.914,243.629,84.234,494.352,86.02c12.773,45.152,54.332,78.324,103.512,78.324c59.316,0,107.57-48.258,107.57-107.57
		c0-59.348-48.254-107.605-107.57-107.605c-49.113,0-90.637,33.105-103.445,78.164c-444.41-3.172-493.129-89.52-493.129-127.047
		v-234.715c0-102.457-83.379-185.832-185.832-185.832H91.879c15.547-487.984,417.312-880.195,909.023-880.195
		c491.68,0,893.445,392.211,909.027,880.195h-126.617c-102.457,0-185.832,83.375-185.832,185.832v312.941
		c0,102.488,83.375,185.832,185.832,185.832c102.453,0,185.797-83.344,185.797-185.832v-498.773H1968.613z M1000.902,1655.492
		c26.934,0,48.883,21.949,48.883,48.918c0,26.934-21.949,48.883-48.883,48.883c-26.965,0-48.918-21.949-48.918-48.883
		C951.984,1677.441,973.938,1655.492,1000.902,1655.492z M345.641,1313.207v312.941c0,70.109-57.039,127.145-127.145,127.145
		c-70.109,0-127.145-57.035-127.145-127.145v-440.086h127.145C288.602,1186.062,345.641,1243.098,345.641,1313.207z
		 M1910.457,1626.148c0,70.109-57.039,127.145-127.145,127.145c-70.109,0-127.145-57.035-127.145-127.145v-312.941
		c0-70.109,57.035-127.145,127.145-127.145h127.145V1626.148z"/>
</g>
</svg>
