<?xml version="1.0" encoding="utf-8"?>
<!-- Generator: Adobe Illustrator 16.0.0, SVG Export Plug-In . SVG Version: 6.00 Build 0)  -->
<!DOCTYPE svg PUBLIC "-//W3C//DTD SVG 1.1//EN" "http://www.w3.org/Graphics/SVG/1.1/DTD/svg11.dtd">
<svg version="1.1" id="Layer_1" xmlns="http://www.w3.org/2000/svg" xmlns:xlink="http://www.w3.org/1999/xlink" x="0px" y="0px"
	 width="2000px" height="2000px" viewBox="0 0 2000 2000" enable-background="new 0 0 2000 2000" xml:space="preserve">
<path fill="#010101" d="M1910.449,1487.32c-34.645-27.746-204.543-142.152-318.949-218.441
	c-34.695-24.27-62.438-41.594-76.289-52.016c-20.797-13.848-41.594-20.797-58.918-20.797c-52.016,0-76.285,48.543-83.234,65.867
	c-51.969,97.082-103.984,152.574-128.305,152.574l0,0c-41.594-24.273-225.34-204.59-339.746-318.953
	c-114.41-114.43-294.684-294.727-318.953-339.797c0,0,0-3.473,0-6.945c10.398-27.723,72.789-79.715,152.527-121.332
	c34.695-17.348,55.492-41.617,62.414-65.891c6.926-24.246,0-48.52-20.797-76.262c-6.922-10.398-27.742-38.145-48.539-72.816
	C658.844,305.031,540.965,128.23,513.242,93.539c-17.348-20.797-38.145-45.07-72.812-45.07c-17.324,0-34.672,6.949-58.941,13.875
	l-10.398,3.473c-55.469,17.348-100.559,38.145-183.746,121.332C69.461,305.031-20.699,457.605,118.004,783.504
	c124.805,294.68,450.703,620.582,464.578,634.477c13.871,13.848,343.223,339.75,634.477,464.578
	c110.934,48.543,204.543,69.34,287.777,69.34c149.055,0,242.664-72.812,305.055-138.68
	c83.234-83.234,104.035-128.301,121.355-183.793l3.477-10.375C1958.992,1570.508,1972.887,1535.816,1910.449,1487.32z
	 M1889.652,1601.727l-3.473,10.422c-13.852,41.594-27.746,83.188-107.461,162.906c-86.664,86.707-166.422,121.352-266.98,121.352
	c-76.289,0-162.949-20.797-266.984-65.863c-284.258-121.355-613.633-450.684-617.105-454.156
	c-3.473-3.477-332.848-332.848-454.18-617.152C55.59,481.875,111.055,346.648,228.938,225.293
	c79.738-79.738,121.355-93.609,162.949-107.484l10.398-3.449c17.348-6.926,31.219-10.398,38.145-10.398
	c3.473,0,10.398,0,27.742,20.797c27.723,34.668,145.605,211.492,214.945,315.5c24.27,34.672,41.617,62.414,48.543,72.812
	c6.922,10.398,13.871,20.797,10.398,31.195c-3.477,10.402-13.875,20.801-34.672,31.219
	c-48.543,24.25-159.477,90.137-180.297,156.004c-6.922,17.324-3.449,34.668,3.477,52.016
	c34.668,62.391,298.176,322.426,329.371,350.172c27.746,31.172,287.781,294.68,350.172,329.371
	c10.422,3.477,20.797,6.949,31.219,6.949c69.34,0,138.68-114.453,176.801-183.746c20.797-38.168,34.691-41.641,62.391-24.316
	c13.895,6.945,41.641,27.742,76.285,52.016c104.031,69.34,280.832,187.219,315.523,214.965
	C1903.504,1553.184,1903.504,1556.66,1889.652,1601.727z"/>
</svg>
