<?xml version="1.0" encoding="utf-8"?>
<!-- Generator: Adobe Illustrator 16.0.0, SVG Export Plug-In . SVG Version: 6.00 Build 0)  -->
<!DOCTYPE svg PUBLIC "-//W3C//DTD SVG 1.1//EN" "http://www.w3.org/Graphics/SVG/1.1/DTD/svg11.dtd">
<svg version="1.1" id="Layer_1" xmlns="http://www.w3.org/2000/svg" xmlns:xlink="http://www.w3.org/1999/xlink" x="0px" y="0px"
	 width="2000px" height="2000px" viewBox="0 0 2000 2000" enable-background="new 0 0 2000 2000" xml:space="preserve">
<path d="M1963.792,1532.951c-1.867-1.634-3.979-3.171-6.388-4.589c-137.508-80.949-274.986-161.939-412.832-242.312
	c-13.264-7.733-26.677-11.346-39.793-10.808c-16.572-0.646-32.766,5.256-47.689,17.777c-17.631,14.791-34.896,30.572-49.585,48.194
	c-35.776,42.924-69.019,87.97-105.001,130.711c-28.689,34.07-49.226,51.212-72.921,52.355
	c-18.249-0.814-38.741-10.688-66.338-29.246c-0.118-0.079-0.232-0.155-0.351-0.234c-58.136-39.158-115.548-79.625-171.567-121.832
	c-21.083-15.885-41.974-32.008-62.623-48.411c-60.693-48.213-120.562-97.498-177.018-150.413
	c-48.81-45.75-95.069-94.211-137.09-147.052c-51.424-64.666-96.918-132.635-119.008-213.836
	c-8.058-29.618-4.399-55.805,18.096-77.05c30.125-28.452,61.451-55.627,92.115-83.513c36.539-33.223,75.186-64.512,108.726-100.541
	c32.569-34.986,32.694-61.674,8.01-102.375C643.498,319.461,563.413,189.78,484.969,59.116c-11.783-19.63-27-30.032-46.318-30.068
	c-0.863-0.001-1.737,0.025-2.617,0.065c-0.788-0.037-1.581-0.063-2.383-0.065c-2.76-0.005-5.604,0.201-8.533,0.623
	c-28.854,4.146-59.438,8.219-85.017,20.907c-71.958,35.698-136.175,83.289-189.979,143.531
	C61.8,292.998,16.791,406.888,34.035,541.096C47.208,643.612,73.973,742.8,110.963,839.18
	c94.99,247.517,244.739,457.482,437.693,637.904c162.918,152.335,338.29,287.15,540.447,383.994
	c108.365,51.912,220.262,91.904,348.357,105.515c2.329,0.248,4.663,0.486,7.003,0.717c4.68,0.459,9.381,0.884,14.104,1.272
	c14.172,1.166,28.543,2.009,43.133,2.51c0.631-0.038,1.258-0.085,1.889-0.125c1.038,0.039,2.07,0.089,3.111,0.125
	c154.525-9.397,294.947-73.408,395.541-212.729c38.131-52.814,67.656-110.281,73.613-176.856
	C1977.441,1563.754,1978.063,1545.428,1963.792,1532.951z"/>
</svg>
