<?xml version="1.0" encoding="utf-8"?>
<!-- Generator: Adobe Illustrator 16.0.0, SVG Export Plug-In . SVG Version: 6.00 Build 0)  -->
<!DOCTYPE svg PUBLIC "-//W3C//DTD SVG 1.1//EN" "http://www.w3.org/Graphics/SVG/1.1/DTD/svg11.dtd">
<svg version="1.1" id="Layer_1" xmlns="http://www.w3.org/2000/svg" xmlns:xlink="http://www.w3.org/1999/xlink" x="0px" y="0px"
	 width="2000px" height="2000px" viewBox="0 0 2000 2000" enable-background="new 0 0 2000 2000" xml:space="preserve">
<g>
	<path fill="#010101" d="M772.973,1908.021H533.908c-41.218,0-74.848-33.153-75.683-74.224c-0.084-0.607-0.127-1.229-0.127-1.86
		v-98.064c0-37.904-15.138-73.106-42.634-99.146l-315.011-282.752c-25.22-18.862-40.257-48.814-40.257-80.264V480.828
		c0-55.167,44.871-100.049,100.023-100.049c54.887,0,99.592,44.427,100.043,99.21l52.721,437.568
		c0.445,3.691-0.652,7.403-3.033,10.259c-2.381,2.856-5.834,4.604-9.546,4.83c-66.116,4.043-117.908,59.116-117.908,125.379
		c0,40.035,18.479,76.788,50.698,100.835c0.344,0.258,0.676,0.531,0.995,0.819l283.945,257.523c2.579,2.337,5.911,3.626,9.378,3.626
		c3.981,0,7.661-1.63,10.361-4.587c5.102-5.652,4.657-14.487-1.042-19.641l-211.595-191.955l-81.815-74.264
		c-0.158-0.143-0.312-0.29-0.462-0.439c-18.921-18.88-29.344-43.994-29.349-70.718c-0.005-26.736,10.417-51.869,29.345-70.771
		c16.46-16.556,37.873-26.429,61.889-28.518c3.004-0.268,6.083-0.405,9.124-0.405c26.612,0,51.524,10.187,70.185,28.691
		l71.104,64.614c0.323,0.244,0.636,0.504,0.94,0.78l317.205,288.469c23.277,21.171,41.678,46.362,54.692,74.874
		c13.479,29.528,20.427,61.057,20.652,93.71v321.563C848.746,1874.023,814.754,1908.021,772.973,1908.021z M485.098,1830.196
		c0.073,0.57,0.111,1.151,0.111,1.741v0.297c0,26.901,21.847,48.787,48.699,48.787h239.064c26.894,0,48.773-21.886,48.773-48.787
		v-321.471c-0.198-28.729-6.327-56.548-18.214-82.591c-11.489-25.17-27.738-47.413-48.297-66.111l-316.27-287.618
		c-0.32-0.242-0.63-0.499-0.931-0.772l-72.268-65.672c-0.156-0.142-0.308-0.287-0.458-0.436
		c-13.589-13.562-31.822-21.031-51.342-21.031c-2.242,0-4.515,0.101-6.753,0.301c-17.607,1.532-33.208,8.687-45.146,20.693
		c-13.853,13.833-21.461,32.18-21.458,51.694c0.003,19.399,7.531,37.639,21.203,51.393l81.567,74.039l211.575,191.937
		c16.718,15.115,18.031,41.052,2.909,57.802c-7.814,8.56-18.858,13.438-30.352,13.438c-10.183,0-19.954-3.772-27.513-10.622
		l-283.482-257.104c-18.427-13.88-33.711-32.009-44.224-52.466c-10.989-21.383-16.797-45.454-16.797-69.612
		c0-75.69,55.631-139.364,129.048-150.793l-51.181-424.79c-0.065-0.536-0.097-1.075-0.097-1.615
		c0-40.279-32.769-73.049-73.047-73.049c-40.265,0-73.023,32.77-73.023,73.049v790.883c0,23.134,11.148,45.165,29.82,58.934
		c0.348,0.256,0.684,0.529,1.006,0.818l315.607,283.287c0.086,0.077,0.17,0.155,0.254,0.234
		c32.548,30.751,51.215,74.085,51.215,118.889V1830.196z"/>
</g>
<g>
	<path fill="#010101" d="M1466.598,1908.021H1227.57c-41.733,0-75.686-33.998-75.686-75.787v-321.471
		c0.219-32.744,7.161-64.273,20.635-93.804c13.011-28.515,31.412-53.713,54.693-74.896l317.185-288.445
		c0.247-0.225,0.5-0.438,0.76-0.642l71.276-64.781c18.665-18.496,43.561-28.678,70.138-28.678c3.055,0,6.15,0.138,9.2,0.412
		c23.979,2.068,45.399,11.938,61.902,28.538c18.901,18.881,29.322,44.023,29.31,70.763c-0.012,26.71-10.437,51.807-29.352,70.666
		c-0.151,0.15-0.305,0.297-0.463,0.439l-81.9,74.287l-128.831,116.956l-82.779,74.967c-5.676,5.14-6.073,13.983-0.886,19.716
		c2.646,2.943,6.274,4.546,10.25,4.546c3.493,0,6.837-1.284,9.413-3.615l283.995-257.489c0.315-0.286,0.644-0.558,0.985-0.812
		c32.169-24.046,50.619-60.8,50.619-100.839c0-66.279-51.796-121.352-117.918-125.378c-3.712-0.226-7.166-1.973-9.548-4.829
		c-2.382-2.856-3.479-6.568-3.035-10.26l52.698-437.569c0.451-54.782,45.207-99.209,100.154-99.209
		c55.146,0,100.012,44.87,100.012,100.023v790.883c0,31.478-15.056,61.431-40.312,80.27l-314.941,282.743
		c-27.18,25.777-42.763,61.904-42.763,99.149v98.361C1542.383,1874.023,1508.386,1908.021,1466.598,1908.021z M1561.807,1074.281
		l-316.425,287.755c-20.562,18.709-36.812,40.96-48.298,66.132c-11.884,26.044-18.007,53.863-18.199,82.686v321.381
		c0,26.901,21.84,48.787,48.686,48.787h239.027c26.9,0,48.785-21.886,48.785-48.787v-98.361c0-44.689,18.711-88.021,51.334-118.883
		c0.085-0.081,0.171-0.16,0.259-0.239l315.547-283.287c0.327-0.293,0.668-0.57,1.021-0.83
		c18.693-13.745,29.854-35.772,29.854-58.923V480.828c0-40.265-32.753-73.023-73.012-73.023c-40.34,0-73.158,32.769-73.158,73.047
		c0,0.54-0.032,1.079-0.097,1.614l-51.158,424.789c73.425,11.413,129.062,75.087,129.062,150.796
		c0,24.511-5.643,47.933-16.77,69.614c-10.495,20.449-25.756,38.575-44.16,52.457l-283.545,257.082
		c-7.562,6.84-17.337,10.602-27.537,10.603c-11.567,0.001-22.612-4.907-30.303-13.465c-15.142-16.733-13.894-42.683,2.813-57.811
		l82.767-74.955l128.824-116.949l81.656-74.065c13.666-13.736,21.193-31.958,21.202-51.344c0.01-19.518-7.6-37.872-21.425-51.683
		c-11.974-12.044-27.575-19.194-45.152-20.71c-2.297-0.206-4.581-0.308-6.835-0.308c-19.489,0-37.709,7.467-51.304,21.026
		c-0.147,0.147-0.299,0.291-0.453,0.432l-72.254,65.67C1562.315,1073.867,1562.064,1074.079,1561.807,1074.281z"/>
</g>
<rect x="741.223" y="452.66" fill="#010101" width="592.77" height="25.787"/>
<rect x="857.203" y="529.984" fill="#010101" width="360.797" height="25.775"/>
<path fill="#010101" d="M1483.012,877.912H566.428c-38.607,0-70.035-31.402-70.035-70.047V174.791
	c0-38.619,31.428-70.059,70.035-70.059h916.584c38.631,0,70.047,31.439,70.047,70.059v633.074
	C1553.059,846.51,1521.643,877.912,1483.012,877.912z M566.428,130.52c-24.424,0-44.271,19.848-44.271,44.271v633.074
	c0,24.424,19.848,44.271,44.271,44.271h916.584c24.424,0,44.26-19.848,44.26-44.271V174.791c0-24.424-19.836-44.271-44.26-44.271
	H566.428z"/>
<path fill="#010101" d="M666.451,301.979c-30.721,0-55.752-24.994-55.752-55.752c0-30.734,25.031-55.752,55.752-55.752
	c30.76,0,55.754,25.018,55.754,55.752C722.205,276.984,697.211,301.979,666.451,301.979z M666.451,216.225
	c-16.537,0-29.977,13.451-29.977,29.988c0,16.539,13.439,29.99,29.977,29.99c16.539,0,29.979-13.451,29.979-29.99
	C696.43,229.676,682.99,216.225,666.451,216.225z"/>
<path fill="#010101" d="M809.322,301.979c-30.721,0-55.715-24.994-55.715-55.752c0-30.734,24.994-55.752,55.715-55.752
	c30.76,0,55.766,25.018,55.766,55.752C865.088,276.984,840.082,301.979,809.322,301.979z M809.322,216.225
	c-16.537,0-29.977,13.451-29.977,29.988c0,16.539,13.439,29.99,29.977,29.99c16.539,0,29.99-13.451,29.99-29.99
	C839.312,229.676,825.861,216.225,809.322,216.225z"/>
<path fill="#010101" d="M952.205,301.979c-30.732,0-55.752-24.994-55.752-55.752c0-30.734,25.02-55.752,55.752-55.752
	c30.734,0,55.754,25.018,55.754,55.752C1007.959,276.984,982.939,301.979,952.205,301.979z M952.205,216.225
	c-16.5,0-29.988,13.451-29.988,29.988c0,16.539,13.488,29.99,29.988,29.99c16.539,0,29.99-13.451,29.99-29.99
	C982.195,229.676,968.744,216.225,952.205,216.225z"/>
</svg>
