<?xml version="1.0" encoding="utf-8"?>
<!-- Generator: Adobe Illustrator 16.0.0, SVG Export Plug-In . SVG Version: 6.00 Build 0)  -->
<!DOCTYPE svg PUBLIC "-//W3C//DTD SVG 1.1//EN" "http://www.w3.org/Graphics/SVG/1.1/DTD/svg11.dtd">
<svg version="1.1" id="Layer_1" xmlns="http://www.w3.org/2000/svg" xmlns:xlink="http://www.w3.org/1999/xlink" x="0px" y="0px"
	 width="2000px" height="2000px" viewBox="0 0 2000 2000" enable-background="new 0 0 2000 2000" xml:space="preserve">
<g>
	<path fill="#010101" d="M1001,65.895C485.11,65.895,66.895,484.109,66.895,1000c0,515.908,418.215,934.105,934.105,934.105
		c515.909,0,934.105-418.197,934.105-934.105C1935.105,484.109,1516.909,65.895,1001,65.895z M1001,1856.263
		c-472.902,0-856.263-383.342-856.263-856.263c0-472.902,383.36-856.263,856.263-856.263c472.922,0,856.263,383.361,856.263,856.263
		C1857.263,1472.921,1473.922,1856.263,1001,1856.263z"/>
	<rect x="971.807" y="182.667" fill="#010101" width="58.386" height="214.07"/>
	
		<rect x="1459.227" y="406.467" transform="matrix(0.7073 0.7069 -0.7069 0.7073 798.6501 -901.8811)" fill="#010101" width="58.423" height="214.087"/>
	
		<rect x="484.308" y="406.447" transform="matrix(0.707 -0.7072 0.7072 0.707 -212.6821 513.601)" fill="#010101" width="58.405" height="214.068"/>
	<rect x="1584.825" y="970.807" fill="#010101" width="214.09" height="58.387"/>
	<rect x="222.579" y="970.807" fill="#010101" width="214.07" height="58.387"/>
	<path fill="#010101" d="M631.246,1467.053v136.228h739.509v-136.228H631.246z M1342.939,1583.824H659.042v-97.277h683.897V1583.824
		z"/>
	<path fill="#010101" d="M992.96,903.476L821.218,484.789l-54.008,22.155L938.952,925.63
		c-31.721,26.475-44.497,71.067-27.966,111.281c20.4,49.743,77.239,73.521,126.945,53.083
		c49.724-20.381,73.521-77.219,53.102-126.943C1074.521,922.837,1034.1,900.079,992.96,903.476z"/>
</g>
</svg>
