<?xml version="1.0" encoding="utf-8"?>
<!-- Generator: Adobe Illustrator 16.0.0, SVG Export Plug-In . SVG Version: 6.00 Build 0)  -->
<!DOCTYPE svg PUBLIC "-//W3C//DTD SVG 1.1//EN" "http://www.w3.org/Graphics/SVG/1.1/DTD/svg11.dtd">
<svg version="1.1" id="Layer_1" xmlns="http://www.w3.org/2000/svg" xmlns:xlink="http://www.w3.org/1999/xlink" x="0px" y="0px"
	 width="2000px" height="2000px" viewBox="0 0 2000 2000" enable-background="new 0 0 2000 2000" xml:space="preserve">
<g>
	<polygon fill="#010101" points="202.704,468.553 130.131,407.712 202.704,346.849 	"/>
</g>
<g>
	<polygon fill="#010101" points="275.276,346.849 347.849,407.712 275.276,468.553 	"/>
</g>
<g>
	<circle fill="#010101" cx="1724.86" cy="1182.617" r="24.191"/>
</g>
<g>
	<rect x="275.276" y="1217.717" fill="#010101" width="604.77" height="24.191"/>
</g>
<g>
	<rect x="275.276" y="1314.48" fill="#010101" width="1064.395" height="24.19"/>
</g>
<g>
	<rect x="275.276" y="1411.243" fill="#010101" width="919.25" height="24.191"/>
</g>
<g>
	<rect x="275.276" y="1508.007" fill="#010101" width="749.914" height="24.19"/>
</g>
<path fill="#010101" d="M33.368,274.276v1451.448h1935.264V274.276H33.368z M57.559,298.467h1886.882v217.717H57.559V298.467z
	 M1944.441,540.375v418.09c-71.533-33.432-400.793-184.673-501.523-184.673c-51.019,0-107.674,18.12-167.691,37.302
	c-72.088,23.054-153.829,49.204-242.198,49.204c-77.048,0-151.652-71.555-223.789-140.765
	c-75.62-72.549-153.829-147.589-240.747-147.589c-146.547,0-431.95,293.483-510.933,377.788V540.375H1944.441z M1923.517,975.809
	H66.873c61.565-66.065,360.782-379.336,501.62-379.336c77.049,0,151.653,71.557,223.79,140.767
	c75.62,72.549,153.829,147.589,240.746,147.589c92.191,0,175.867-26.756,249.674-50.366c58.082-18.603,112.994-36.14,160.19-36.14
	C1533.246,798.322,1836.405,935.507,1923.517,975.809z M1944.441,1701.533H57.559V1000h1886.882V1701.533z"/>
<g>
	<path fill="#010101" d="M1629.961,588.249c26.706,0,48.382,21.675,48.382,48.381c0,26.707-21.676,48.382-48.382,48.382
		c-26.707,0-48.382-21.675-48.382-48.382C1581.579,609.923,1603.254,588.249,1629.961,588.249 M1629.961,564.058
		c-40.012,0-72.572,32.561-72.572,72.572c0,40.012,32.561,72.573,72.572,72.573c40.011,0,72.572-32.561,72.572-72.573
		C1702.533,596.619,1669.972,564.058,1629.961,564.058L1629.961,564.058z"/>
</g>
<g>
	<g>
		<path fill="#010101" d="M1750.915,1556.389v48.381h-193.526v-48.381H1750.915 M1775.105,1532.197h-241.908v96.764h241.908
			V1532.197L1775.105,1532.197z"/>
	</g>
</g>
<path fill="#010101" d="M1484.816,1072.572v411.244h338.671v-411.244H1484.816z M1799.296,1096.764v330.471
	c-55.009-134.405-69.209-134.452-77.072-134.452c-11.684,0-21.384,8.708-31.616,17.924c-8.831,7.959-18.845,16.958-25.327,17.346
	c-6.411-3.799-17.273-33.117-23.732-50.632c-13.668-36.891-24.479-66.04-44.656-66.04c-8.417,0-29.9,0.048-87.908,203.202v-317.818
	H1799.296z M1786.258,1459.625h-264.696c25.787-94.054,60.549-199.672,76.25-221.733c6.458,8.515,15.409,32.706,21.046,47.923
	c13.668,36.892,24.48,66.04,44.655,66.04c17.564,0,31.836-12.846,43.302-23.175c3.726-3.362,9.482-8.539,13.088-10.691
	C1731.949,1332.768,1762.309,1399.705,1786.258,1459.625z"/>
</svg>
