<?xml version="1.0" encoding="utf-8"?>
<!-- Generator: Adobe Illustrator 16.0.0, SVG Export Plug-In . SVG Version: 6.00 Build 0)  -->
<!DOCTYPE svg PUBLIC "-//W3C//DTD SVG 1.1//EN" "https://www.w3.org/Graphics/SVG/1.1/DTD/svg11.dtd">
<svg version="1.1" id="Layer_1" xmlns="https://www.w3.org/2000/svg" xmlns:xlink="https://www.w3.org/1999/xlink" x="0px" y="0px"
	 width="2000px" height="2000px" viewBox="0 0 2000 2000" enable-background="new 0 0 2000 2000" xml:space="preserve">
<g>
	<path fill="#010101" d="M1922.036,552.108c-23.361-101.101-106.41-175.61-206.339-186.739
		c-236.692-26.348-476.237-42.785-714.765-42.652c-238.528-0.133-478.096,16.305-714.81,42.652
		c-99.928,11.128-182.933,85.638-206.272,186.739c-33.206,143.931-33.626,301.024-33.626,449.247
		c0,148.201,0,305.294,33.229,449.248c23.361,101.013,106.366,175.61,206.294,186.672c236.692,26.349,476.237,42.785,714.787,42.675
		c238.527,0.11,478.095-16.305,714.766-42.675c99.95-11.083,182.978-85.659,206.338-186.672
		c33.207-143.954,33.45-301.047,33.45-449.248C1955.088,853.155,1955.265,696.039,1922.036,552.108 M1326.115,1045.312
		l-449.978,243.285c-44.731,24.202-81.345,2.366-81.345-48.472V762.562c0-50.86,36.591-72.695,81.345-48.493l449.978,243.307
		C1370.869,981.533,1370.869,1021.133,1326.115,1045.312"/>
</g>
</svg>
