<?xml version="1.0" encoding="UTF-8" standalone="no"?>
<!DOCTYPE svg PUBLIC "-//W3C//DTD SVG 20010904//EN"
              "http://www.w3.org/TR/2001/REC-SVG-20010904/DTD/svg10.dtd">

<svg xmlns="http://www.w3.org/2000/svg"
     width="0.8in" height="0.8in"
     viewBox="0 0 240 240">
  <path id="Selección"
        fill="#707070" stroke="black" stroke-width="1"
        d="M 37.00,2.00
           C 37.00,2.00 54.00,18.01 54.00,18.01
             54.00,18.01 98.00,62.00 98.00,62.00
             98.00,62.00 113.00,76.99 113.00,76.99
             114.71,78.66 117.37,81.73 120.00,81.38
             122.05,81.11 124.56,78.39 126.00,76.99
             126.00,76.99 137.00,66.00 137.00,66.00
             137.00,66.00 182.00,20.00 182.00,20.00
             182.00,20.00 195.00,7.00 195.00,7.00
             196.67,5.37 199.51,2.20 202.00,2.20
             204.49,2.20 207.33,5.37 209.00,7.00
             209.00,7.00 222.00,20.00 222.00,20.00
             224.51,22.51 235.18,32.74 236.26,35.00
             237.88,38.41 235.17,40.70 232.98,43.00
             232.98,43.00 219.00,57.00 219.00,57.00
             219.00,57.00 174.00,102.00 174.00,102.00
             174.00,102.00 163.01,113.00 163.01,113.00
             161.61,114.44 158.89,116.95 158.62,119.00
             158.31,121.37 160.56,123.44 162.02,125.00
             162.02,125.00 173.00,136.00 173.00,136.00
             173.00,136.00 221.00,183.00 221.00,183.00
             221.00,183.00 234.94,197.00 234.94,197.00
             236.88,199.17 238.70,200.98 237.26,204.00
             236.33,205.95 230.81,211.19 229.00,213.00
             229.00,213.00 212.00,230.00 212.00,230.00
             209.76,232.23 205.50,237.54 202.00,236.66
             199.15,235.95 187.81,223.81 185.00,221.00
             185.00,221.00 144.00,180.00 144.00,180.00
             144.00,180.00 127.00,163.01 127.00,163.01
             125.29,161.34 122.63,158.27 120.00,158.62
             117.95,158.89 115.44,161.61 114.00,163.01
             114.00,163.01 102.00,175.00 102.00,175.00
             102.00,175.00 57.04,220.00 57.04,220.00
             57.04,220.00 44.00,233.98 44.00,233.98
             42.49,235.42 40.24,237.80 38.00,237.80
             35.51,237.80 32.67,234.63 31.00,233.00
             31.00,233.00 17.00,219.00 17.00,219.00
             11.99,213.99 6.09,208.71 2.00,203.00
             2.00,203.00 18.01,186.00 18.01,186.00
             18.01,186.00 62.00,142.00 62.00,142.00
             62.00,142.00 76.99,127.00 76.99,127.00
             76.99,127.00 81.38,120.00 81.38,120.00
             81.38,120.00 76.99,114.00 76.99,114.00
             76.99,114.00 65.00,102.00 65.00,102.00
             65.00,102.00 20.00,57.04 20.00,57.04
             20.00,57.04 6.02,44.00 6.02,44.00
             6.02,44.00 2.20,38.00 2.20,38.00
             2.20,38.00 7.00,31.00 7.00,31.00
             7.00,31.00 21.00,17.00 21.00,17.00
             21.00,17.00 37.00,2.00 37.00,2.00 Z" />
</svg>
